/* XPM */
static char *result[] = {
/* columns rows colors chars-per-pixel */
"80 80 163 2 ",
"   c #D53637",
".  c #D53738",
"X  c #D63738",
"o  c #D63838",
"O  c #D63839",
"+  c #D63939",
"@  c #D6393A",
"#  c #D7393A",
"$  c #D73A3A",
"%  c #D73A3B",
"&  c #D73B3B",
"*  c #D73B3C",
"=  c #D83C3C",
"-  c #D83C3D",
";  c #D83D3D",
":  c #D93D3E",
">  c #D93E3E",
",  c #D93E3F",
"<  c #D93F3F",
"1  c #DA3F3F",
"2  c #D93F40",
"3  c #DA3F40",
"4  c #DA4040",
"5  c #DA4041",
"6  c #DA4141",
"7  c #DB4241",
"8  c #DA4142",
"9  c #DB4142",
"0  c #DA4242",
"q  c #DB4343",
"w  c #DC4343",
"e  c #DB4344",
"r  c #DC4344",
"t  c #DC4444",
"y  c #DC4445",
"u  c #DC4545",
"i  c #DD4546",
"p  c #DD4646",
"a  c #DD4746",
"s  c #DE4748",
"d  c #DE4848",
"f  c #DE4949",
"g  c #DE494A",
"h  c #DF4A4A",
"j  c #E04C4C",
"k  c #E04C4D",
"l  c #E04D4D",
"z  c #E04D4E",
"x  c #E04E4E",
"c  c #E14F4E",
"v  c #E14F4F",
"b  c #E1504F",
"n  c #E15050",
"m  c #E25151",
"M  c #E25152",
"N  c #E25252",
"B  c #E35252",
"V  c #E35352",
"C  c #E35353",
"Z  c #E35454",
"A  c #E45454",
"S  c #E45554",
"D  c #E55655",
"F  c #E55757",
"G  c #E65858",
"H  c #E65958",
"J  c #E65959",
"K  c #E75A59",
"L  c #E65A5A",
"P  c #E85C5B",
"I  c #E85D5C",
"U  c #E85D5D",
"Y  c #E95E5D",
"T  c #E85E5E",
"R  c #E85F5E",
"E  c #E95F5E",
"W  c #E95F5F",
"Q  c #EA5F5F",
"!  c #E96060",
"~  c #EA6161",
"^  c #EA6261",
"/  c #EB6262",
"(  c #EB6362",
")  c #EB6363",
"_  c #EC6665",
"`  c #ED6665",
"'  c #EC6666",
"]  c #ED6766",
"[  c #ED6767",
"{  c #ED6867",
"}  c #EE6868",
"|  c #EE6968",
" . c #EE6A6A",
".. c #EF6A6A",
"X. c #EF6B6A",
"o. c #EF6B6B",
"O. c #EF6C6A",
"+. c #F06B6A",
"@. c #F06E6D",
"#. c #F16E6D",
"$. c #F1706E",
"%. c #F1706F",
"&. c #F1716F",
"*. c #F2716F",
"=. c #F27170",
"-. c #F37171",
";. c #F27270",
":. c #F27271",
">. c #F27371",
",. c #F37372",
"<. c #F37373",
"1. c #F47272",
"2. c #F47372",
"3. c #F37473",
"4. c #F47573",
"5. c #F47574",
"6. c #F57575",
"7. c #F47674",
"8. c #F57776",
"9. c #F57876",
"0. c #F57977",
"q. c #F67977",
"w. c #F67779",
"e. c #F67978",
"r. c #F77978",
"t. c #F77979",
"y. c #F67A78",
"u. c #F67A79",
"i. c #F77C7B",
"p. c #F77D7B",
"a. c #F87B7B",
"s. c #F87D7C",
"d. c #F97D7C",
"f. c #F97D7D",
"g. c #FA7D7D",
"h. c #F87E7C",
"j. c #F87E7D",
"k. c #F97E7D",
"l. c #F87F7D",
"z. c #F97F7D",
"x. c #FA7E7D",
"c. c #F97E7E",
"v. c #F97F7E",
"b. c #F87F7F",
"n. c #F97F7F",
"m. c #FA7E7E",
"M. c #FA7F7E",
"N. c #FB7F7E",
"B. c #FA7E7F",
"V. c #FB7E7F",
"C. c #FA7F7F",
"Z. c #FB7F7F",
"A. c #FC7E7F",
"S. c #FC7F7F",
"D. c #F9807E",
"F. c #F9807F",
"G. c #FA807E",
"H. c #FA807F",
"J. c #FB807F",
"K. c #FB7E80",
"L. c #FC7E80",
"P. c #FA8080",
"I. c None",
/* pixels */
"I.I.I.I.I.I.I.I.I.I.I.I.I.I.I.I.I.I.I.I.I.I.I.I.I.I.I.I.I.I.I.I.7       G.H.          O I.I.I.I.I.I.I.I.I.I.I.I.I.I.I.I.I.I.I.I.I.I.I.I.I.I.I.I.I.I.I.I.I.I.I.I.",
"I.I.I.I.I.I.I.I.I.I.I.I.I.I.I.I.I.I.I.I.I.I.I.I.I.0 @ K I.  3.D.L.L.    v     L.L.L.L.L.L.  I.I.I.I.I.I.I.I.I.I.I.I.I.I.I.I.I.I.I.I.I.I.I.I.I.I.I.I.I.I.I.I.I.I.",
"I.I.I.I.I.I.I.I.I.I.I.I.I.I.I.I.I.I.I.I.I.    D.L.L.L.L.L.L.L., L.  L.O C.L.L.  L.L.D.  L.C.L.Z.L.c.    I.I.I.I.I.I.I.I.I.I.I.I.I.I.I.I.I.I.I.I.I.I.I.I.I.I.I.I.",
"I.I.I.I.I.I.I.I.I.I.I.I.I.I.I.I.I.I.I.  L.L.L.L.L.L.L.L.L.L.L.L.  K.o L.L.L.L.L.J L.u L.L.L.C.L.L.L.L.L.L.  I.I.I.I.I.I.I.I.I.I.I.I.I.I.I.I.I.I.I.I.I.I.I.I.I.I.",
"I.I.I.I.I.I.I.I.I.I.I.I.I.I.I.I.I.I.  L.L.L.L.D.L.L.L.L.L.L.L.L.L.1.L.L.L.L.L.L.  5.L.L.  D.L.L.L.L.L.    : L.x.  b.I.I.I.I.I.I.I.I.I.I.I.I.I.I.I.I.I.I.I.I.I.I.",
"I.I.I.I.I.I.I.I.I.I.I.I.I.I.I.I.I.k.L.L.L.D.L.L.L.L.L.L.L.L.L.L.  L.L.L.k.  L.L.L.D.L.S.L.L.L.L.L.C.L.L.L.L.2 + L.L.  - I.I.I.I.I.I.I.I.I.I.I.I.I.I.I.I.I.I.I.I.",
"I.I.I.I.I.I.I.I.I.I.I.I.I.n.    z.L.L.    _                   L.  K.  L.L.L.  L.L.  y L.L.L.L.L.L.  L.L.L.L.L.D.D.  L.K.  I.I.I.I.I.I.I.I.I.I.I.I.I.I.I.I.I.I.I.",
"I.I.I.I.I.I.I.I.I.I.I.I.  . C.L.L.L.  L.L.L.L.L.L.L.L.L.L.L.L.Z.    L.L.L.L.L.  L.L.D.K.    D.L.L.2 L.L.L.L.L.L.L.L.L.  G.C.  I.I.I.I.I.I.I.I.I.I.I.I.I.I.I.I.I.",
"I.I.I.I.I.I.I.I.I.I.I.    L.L.L.L.  L.L.L.L.L.  L.L.L.L.L.L.L.C.  L.L.L.L.L.L.L.  L.D.L.L.L.;.Z C.D.            K.L.L.L.Z.. L.  I.I.I.I.I.I.I.I.I.I.I.I.I.I.I.I.",
"I.I.I.I.I.I.I.I.I.I.    L.D.      L.  L.L.L.L.L.  L.L.L.L.L.L.  L.L.L.L.L.L.L.L.    L.L.L.L.L.D.  C.L.L.L.L.L.L.D.  L.L.L.A.  L.  I.I.I.I.I.I.I.I.I.I.I.I.I.I.I.",
"I.I.I.I.I.I.I.I.I.  X L.O M.L.L.L.t L.L.L.L.L.L.L.O K.L.L.L.h K.L.L.L.L.L.L.L.  L.L.L.L.L.L.L.  L.L.L.L.L.L.L.L.  L.  C.L.L.D.L.L.I.I.I.I.I.I.I.I.I.I.I.I.I.I.I.",
"I.I.I.I.I.I.I.I.  L.D.B L.L.L.L.L.L.L.L.L.L.L.L.L.L.C.  L.v.Z L.L.L.L.L.L.L.  D.L.L.L.L.L.L.` L.L.L.L.L.L.L.L.L.K.  L.D.    Z.C.L.  I.I.I.I.I.I.I.I.I.I.I.I.I.I.",
"I.I.I.I.I.I.I.^   D.D.-.L.L.L.L.L.L.L.L.L.L.L.L.L.L.L.L.X.  L.L.L.C.L.L.L.o L.L.L.L.L.L.L.L.&.L.L.L.L.L.L.L.L.L.L.L.  L.L.L.Z.  D.L.  I.I.I.I.I.I.I.I.I.I.I.I.I.",
"I.I.I.I.I.I.I.Z.L.L.  L.L.L.  L.L.L.L.L.L.L.L.L.L.L.L.L.$ L.L.L.L.L.  L.L.  L.L.L.  L.L.L.  L.L.L.L.L.L.  L.L.L.L.L.L.  L.L.L.L.:.h L.I.I.I.I.I.I.I.I.I.I.I.I.I.",
"I.I.I.I.I.I.D.L.L.  L.L.L.L.  L.L.L.L.L.L.C.L.L.L.L.L.L.  L.L.L.L.L.D.L.C.L.L.L.L.L.  L.g.D.L.L.L.L.L.K.S.L.L.L.L.L.L.L.  L.L.L.L.L.a   I.I.I.I.I.I.I.I.I.I.I.I.",
"I.I.I.I.w.Z.L.L.L.  L.L.L.L.$.L.L.L.L.L.L.D.L.L.L.L.L.L.  L.L.L.L.  L.    L.L.L.L.L.L.L.C.L.L.L.L.L.L.5 L.L.L.L.L.L.L.L.L.  L.L.L.L.G.D.  I.I.I.I.I.I.I.I.I.I.I.",
"I.I.I.I.v.L.L.L.n.L.L.L.L.L.L.  L.L.L.L.L.Z.      L.L.L.  L.L.L.L.L.D.    L.L.L.L.L.L.L.  L.L.L.L.L.L.L.L.L.L.L.L.L.L.L.L.L.L.L.L.L.L.  L.  I.I.I.I.I.I.I.I.I.I.",
"I.I.I.  L.L.L.D.  L.L.L.L.L.L.L.  L.L.L.  L.L.L.L.D.  L.  L.L.L.L.L.L.L.  L.L.L.L.L.L.L.  L.L.L.L.L.L.Z.L.L.L.G.D.L.L.L.L.L.f     e.L.L.  L.  I.I.I.I.I.I.I.I.I.",
"I.I.I.Z.. ; L.L.m L.L.L.L.L.L.L.D.E L.  L.L.L.L.L.L.L.    L.L.L.L.L.L.p   L.L.L.L.L.L.L.  L.L.L.L.L.L.  L.    L #   L.L.L.l L.L.L.L.#.b A.  L.  I.I.I.I.I.I.I.I.",
"I.I.  f.L.L.L.L.L.L.L.L.L.L.L.L.L.  Z.C.L.L.C.L.L.L.L.L.  L.L.L.L.L.L.    L.L.L.L.L.L.L.L.L.L.L.L.L.L.D.  L.L.L.L.L.  L.L.Z.L.L.L.L.L.Z.  v.D.L.I.I.I.I.I.I.I.I.",
"I.I.L.8.L.L.L.D.L.L.L.L.L.L.L.L.L.    L.L.L.  L.L.L.L.L.  L.L.L.L.L.L.L.B L.L.L.L.L.L.L.K.L.L.L.L.L.    L.L.L.L.L.L.L.  G.L.L.L.L.L.L.L.V.L.  L.  I.I.I.I.I.I.I.",
"I...  L.L.L.L.- L.L.L.L.L.L.L.L.L.  C.L.L.L.L.C.L.L.L.L.  L.L.L.L.L.L.L.4.D.L.L.L.L.L.L.G.L.L.L.D.    L.L.L.L.L.L.L.L.  L.L.L.L.L.L.L.L.L.  L.  Z.I.I.I.I.I.I.I.",
"I.  L.L.L.L.L.L.L.L.L.L.L.L.L.L.L.  L.L.L.L.L.  L.L.L.L.  L.L.L.L.L.L.L.L.L.L.L.L.L.L.L.L.L.L.L.C.L.L.L.L.L.L.L.L.L.L.L.a.L.L.L.d.L.L.L.L.L.L.L.L.I.I.I.I.I.I.I.",
"I.D.L.L.L.L.L.L.L.L.L.L.L.L.L.L.  L.L.L.L.L.L.  L.L.L.L.  L.L.L.L.L.L.L.L.L.L.L.L.L.L.L.L.L.L.L.L.L.L.L.L.L.L.L.C.L.L.L.  L.L.L.L.  L.L.L.L.  L.L.F I.I.I.I.I.I.",
"  0.L.L.L.L.L.L.L.L.L.        D.L.L.L.L.L.L.L.Y L.L.L.L.  L.L.L.L.L.L.L.L.L.L.L.L.L.L.L.L.L.L.L.L.L.L.L.L.L.L.  L.L.L.L.  L.L.L.L.' Z.L.L.L.  L.L.  I.I.I.I.I.I.",
"  K.L.L.L.  L.L.L.L.L.L.L.L.L.L.L.L.L.L.L.L.L.Z.L.L.L.L.D.L.L.L.L.L.L.L.L.L.L.L.L.L.L.  L.L.L.L.L.L.L.L.L.L.  L.L.L.L.L./ L.  L.L.L.  L.L.L.L.  L.L.  I.I.I.I.I.",
"  D.  L.L., L.L.L.L.L.L.L.L.L.L.L.L.L.L.L.L.L.L.D.L.L.L.D.L.L.L.L.d   L.L.L.L.L.L.L.L.  L.L.L.L.L.L.L.L.L.D.L.L.L.L.L.L.D., L.L.L.L.:.L.L.L.L.L.D.L.D.I.I.I.I.I.",
"P.j L.  D.  L.L.5.L.L.L.L.L.L.L.L.L.L.L.L.L.L.L.L.L.L.L.! L.L.L.L.L.  L.L.L.L.L.L.L.D.  L.L.L.L.L.L.L.L.L.r.L.L.L.L.L.L.L.* L.L.L.L.L.L.L.L.L.Z.  L.L.  I.I.I.I.",
"@.L.L.L.  L.L.L.  L.L.  L.L.L.L.L.L.L.L.L.L.L.L.L.L.L.L.  L.L.L.L.L.L.  L.L.L.L.L.L.L.L.L.L.L.L.L.L.L.L.  L.L.L.L.L.L.L.L.S.L.L.L.L.Q L.L.L.L.  L.  L.L.I.I.I.I.",
"  L.L.  L.L.L.L.D.L.L.L.  L.L.L.L.L.L.L.L.L.L.L.D.L.L.L.L.L.L.L.L.L.L.L.L.L.L.L.L.L.  L.L.L.L.L.L.L.L.  L.L.L.L.L.L.L.L.L.L.L.L.L.L.  L.L.L.L.  L.L.L.L.  I.I.I.",
"  L.L.  L.L.L.L.L.D.L.L.L.  L.L.L.L.L.L.L.L.L.L.  L.L.L.L.L.L.L.L.L.L.L.L.L.L.L.L.  L.L.L.L.L.L.L.L.  L.L.L.L.L.L.L.L.L.L.L.L.L.L.q.Z.L.L.L.L.  L.L.  L.Z.I.I.I.",
"  L.L.  L.L.L.L.L.2 L.L.L.L.8.5.L.L.L.L.L.L.L.L.  L.L.L.L.L.L.L.L.L.L.i L.L.L.L.  G.    U L.L.L.    D.L.L.L.L.L.L.L.L.L.L.L.L.L.L.  L.L.L.L.L.L.L.L.L.  L.I.I.I.",
"  L.L.  L.L.L.L.L.  L.L.L.L.L.D.n.L.L.L.L.L.L.L.  L.L.L.L.L.L.L.L.L.L.          6.L.L.L.L.L.L.L.L.L.  G.L.  L.L.L.L.L.L.L.L.L.L.S.L.  Z.L.L.L.L.G.L.L.C.Z.R I.I.",
"I.L.L.  L.L.L.L.L.D.L.L.L.L.L.L.  L.L.L.L.L.L.L.D.L.L.L.L.L.L.L.L.D.  D.O L.L.L.L.L.L.L.L.L.L.L.L.L.L.O.  L.L.L.L.L.L.L.L.L.L.L.  L.L.L.w L.L.L.  L.L.L.  D.| I.",
"I.  L.4 L.L.L.L.D.L.L.L.L.L.L.L.L.  L.L.L.L.C.D.                  x p.L.L.L.L.L.L.L.L.L.L.L.L.L.L.L.L.L.L.L.L.L.L.L.L.L.L.L.L.G.  L.L.L.L.L.L.L.  L.L.L.      I.",
"I.I.S.L.  L.L.L.  L.L.L.L.L.L.L.L.L.  L.L.L.  L.L.L.L.L.L.L.L.L.L.Z.K.L.L.L.L.L.L.L.L.L.L.L.L.L.L.L.L.L.L.L.L.L.L.L.L.L.L.L.L.h L.L.L.L.L.L.L.L.  L.L.L.  L.Z.I.",
"I.I.  L.L.C.L.L.  L.L.L.L.L.L.L.L.L.L.3     L.L.L.L.L.L.L.L.L.L.L.  L.L.L.L.L.L.L.L.L.  L.L.L.L.L.L.L.L.L.L.L.L.L.L.L.L.L.L.L.f L.L.L.L.L.L.L.L.L.L.L.L.t.L.J I.",
"I.I.I.C.L.# L.L.  L.L.L.L.L.L.L.L.L.L.  D.L.L.L.L.L.L.L.L.L.L.L.L.L.L.L.L.L.L.L.L.L.C.L.L.L.L.L.L.L.L.L.L.L.L.L.L.L.L.L.L.L.  L.L.L.L.L.L.L.L.  L.L.L.L.L.L.  P.",
"I.I.I.  L.L.D.      L.L.L.L.L.L.L.L.  v.L.L.L.L.L.L.L.L.L.L.L.L.L.Z.L.L.L.L.L.L.L.L.e L.L.L.L.L.L.L.L.L.L.L.L.L.L.L.L.L.A.  L.L.L.L.L.L.L.L.  L.L.L.L.v.L.L.n   ",
"I.I.I.  L.L.L.Z.  L.  C.L.L.L.L.Z.  L.L.L.L.L.L.L.L.L.L.L.L.L.L.L.; L.L.L.L.L.L.L.  L.L.L.L.L.L.L.L.L.L.L.L.L.L.L.L.L.D.  L.L.L.L.L.L.L.K.  L.L.L.L.L.  L.L.D.  ",
"I.I.I.I.G.  6 G.L.L.L.4   / L.L.  L.L.L.L.L.L.L.L.L.L.L.L.L.L.L.L.L.L.L.L.L.L.L.D.D.L.L.L.L.L.L.L.L.  L.L.L.L.L.L.L.  D.L.L.L.L.L.L.L.D.  V L.L.L.L.L.L.L.L.C.  ",
"I.I.I.I.  L.L.L.L.L.L.L.  L.c   L.L.L.L.L.L.L.L.L.L.L.L.L.L.i.L.D.L.L.L.L.L.L.L.  L.L.L.L.L.L.L.L.D.D.L.L.L.L.L.L.  L.L.L.L.L.L.L.L.L.  L.L.  L.L.L.L.L.L.L.    ",
"I.I.I.I.I.  L.L.L.L.L.L.C.    L.L.L.L.L.L.L.L.L.L.L.L.L.L.L.  L.L.L.L.L.L.L.L.L.  f L.L.L.L.L.L.  C.L.L.L.L.L.L.  L.L.L.L.L.L.L.L.L.k.L.L.L.C.L.L.L.L.L.L.L.2   ",
"I.I.I.I.I.I.  L.L.L.L.  h.L.  L.L.L.L.  L.  L.L.L.L.L.L.L.L.L.L.L.L.L.L.L.L.K.  s.L.v.      f r.C.  S L.L.L.L.  L.L.L.L.L.L.L.L.L.L.  L.L.L.L.C.L.L.L.L.L.L.D.  ",
"I.I.I.I.I.I.I.q  .L.L.L.L.L.  L.L.L.L.L.X D.L.L.L.L.L.L.L.L.L.  L.L.L.L.L.v   L.L.L.L.L.L.L.L.L.  L.D.          L.L.L.L.L.L.L.L.L.<.L.L.L.L.L.  L.L.L.L.  D.L.  ",
"I.I.I.I.I.I.I.I.I.  4 L.L.L.@ L.L.L.L.L.L.L.  L.L.L.L.L.L.L.  L.u         Z.L.L.L.W L.L.L.L.L.L.8.L.L.L.L.L.L.# L.L.L.L.L.L.L.L.L.B.L.L.L.L.L.  C.L.D L.L.L.L.+ ",
"I.I.I.I.I.I.I.I.I.I.I.I.    M.L.L.L.L.L.L.L.L.  C.L.L.G.    L.L.L.L.L.L.L.L.L.L.L.  L.L.L.L.L.L.L.L.L.L.L.L.L.K.j L.L.L.L.L.L.L.  L.L.L.L.L.L.  L.L.v.L.L.L.L.% ",
"I.I.I.I.I.I.I.I.I.I.I.I.I.I.  L.L.L.L.L.L.L.L.  h.L.K.L.L.5.L.L.L.L.L.L.L.L.L.L.L.C.L.L.L.L.L.L.L.L.L.L.L.L.L.L.L.L.L.L.L.L.L.  L.L.L.L.L.L.L.  L.L.L.  L.L.L.  ",
"I.I.I.I.I.I.I.I.I.I.I.I.I.I.I.L.L.L.L.L.L.L.    L.L.L.L.L.L.  L.L.L.L.L.L.L.L.L.L.L.  L.L.L.L.L.L.L.L.L.L.L.L.L.L.L.L.L.L.L.  L.L.L.L.L.L.L.L.  L.L.L.  L.L.    ",
"I.I.I.I.I.I.I.I.I.I.I.I.I.I.I.  L.L.L.L.L.L.L.e.L.L.L.L.L.L.. L.L.L.L.L.L.L.L.L.L.L.L.L.L.L.L.L.L.L.L.L.L.L.L.L.L.L.L.L.L.  L.L.L.L.L.L.L.L.L.  L.L.L.  L.L.L.  ",
"I.I.I.I.I.I.I.I.I.I.I.I.I.I.I.  L.L.L.L.L.  L.L.L.L.L.L.L.L.C.L.L.L.L.L.L.L.L.L.L.L.L.L.L.L.L.L.L.L.L.L.L.L.L.L.L.L.L.L.D.L.L.L.L.L.L.L.Z.j.L.  L.L.L.9.L.  L.  ",
"I.I.I.I.I.I.I.I.I.I.I.I.I.I.I.6 L.L.L.L.L.D.  L.L.L.L.L.L.L.L.  a.L.L.L.L.L.L.L.L.L.L.L.L.L.L.L.L.L.L.L.L.L.L.L.L.L.L.L.L.L.L.L.L.L.Z.  K.L.L.  L.L.L.D.D.n.L.I.",
"I.I.I.I.I.I.I.I.I.I.I.I.I.I.I.I.L.L.L.L.X L.  L.L.L.L.L.L.L.L.L.L.L.L.L.L.L.L.L.L.L.L.  Z.  L.D.z.      E D.L.L.L.L.L.L.L.L.L.L.L.L.  L.L.L.L.  L.L.L.    L.L.I.",
"I.I.I.I.I.I.I.I.I.I.I.I.I.I.I.I.  L.L.L.D.L.  L.L.L.L.L.L.L.L.L.L.L.    D.L.L.L.L.  L.L.L.L.L.L.L.L.L.L.L.L.L.L.      D.L.L.L.      L.L.L.L.L.L.L.L.L.  L.    I.",
"I.I.I.I.I.I.I.I.I.I.I.I.I.I.I.I.I.  L.L.Z.$ D.Z.L.L.L.L.L.L.L.L.L.  L.L.L.m.    D.L.L.L.L.L.L.L.L.L.L.L.L.L.L.L.L.L.L.D.L.V.L.L.L.Z.D.L.L.L.L.L.L.L.  L.L.L.  I.",
"I.I.I.I.I.I.I.I.I.I.I.I.I.I.I.I.I.I.  @ L.L.=.% L.L.L.L.L.L.L.L.L.L.L.L.L.L.L.L.L.L.L.L.L.L.L.L.L.L.L.L.L.L.L.L.L.L.L.L.  L.L.L.L.L.) D.L.L.L.L.L.L.  L.L.L.I.I.",
"I.I.I.I.I.I.I.I.I.I.I.I.I.I.I.I.I.I.I.i.  & L.C.    L.L.L.L.L.L.L.L.L.L.L.L.L.L.L.L.L.L.L.L.L.L.L.L.L.L.L.L.L.L.L.L.L.L.G L.L.L.L.L.L.  L.L.L.L.L.L.  L.L.  I.I.",
"I.I.I.I.I.I.I.I.I.I.I.I.I.I.I.I.I.I.I.I.I.  L.L.L.L.L.  N.L.L.L.L.L.L.L.L.L.L.L.L.L.L.L.L.L.L.L.L.L.L.L.L.L.L.L.L.L.L.L.~ L.L.L.L.L.L.L.D L.L.L.L.L.  L.  I.I.I.",
"I.I.I.I.I.I.I.I.I.I.I.I.I.I.I.I.I.I.I.I.I.I.  n.S.L.L.L.7.L.L.L.L.L.L.L.L.G.                            L.L.L.L.L.C.L.L.L.L.L.L.L.L.L.L.L.  L.L.L.L.  9 I.I.I.I.",
"I.I.I.I.I.I.I.I.I.I.I.I.I.I.I.I.I.I.I.I.I.I.I.I.    D.L.L.L.L.L.L.D.h     D.L.L.L.    I.I.I.  I.I.,.  u :.                } L.L.L.L.L.L.L.  L.L.L.D.  I.I.I.I.I.",
"I.I.I.I.I.I.I.I.I.I.I.I.I.I.I.I.I.I.I.I.I.I.I.I.I.I.I.I.I.I.I.8.I.I.I.I.I.  L.L.L.D.  I.I.A D.I.I.0.1     I.I.I.I.  I.I.  z.I.  I.d               I.I.I.I.I.I.I.",
"I.I.I.I.I.I.I.I.I.I.I.I.I.I.I.I.I.I.I.I.I.I.I.I.I.I.I.I.I.I.I.I.I.I.I.I.I.I.L.L.L.L.  [ I.s P I.I.I.I.D.  D.I.I.  I.I.I.M.D.I.= I.I.D.I.I.I.I.I.I.I.I.I.I.I.I.I.",
"I.I.I.I.I.I.I.I.I.I.I.I.I.I.I.I.I.I.I.I.I.I.I.I.I.I.I.I.I.I.I.I.I.I.I.I.I.I.  L.L.L.S.  I.I.D.  x V   J.I.I.% I.I.I.I.K.I.> I.h 8.I.I.I.    I.I.I.I.I.I.I.I.I.I.",
"I.I.I.I.I.I.I.I.I.I.I.I.I.I.I.I.I.I.I.I.I.I.I.I.I.I.I.I.I.I.I.I.I.I.I.I.I.I.I.  L.L.L.*.I.I.I.I.I.I.I.I.I.I.u.  k I.I.I.u.I.G.I.] I.@   I.2.I.I.I.I.I.I.I.I.I.I.",
"I.I.I.I.I.I.I.I.I.I.I.I.I.I.I.I.I.I.I.I.I.I.I.I.I.I.I.I.I.I.I.I.I.I.I.I.I.I.I.I.. L.L.  I.g I.I.H.t N I.D.I.>.T I.I.I.D.  h.I.I.I.I.I.G.t I.I.I.I.I.I.I.I.I.I.I.",
"I.I.I.I.I.I.I.I.I.I.I.I.I.I.I.I.I.I.I.I.I.I.I.I.I.I.I.I.I.I.I.I.I.I.I.I.I.I.I.I.I.D.L.    I.K.I.I.I.h I.F.I.8 I.I.I.z       u I.I.  G.I.= I.I.I.I.I.I.I.I.I.I.I.",
"I.I.I.I.I.I.I.I.I.I.I.I.I.I.I.I.I.I.I.I.I.I.I.I.I.I.I.I.I.I.I.I.I.I.I.I.I.I.I.I.I.  L.  y.  I.I.I.I.I.I.v.G.  I.I.I.I.I.I.I.l.  I.I.I.I.I.I.I.I.I.I.I.I.I.I.I.I.",
"I.I.I.I.I.I.I.I.I.I.I.I.I.I.I.I.I.I.I.I.I.I.I.I.I.I.I.I.I.I.I.I.I.I.I.I.I.I.I.I.I.I.Z.L.I.I.I.r $ I.^   I.I.I.I.z.  I D.D.M   D.I.I.I.  I.I.I.I.I.I.I.I.I.I.I.I.",
"I.I.I.I.I.I.I.I.I.I.I.I.I.I.I.I.I.I.I.I.I.I.I.I.I.I.I.I.I.I.I.I.I.I.I.I.I.I.I.I.I.I.  L.C.F.G.I.  I.< I.I.I.I.I.I.I.8.I.  I.I.q.I.  I.I.I.I.I.I.I.I.I.I.I.I.I.I.",
"I.I.I.I.I.I.I.I.I.I.I.I.I.I.I.I.I.I.I.I.I.I.I.I.I.I.I.I.I.I.I.I.I.I.I.I.I.I.I.I.I.I.I.D.L.D.( I.9.v ~ I.I.$.m C 5 5.I.I.G.I.I.k.D.I.I.I.I.I.I.I.I.I.I.I.I.I.I.I.",
"I.I.I.I.I.I.I.I.I.I.I.I.I.I.I.I.I.I.I.I.I.I.I.I.I.I.I.I.I.I.I.I.I.I.I.I.I.I.I.I.I.I.I.  L.L.L.    P.G.v.I.O ;.I.I.I.I.I.E D.I.I.  I.I.I.I.I.I.I.I.I.I.I.I.I.I.I.",
"I.I.I.I.I.I.I.I.I.I.I.I.I.I.I.I.I.I.I.I.I.I.I.I.I.I.I.I.I.I.I.I.I.I.I.I.I.I.I.I.I.I.I.I.C.L.L.L.{ o.  I.  I.% ( I.I.F.  I.I.  l.I.I.I.I.I.I.I.I.I.I.I.I.I.I.I.I.",
"I.I.I.I.I.I.I.I.I.I.I.I.I.I.I.I.I.I.I.I.I.I.I.I.I.I.I.I.I.I.I.I.I.I.I.I.I.I.I.I.I.I.I.I.  L.L.L.L.  I.        | I.I.H   +.I.I.I.I.I.I.I.I.I.I.I.I.I.I.I.I.I.I.I.",
"I.I.I.I.I.I.I.I.I.I.I.I.I.I.I.I.I.I.I.I.I.I.I.I.I.I.I.I.I.I.I.I.I.I.I.I.I.I.I.I.I.I.I.I.I.L.L.L.L.%.I.I.I.I.I.I.I.I.I.I.I.I.I.I.I.I.I.I.I.I.I.I.I.I.I.I.I.I.I.I.",
"I.I.I.I.I.I.I.I.I.I.I.I.I.I.I.I.I.I.I.I.I.I.I.I.I.I.I.I.I.I.I.I.I.I.I.I.I.I.I.I.I.I.I.I.I.  L.L.L.L.I.I.I.I.I.I.I.I.I.I.I.I.I.I.I.I.I.I.I.I.I.I.I.I.I.I.I.I.I.I.",
"I.I.I.I.I.I.I.I.I.I.I.I.I.I.I.I.I.I.I.I.I.I.I.I.I.I.I.I.I.I.I.I.I.I.I.I.I.I.I.I.I.I.I.I.I.C.L.L.L.L.  I.I.I.I.I.I.I.I.I.I.I.I.I.I.I.I.I.I.I.I.I.I.I.I.I.I.I.I.I.",
"I.I.I.I.I.I.I.I.I.I.I.I.I.I.I.I.I.I.I.I.I.I.I.I.I.I.I.I.I.I.I.I.I.I.I.I.I.I.I.I.I.I.I.I.I.I.D.L.L.L.  I.I.I.I.I.I.I.I.I.I.I.I.I.I.I.I.I.I.I.I.I.I.I.I.I.I.I.I.I.",
"I.I.I.I.I.I.I.I.I.I.I.I.I.I.I.I.I.I.I.I.I.I.I.I.I.I.I.I.I.I.I.I.I.I.I.I.I.I.I.I.I.I.I.I.I.I.  L.L.L.L.I.I.I.I.I.I.I.I.I.I.I.I.I.I.I.I.I.I.I.I.I.I.I.I.I.I.I.I.I.",
"I.I.I.I.I.I.I.I.I.I.I.I.I.I.I.I.I.I.I.I.I.I.I.I.I.I.I.I.I.I.I.I.I.I.I.I.I.I.I.I.I.I.I.I.I.I.I.  L.L.L.I.I.I.I.I.I.I.I.I.I.I.I.I.I.I.I.I.I.I.I.I.I.I.I.I.I.I.I.I.",
"I.I.I.I.I.I.I.I.I.I.I.I.I.I.I.I.I.I.I.I.I.I.I.I.I.I.I.I.I.I.I.I.I.I.I.I.I.I.I.I.I.I.I.I.I.I.I.I.      I.I.I.I.I.I.I.I.I.I.I.I.I.I.I.I.I.I.I.I.I.I.I.I.I.I.I.I.I."
};
