/* XPM */
static char *result[] = {
/* columns rows colors chars-per-pixel */
"80 80 115 2 ",
"   c #0B1014",
".  c #171812",
"X  c #28250F",
"o  c #2E290D",
"O  c #2D280E",
"+  c #352E0C",
"@  c #212010",
"#  c #141F27",
"$  c #191D21",
"%  c #162027",
"&  c #1E2625",
"*  c #292E23",
"=  c #313421",
"-  c #3F3C2A",
";  c #2C2F32",
":  c #3A3C3E",
">  c #40360A",
",  c #473B09",
"<  c #493C09",
"1  c #413F1E",
"2  c #564506",
"3  c #5A4805",
"4  c #4B461C",
"5  c #574F1A",
"6  c #614E03",
"7  c #624E04",
"8  c #624F08",
"9  c #655104",
"0  c #665104",
"q  c #6B5504",
"w  c #765F05",
"e  c #6D5F16",
"r  c #615618",
"t  c #7C6405",
"y  c #7E6705",
"u  c #716115",
"i  c #7A6713",
"p  c #7B6813",
"a  c #615423",
"s  c #605837",
"d  c #60583A",
"f  c #474849",
"g  c #4F565B",
"h  c #535454",
"j  c #5F5E58",
"k  c #5F5E59",
"l  c #5F5F5F",
"z  c #605A46",
"x  c #836B05",
"c  c #866D06",
"v  c #866E06",
"b  c #886F06",
"n  c #8D7306",
"m  c #8E7406",
"M  c #927506",
"N  c #937906",
"B  c #947A06",
"V  c #967B06",
"C  c #92790F",
"Z  c #987D0E",
"A  c #867011",
"S  c #887111",
"D  c #9E810C",
"F  c #A88706",
"G  c #BA9507",
"H  c #BD9807",
"J  c #BE9907",
"K  c #BF9A07",
"L  c #BB9508",
"P  c #BA960D",
"I  c #B99A08",
"U  c #C09B07",
"Y  c #C49F08",
"T  c #C5A008",
"R  c #C6A008",
"E  c #C6A108",
"W  c #C8A709",
"Q  c #CDA708",
"!  c #CAA809",
"~  c #CDA808",
"^  c #CDAB09",
"/  c #D0AA08",
"(  c #D2AC08",
")  c #D3AD08",
"_  c #D2AF09",
"`  c #D4AE08",
"'  c #D3B009",
"]  c #D5B209",
"[  c #D6B409",
"{  c #D8B109",
"}  c #DCB509",
"|  c #E0B909",
" . c #E3BE0A",
".. c #E8C10A",
"X. c #EDC60A",
"o. c #EDC70A",
"O. c #EEC60A",
"+. c #F0C90A",
"@. c #F1CA0A",
"#. c #F8D00B",
"$. c #F9D20B",
"%. c #FCD40B",
"&. c #FDD50B",
"*. c #FED60B",
"=. c #FFD70B",
"-. c #FFD80B",
";. c #FFD80C",
":. c #B8A147",
">. c #8A8D8F",
",. c #9E9FA0",
"<. c #A0A2A3",
"1. c #B5B3AB",
"2. c #B5B4B2",
"3. c gray71",
"4. c None",
/* pixels */
"4.4.4.4.4.4.4.4.4.4.4.4.4.4.4.4.4.4.4.4.4.4.4.4.4.4.4.4.4.4.4.4.4.4.4.4.4.4.4.4.4.4.4.4.=.=.=.=.4.4.4.4.4.4.4.4.4.4.4.4.4.4.4.4.4.4.4.4.4.4.4.4.4.4.4.4.4.4.4.4.",
"4.4.4.4.4.4.4.4.4.4.4.4.4.4.4.4.4.4.4.4.4.4.4.4.4.4.4.4.4.4.4.4.4.4.4.4.4.4.4.4.=.=.=.=.=.=.=.=.=.=.4.4.4.4.4.4.4.4.4.4.4.4.4.4.4.4.4.4.4.4.4.4.4.4.4.4.4.4.4.4.",
"4.4.4.4.4.4.4.4.4.4.4.4.4.4.4.4.4.4.4.4.4.4.4.4.4.4.4.4.4.4.4.4.4.4.4.=.=.=.=.=.=.=.=.=.=.=.=.=.=.=.=.=.4.4.4.4.4.4.4.4.4.4.4.4.4.4.4.4.4.4.4.4.4.4.4.4.4.4.4.4.",
"4.4.4.4.4.4.4.4.4.4.4.4.4.4.4.4.4.4.4.4.4.4.4.4.4.4.4.4.4.4.4.=.=.=.=.=.=.=.=.=.=.=.=.=.=.=.=.=.=.=.=.=.=.=.4.4.4.4.4.4.4.4.4.4.4.4.4.4.4.4.4.4.4.4.4.4.4.4.4.4.",
"4.4.4.4.4.4.4.4.4.4.4.4.4.4.4.4.4.4.4.4.4.4.4.4.4.4.-.=.=.=.=.=.=.=.=.=.=.=.=.=.=.=.=.=.=.=.=.=.=.=.=.=.=.=.=.=.4.4.4.4.4.4.4.4.4.4.4.4.4.4.4.4.4.4.4.4.4.4.4.4.",
"4.4.4.4.4.4.4.4.4.4.4.4.4.4.4.4.4.4.4.4.4.4.=.=.=.=.=.=.=.$.=.=.=.=.=.=.=.=.=.=.=.=.=.=.=.=.=.=.=.=.=.=.=.=.=.=.=.=.4.4.4.4.4.4.4.4.4.4.4.4.4.4.4.4.4.4.4.4.4.4.",
"4.4.4.4.4.4.4.4.4.4.4.4.4.4.4.4.4.;.=.=.=.=.=.=.=.=.=.=.=.=.=.=.=.=.=.=.=.=.=.=.=.=.=.=.=.=.=.=.=.=.=.=.=.=.=.=.=.=.=.=.4.4.4.4.4.4.4.4.4.4.4.4.4.4.4.4.4.4.4.4.",
"4.4.4.4.4.4.4.4.4.4.4.4.4.-.=.=.=.=.=.=.=.=.=.=.=.=.=.=.=.=.=.=.=.=.=.=.=.=.=.=.=.=.=.=.=.=.=.=.=.=.=.=.=.=.=.=.=.=.=.=.=.=.4.4.4.4.4.4.4.4.4.4.4.4.4.4.4.4.4.4.",
"4.4.4.4.4.4.4.4.4.=.=.=.=.=.=.=.=.=.=.=.=.=.=.=.=.=.=.=.=.=.=.=.=.=.=.=.=.=.=.=.=.=.=.=.=.=.=.=.=.=.=.=.=.=.=.=.=.=.=.=.=.=.=.=.-.4.4.4.4.4.4.4.4.4.4.4.4.4.4.4.",
"4.4.4.4.=.=.=.=.=.=.=.=.=.=.=.=.=.=.=.=.=.=.=.=.=.=.=.=.=.=.=.=.=.=.=.=.=.=.=.=.=.=.=.=.=.=.=.=.=.=.=.=.=.=.=.=.=.=.=.=.=.=.=.=.=.=.-.4.4.4.4.4.4.4.4.4.4.4.4.4.",
"=.=.=.=.=.=.=.=.=.=.=.=.=.=.=.=.=.=.=.=.=.=.=.=.=.=.=.=.=.=.=.=.=.=.=.=.=.=.=.=.=.=.=.=.=.=.=.=.=.=.=.=.=.=.=.=.=.=.=.=.=.=.=.=.=.=.=.=.=.4.4.4.4.4.4.4.4.4.4.4.",
"7 7 =.=.=.=.=.=.=.=.=.=.=.=.=.=.=.=.=.=.=.=.=.=.=.=.=.=.=.=.=.=.=.=.=.=.=.=.=.=.=.=.=.=.=.=.=.=.=.=.=.=.=.=.=.=.=.=.=.=.=.=.=.=.=.=.=.=.=.=.=.4.4.4.4.4.4.4.4.4.",
"7 y 7 v =.=.=.=.=.=.=.=.=.=.=.=.=.=.=.=.=.=.=.=.=.=.=.=.=.=.=.=.=.=.=.=.=.=.=.=.=.=.=.=.=.=.=.=.=.=.=.=.=.=.=.=.=.=.=.=.=.=.=.=.=.=.=.=.=.=.=.=.=.4.4.4.4.4.4.4.",
"7 7 7 x 7 =.=.=.=.=.=.=.=.=.=.=.=.=.=.=.=.=.=.=.=.=.=.=.=.=.=.=.=.=.=.=.=.=.=.=.=.=.=.=.=.=.=.=.=.=.=.=.=.=.=.=.=.=.=.=.=.=.=.=.=.=.=.=.=.=.=.=.=.=.=.4.4.4.4.4.",
"7 7 7 7 7 7 7 =.=.=.=.=.=.=.=.=.=.=.=.=.=.=.=.=.=.=.=.=.=.=.=.=.=.=.=.=.=.=.=.=.=.=.=.=.=.=.=.=.=.=.=.=.=.X.=.=.=.=.=.=.=.=.=.=.=.=.=.=.=.=.=.=.=.=.=.=.=.4.4.4.",
"*.7 7 7 7 7 t 7 7 =.=.=.=.=.=.=.=.=.=.=.=.=.=.=.=.=.=.=.=.=.=.=.=.=.=.=.=.=.=.=.=.=.=.=.=.=.=.=.=.=.=.=.=.=.=.=.=.=.=.=.=.=.=.=.=.=.=.=.=.=.=.=.=.=.=.=.=.=.=.4.",
"7 7 7 7 7 7 7 7 N 7 =.=.=.=.=.=.=.=.=.=.=.=.=.=.=.=.=.=.=.=.=.=.=.=.=.=.=.=.=.=.=.=.=.=.=.=.=.=.=.=.=.=.=.=.=.=.=.=.=.=.=.=.=.=.=.=.=.=.=.=.=.=.=.=.=.=.=.=.G G ",
"7 7 7 9 7 7 7 7 7 7 7 7 =.=.=.=.=.=.=.=.=.=.=.=.=.=.=.=.=.=.=.=.=.=.=.=.=.=.=.=.=.=.=.=.=.=.=.=.=.=.=.=.=.=.=.=.=.=.=.=.=.=.=.=.=.=.=.=.=.=.=.=.=.=.G G G G O.G ",
"7 7 7 7 7 [ 7 7 7 7 7 b 7 7 =.=.=.=.=.=.=.=.=.=.=.=.=.=.=.=.=.=.=.=.=.=.=.=.=.=.=.=.=.=.=.=.=.=.=.=.=.=.=.=.=.=.=.=.=.=.=.=.=.=.=.=.=.=.=.=.G G G G R G G G G G ",
"7 7 7 7   7 7 7 7 7 7 7 7 I 7 ! =.=.=.=.=.=.=.=.=.=.=.=.=.=.=.=.=.=.=.=.=.=.=.=.=.=.=.=.=.=.=.=.=.=.=.=.=.=.=.=.=.=.=.=.=.=.=.=.=.=.Y G G G G U G G G G G G G G ",
"7 7 7 7   . 7 7 q 7 7 7 7 7 7 7 7 =.=.=.=.=.=.=.=.=.=.=.=.=.=.=.=.=.=.=.=.=.=.=.=.=.=.=.=.=.=.=.=.=.=.=.=.=.=.=.=.=.=.=.=.=.J G G G G H G G G G G G G G G G G G ",
"4.7 7 7     7 7 7 7 V 7 7 7 7 7 m 7 7 =.=.=.=.=.=.=.=.=.=.=.=.=.=.=.=.=.=.=.=.=.=.=.=.=.=.=.=.=.=.=.=.=.=.=.=.=.=.=...G G G G ..G G G G G G G G G G G G G / G G ",
"4.7 7 7 7 7 7 7 7 7 7 7 7 7 7 7 7 7 ' 7 W =.=.=.=.=.=.=.=.=.=.=.=.=.=.=.=.=.=.=.=.=.=.=.=.=.=.=.=.=.=.=.=.=.~ G G G G ) G G G G G G G G G G G G G G ~ G G G G G ",
"4.7 7 7 7 7 7 7 7 7 7 7 7 7 7 7 7 7 7 7 7 7 =.=.=.=.=.=.=.=.=.=.=.=.=.=.=.=.=.=.=.=.=.=.=.=.=.=.=.=.#.G G G G #.G G G G G G G G G G G G G G #.G G G G G G G G G ",
"4.7 7 7 7 7 7 7 7 7 7 7 7 7 7 7 7 7 7 7 7 n 7 7 =.=.=.=.=.=.=.=.=.=.=.=.=.=.=.=.=.=.=.=.=.=.$.G G G G } G G G G G G G G G G G G G G } G G G G i # # G G G G G G ",
"4.7 7 7 7 7 7 7 7 7 7 7 7 7 7 7 7 7 7 7 7 7 7 o.7 ^ =.=.=.=.=.=.=.=.=.=.=.=.=.=.=.=.=.G G G G T U G G G G G G G G G G G G G G H G G G G G G G # # # G G G G G G ",
"4.7 7 7 7 7 7 7 7 7 7 7 7 7 7 7 7 7 ] 7 7 7 7 7 7 7 7 =.=.=.=.=.=.=.=.=.=.=.=.G G G G Q G G G G G G G G G G G G G G G ` G G G G G G G G G G G # # 1 G G G G G G ",
"4.7 7 7 7 7 7 7 7 l 7 7 7 7 7 7 7 7 7 7 B 7 7 7 7 7 c 7 7 =.=.=.=.=.=.( G G G G ( G G G G G G G G G G G G G G G G G G G G G G G G G G G G G G G G G G G G G G G ",
"4.7 7 7 7 7 7 7 7 l l z 7 7 7 7 7 7 7 7 7 7 7 7 7 7 7 7 &.7 7 G G G G G %.G G G G G G G G G G G G G G %.G G G G G G G G G G G G G G G G G G G G G G G G G G G 4.",
"4.7 7 7 7 7 7 7 l l l l l 7 7 7 7 7 7 7 7 7 7  .7 7 7 7 7 7 7 G | G G G G G G G G G G G G G G { G G G G G G G G G G G G G G G G G G G G G G G G G G G G G G G 4.",
"4.7 7 7 7 7 7 7 l l l l l l k 7 7 7 7 7 7 7 7 7 7 7 7 7 7 7 7 G G G G G G G G G G G G G E G G G G G G G G G G G G G G G G G G G G G G G G G G G G G G G G G G 4.",
"4.7 7 7 7 7 7 7 l l l   h l l l 7 7 7 7 7 7 7 7 7 7 7 7 7 7 7 G G G G G G G G G +.G G G G G G G G G G G G G G G G G G G G G G G G G G G G G G G G G G G G G G 4.",
"4.7 7 7 7 7 7 7 l l l       l l l l 7 7 7 7 7 7 7   7 7 _ 7 7 G G G G G H G G G G G G G G G G G G G G G G G G G G G G G G 3.G G G G G G G G G G G G G G G G G 4.",
"4.7 7 7 7 7 7 7 l l l         ; l l l 7 7 7 7 7 7     7 7 7 7 G @.G G G G G # # % G G G G G G G G G G G G G G G G 2.3.3.3.3.G G G G G G G G G G G G G G G G G 4.",
"4.7 7 7 7 7 7 7 l l l             l l 7 7 7 7 7 7     7 7 7 7 G G G G G G # # # % G G G G G G G K G G G G :.3.3.3.3.3.3.3.3.G 3.3.G G G G G G G G G G G G G G 4.",
"4.7 7 7 7 7 7 7 l l l     7 3     l l 7 7 7 7 7 7 7 7 7 7 7 7 G G G G G G # # # C G G G G G G G G G 3.3.3.3.3.3.3.3.3.3.3.3.3.3.3.G G G G G G G G G G G G G G 4.",
"4.7 7 7 7 7 7 7 7 l l f   7 7 7   l l l 7 7 7 7 7 7 7 7 7 7 7 G G G G G G G G G G G G G G G G 3.3.3.3.3.3.3.3.,.# # # 3.3.3.3.3.3.# # # G G G G G G G G G G G 4.",
"4.7 7 7 7 7 7 7 7 7 l f   7 7 7 7 l l l l 7 7 7 7 7 7 7 7 7 7 G G G G G G G G G G G G G G G G 3.3.3.3.3.# # # # # # # 3.3.3.3.3.3.# # # G G G G G G G G G G G 4.",
"4.7 7 7 7 7 7 7 7 7       7 7 7 7 l l l l 7 7 7 7 7 7 7 7 7 7 G G G G G G G G G G G G G G G G 3.3.3.# # # # # # # # G 3.3.3.3.3.3.# # # G G G G G G G G G G G 4.",
"4.7 7 7 7 7 7 7 7 7       7 7 7 7 l l l l 7 7 7 7 7 7 7 7 7 7 G G G G G G G G G G G G G P 3.3.3.3.3.# # # # G G G G G 3.3.3.3.3.3.# # # G G G G G G G G G G G 4.",
"4.7 7 7 7 7 7 7 7 7 7     7 7 7 7 l l l l   , 7 7 7 7 7 7 7 7 G G G G G G G G G G G G G 3.3.3.3.3.3.# # # G G G G G G 3.3.3.3.3.3.# # # G G G G G G G G G G G 4.",
"4.7 7 7 7 7 7 7 7 7 7 7 7 X 7 l 8 l l l l     7 7 7 7 7 7 7 7 G G G G G G G G G G G G G 3.3.3.3.3.3.# # # G G G G G G 3.3.3.3.3.3.# # # G G G G G G G G G G G 4.",
"4.7 7 7 7 7 7 7 7 7 7 7 7 a 7 l l l l l l     7 7 7 7 7 7 7 7 G G G G G G G G G G G G G 3.3.3.3.3.3.# # # G G G G G G 3.3.3.3.3.3.# # # G G G G G G G G G G G 4.",
"4.4.7 7 7 7 7 7 7 7 7 7 7 a l l l l l l l     7 7 7 7 7 7 7 7 G G G G G G G G G G G G G 3.3.3.3.3.3.# # # G G G G G 3.3.3.3.3.3.3.# # # G G G G G G G G G G G 4.",
"4.4.7 7 7 7 7 7 7 7 7 7 7 a l l l l l l l     7 7 7 7 7 7 7 7 G G G G G G G G G G G G G 3.3.3.3.3.3.# # # G G G 3.3.3.3.3.3.3.# # # # # G G G G G G G G G G G 4.",
"4.4.7 7 7 7 7 7 7 7 7 7 7 a l l l   $ l l     7 7 7 7 7 7 7 7 G G G G G G G G G G G G G 3.3.3.3.3.3.# # # G G G 3.3.3.g # # # # # # # A G G G G G G G G G G G 4.",
"4.4.7 7 7 7 7 7 7 7 7 7 7 7 l l l       l     7 7 7 7 7 7 7 7 G G G G G G G G G G G G G 3.3.3.# # # # # # G G G 3.3.3.# # # # # p G G G G G G G G G G G G G G 4.",
"4.4.7 7 7 7 7 7 7 7 7 7 7 7 d l l             7 7 7 7 7 7 7 7 G G G G G G G G G G G G G G G G # # # # # 5 3.3.3.3.3.3.# # # G G G G G G G G G G G G G G G G G 4.",
"4.4.7 7 7 7 7 7 7 7 7 7 7 7 7 > l     o       7 7 7 7 7 7 7 7 G G G G G G G G G G G G G G G G # # Z G G G 3.3.3.3.3.3.# # # G G G G G G G G G G G G G G G G G 4.",
"4.4.7 7 7 7 7 7 7 7 7 7 7 7 7 >       7 7     7 7 7 7 7 7 7 7 G G G G G G G G G G G G G G G G G G G G G G 3.3.3.3.3.3.# # # G G G G G G G G G G G G G G G G G 4.",
"4.4.7 7 7 7 7 7 7 7 7 7 7 7 l -       7 7 7 @ 7 7 7 7 7 7 7 7 G G G G G G G G G G G G G G G G G G G G G G 3.3.3.3.3.3.# # # G G G G G G G G G G G G G G G G G 4.",
"4.4.7 7 7 7 7 7 7 7 7 7 7 7 l l l     7 7 7 7 7 7 7 7 7 7 7 7 G G G G G G G G G G G G G G G G G G G G G G 3.3.3.# # # # # # G G G G G G G G G G G G G G G G 4.4.",
"4.4.7 7 7 7 7 7 7 7 7 7 7 7 l l l 7   7 7 7 7 7 7 7 7 7 7 7 7 G G G G G G G G G G G G G G G G G G G G G G G G G # # # # = G G G G G G G G G G G G G G G G G 4.4.",
"4.4.7 7 7   O 7 7 7 7 7 7 7 l l l s 7 7 7 7 7 7 7 7 7 7 7 7 7 G G G G G G G G G G G G G G G G G G G G G G G G G # >.3.G G G G G G G G G G G G G G G G G G G 4.4.",
"4.4.7 7 7     7 7 7 7 7 7 7 j l l : 7 7 7 7 7 7 7 7 7 7 7 7 7 G G G G G G G G G G G G G G G G G G G G G G G 3.3.3.3.3.G G G G G G G G G G G G G G G G G G G 4.4.",
"4.4.7 7 7 7   7 7 7 7 7 7 7 7 7 l :   7 7 7 7 7 7 7 7 7 7 7 7 G G G G G G G G G G G G G G G G G G G G G G 3.3.3.3.3.3.# # e G G G G G G G G G G G G G G G G 4.4.",
"4.4.7 7 7 7 7 7 7 7 7 7 7 7 7 7   :   7 7 7 7 7 7 7 7 7 7 7 7 G G G G G G G G G G G G G G G G G G G G G G 3.3.3.3.3.3.# # e G G G G G G G G G G G G G G G G 4.4.",
"4.4.7 7 7 7 7 7 7 7 7 7 7 7 7 7       7 7 7 7 7 7 7 7 7 7 7 7 G G G G G G G G G G G G G G G G G G G G G G 3.3.3.3.3.<.# # e G G G G G G G G G G G G G G G G 4.4.",
"4.4.4.7 7 7 7 7 7 7 7 7 7 7 7 7 2     + 7 7 7 7 7 7 7 7 7 7 7 G G G G G G G G G G G G G G G G G G G G G G 3.3.3.3.# # # # e G G G G G G G G G G 4 G G G G G 4.4.",
"4.4.4.4.7 0 7 7 7 7 7 7 7 7 7 7 7 7   + 7 7 7 7 7 7 7 7 7 7 7 G G G G G G G G G G G G G G G G G G G G G G 1.G G # # # # # u G G G G G G G G # # # G G G G G 4.4.",
"4.4.4.4.4.6 7 7 7 7 7 7 7 7 7 7 7 7 7 < 7 7 7 7 7 7 7 7 7 7 7 G G G G G G G G G G G G G G G G G G G G G G G G G # # S G G G G G G G G G G G # # # G G G G G 4.4.",
"4.4.4.4.4.4.4.7 7 7 7 7 7 7 7 7 7 7 7 7 7 7 7 7 7 7 7 7 7 7 7 G G G G G G G G G G G G G G G G G G G G G G G G G G G G G G G G G G G G G G G D G G G G G G G 4.4.",
"4.4.4.4.4.4.4.4.7 7 7 7 7 7 7 7 7 w 7 7 7 7 7 7 7 7 7 7 7 7 7 G G G G G G G G G G G G G G G G G G G G G G G G G G G G G G G G G G G G G G G G G G G G G G G 4.4.",
"4.4.4.4.4.4.4.4.4.7 7 7 7 7 7 7 7 7 7 7 7 7 7 7 7 7 7 7 7 7 7 G G G G G G G G G G G G G G G G G G G G G G G G G G G G G G G G G G G G G G G G G G G G G G G 4.4.",
"4.4.4.4.4.4.4.4.4.4.4.7 7 7 7 7 7 7 7 7 7 7 7 7 7 7 7 7 7 7 7 G G G G G G G G G G G G G G G G G G G G G G G G G G G G G G G G G G G G G G G G G G G G G G G 4.4.",
"4.4.4.4.4.4.4.4.4.4.4.4.7 7 7 7 7 7 7 7 7 7 7 7 7 7 7 7 7 7 7 G G G G G G G G G G G G G G G G G G G G G G G G G G G G G G G G G G G G G G G G G G G G L 4.4.4.4.",
"4.4.4.4.4.4.4.4.4.4.4.4.4.7 7 7 7 7 7 7 7 7 7 7 7 7 7 7 7 7 7 G G G G G G G G G G G G G G G G G G G G G G G G G G G G G G G G G G G G G G G G G 4.4.4.4.4.4.4.4.",
"4.4.4.4.4.4.4.4.4.4.4.4.4.4.4.7 7 7 7 7 7 7 7 7 7   7 7 7 7 7 G G G G G G G G G G G G G G G G G G F G G G G G G G G G G G G G G G G G G G G 4.4.4.4.4.4.4.4.4.4.",
"4.4.4.4.4.4.4.4.4.4.4.4.4.4.4.4.7 7 7 7 7 7 7 7 7     7 7 7 7 G G G G G G G G G r G G G G G G G G G G G G G G G G G G G G G G G G G 4.4.4.4.4.4.4.4.4.4.4.4.4.4.",
"4.4.4.4.4.4.4.4.4.4.4.4.4.4.4.4.4.7 7 7 7 7 7 7 7     7 7 7 7 G G G G G G * # # % G G G G G G G G G G G G G G G G G G G G G G 4.4.4.4.4.4.4.4.4.4.4.4.4.4.4.4.4.",
"4.4.4.4.4.4.4.4.4.4.4.4.4.4.4.4.4.4.4.7 7 7 7 7 7 7 7 7 7 7 7 G G G G G G & # # % G G G G G G G G G G G G G G G G G G G 4.4.4.4.4.4.4.4.4.4.4.4.4.4.4.4.4.4.4.4.",
"4.4.4.4.4.4.4.4.4.4.4.4.4.4.4.4.4.4.4.4.7 7 7 7 7 7 7 7 7 7 7 G G G G G G & # G G G G G G G G G G G G G G G G G G 4.4.4.4.4.4.4.4.4.4.4.4.4.4.4.4.4.4.4.4.4.4.4.",
"4.4.4.4.4.4.4.4.4.4.4.4.4.4.4.4.4.4.4.4.4.7 7 7 7 7 7 7 7 7 7 G G G G G G G G G G G G G G G G G G G G G G G 4.4.4.4.4.4.4.4.4.4.4.4.4.4.4.4.4.4.4.4.4.4.4.4.4.4.",
"4.4.4.4.4.4.4.4.4.4.4.4.4.4.4.4.4.4.4.4.4.4.4.7 7 7 7 7 7 7 7 G G G G G G M G G G G G G G G G G G G G 4.4.4.4.4.4.4.4.4.4.4.4.4.4.4.4.4.4.4.4.4.4.4.4.4.4.4.4.4.",
"4.4.4.4.4.4.4.4.4.4.4.4.4.4.4.4.4.4.4.4.4.4.4.4.7 7 7 7 7 7 7 G G G G G G G G G G G G G G G G G 4.4.4.4.4.4.4.4.4.4.4.4.4.4.4.4.4.4.4.4.4.4.4.4.4.4.4.4.4.4.4.4.",
"4.4.4.4.4.4.4.4.4.4.4.4.4.4.4.4.4.4.4.4.4.4.4.4.4.7 7 7 7 7 7 G G G G G G G G G G G G G G 4.4.4.4.4.4.4.4.4.4.4.4.4.4.4.4.4.4.4.4.4.4.4.4.4.4.4.4.4.4.4.4.4.4.4.",
"4.4.4.4.4.4.4.4.4.4.4.4.4.4.4.4.4.4.4.4.4.4.4.4.4.4.4.7 7 7 7 G G G G G G G G G G G 4.4.4.4.4.4.4.4.4.4.4.4.4.4.4.4.4.4.4.4.4.4.4.4.4.4.4.4.4.4.4.4.4.4.4.4.4.4.",
"4.4.4.4.4.4.4.4.4.4.4.4.4.4.4.4.4.4.4.4.4.4.4.4.4.4.4.4.7 7 7 G G G G G G G G 4.4.4.4.4.4.4.4.4.4.4.4.4.4.4.4.4.4.4.4.4.4.4.4.4.4.4.4.4.4.4.4.4.4.4.4.4.4.4.4.4.",
"4.4.4.4.4.4.4.4.4.4.4.4.4.4.4.4.4.4.4.4.4.4.4.4.4.4.4.4.4.7 7 G G G G G 4.4.4.4.4.4.4.4.4.4.4.4.4.4.4.4.4.4.4.4.4.4.4.4.4.4.4.4.4.4.4.4.4.4.4.4.4.4.4.4.4.4.4.4.",
"4.4.4.4.4.4.4.4.4.4.4.4.4.4.4.4.4.4.4.4.4.4.4.4.4.4.4.4.4.4.4.G G 4.4.4.4.4.4.4.4.4.4.4.4.4.4.4.4.4.4.4.4.4.4.4.4.4.4.4.4.4.4.4.4.4.4.4.4.4.4.4.4.4.4.4.4.4.4.4."
};
