/* XPM */
static char *result[] = {
/* columns rows colors chars-per-pixel */
"80 80 235 2 ",
"   c #030304",
".  c #040609",
"X  c #05090D",
"o  c #080B0E",
"O  c #040D13",
"+  c #080E13",
"@  c #080F19",
"#  c #051216",
"$  c #0A1215",
"%  c #06131B",
"&  c #0A141C",
"*  c #0A191E",
"=  c #07191E",
"-  c #061521",
";  c #0A1720",
":  c #061926",
">  c #0A1A23",
",  c #061C2B",
"<  c #0C1D2A",
"1  c #091F31",
"2  c #121E2C",
"3  c #0D2027",
"4  c #0C212C",
"5  c #11242C",
"6  c #15292E",
"7  c #062034",
"8  c #0C2433",
"9  c #0D2935",
"0  c #0B253A",
"q  c #0E2B3C",
"w  c #072B3F",
"e  c #112532",
"r  c #132935",
"t  c #132539",
"y  c #132C3B",
"u  c #1A2E3B",
"i  c #1A2B35",
"p  c #15323D",
"a  c #19323E",
"s  c #0D2C42",
"d  c #0D2E4B",
"f  c #0A2543",
"g  c #132D43",
"h  c #142D46",
"j  c #0E3244",
"k  c #0E324C",
"l  c #0E3A4C",
"z  c #143244",
"x  c #193444",
"c  c #1A3946",
"v  c #14354B",
"b  c #19354A",
"n  c #153A4D",
"m  c #1A3B4D",
"M  c #163845",
"N  c #0A2E56",
"B  c #0C3453",
"V  c #0D3953",
"C  c #0D385B",
"Z  c #133552",
"A  c #153B53",
"S  c #1A3D53",
"D  c #143D5B",
"F  c #1A3E5B",
"G  c #193353",
"H  c #243C4B",
"J  c #223E55",
"K  c #203F5A",
"L  c #133E63",
"P  c #093D6B",
"I  c #1A414F",
"U  c #164055",
"Y  c #1C4255",
"T  c #15425C",
"R  c #1B435C",
"E  c #1D495D",
"W  c #0F405D",
"Q  c #21414E",
"!  c #21455B",
"~  c #234A5D",
"^  c #28465A",
"/  c #0E4769",
"(  c #154464",
")  c #1B4563",
"_  c #154865",
"`  c #1D4A64",
"'  c #14456B",
"]  c #1B466A",
"[  c #154A6B",
"{  c #1C4B6B",
"}  c #1D526D",
"|  c #1B5168",
" . c #164571",
".. c #164C72",
"X. c #1B4D73",
"o. c #1A4C79",
"O. c #165172",
"+. c #1D5374",
"@. c #1E5975",
"#. c #1C537B",
"$. c #1D597D",
"%. c #0E4671",
"&. c #214661",
"*. c #224B64",
"=. c #2B4C63",
"-. c #224E6C",
";. c #284D69",
":. c #245165",
">. c #24526C",
",. c #2A536C",
"<. c #2B5366",
"1. c #335469",
"2. c #214E71",
"3. c #234E79",
"4. c #235373",
"5. c #2A5574",
"6. c #255C75",
"7. c #2A5B74",
"8. c #22557B",
"9. c #245B7B",
"0. c #2B5C7B",
"q. c #28567D",
"w. c #325B75",
"e. c #325C7A",
"r. c #324A66",
"t. c #1F607F",
"y. c #23607E",
"u. c #2A627E",
"i. c #296177",
"p. c #32667D",
"a. c #40516D",
"s. c #48667B",
"d. c #1C5682",
"f. c #1D5B83",
"g. c #1C5D8A",
"h. c #165988",
"j. c #195E92",
"k. c #114D81",
"l. c #235C83",
"z. c #2A5D82",
"x. c #235E8A",
"c. c #245583",
"v. c #345A85",
"b. c #1A618A",
"n. c #1C6494",
"m. c #1D6995",
"M. c #1E6C9B",
"N. c #116A9B",
"B. c #1D709C",
"V. c #256284",
"C. c #2B6384",
"Z. c #2B6984",
"A. c #24638B",
"S. c #2B648C",
"D. c #2C6B8C",
"F. c #23688C",
"G. c #336484",
"H. c #316A85",
"J. c #346B8C",
"K. c #3C6987",
"L. c #34718E",
"P. c #236592",
"I. c #2A6592",
"U. c #246A94",
"Y. c #2B6C94",
"T. c #226C9B",
"R. c #2A6D9A",
"E. c #236699",
"W. c #326C92",
"Q. c #356A97",
"!. c #2D7294",
"~. c #2C729C",
"^. c #26729B",
"/. c #327295",
"(. c #367598",
"). c #2F708E",
"_. c #1D75A9",
"`. c #1871AE",
"'. c #276BA2",
"]. c #2673A4",
"[. c #2B74A1",
"{. c #2D7AA3",
"}. c #2C7BAA",
"|. c #2574A9",
" X c #3274A2",
".X c #337BA6",
"XX c #397AA8",
"oX c #2B7DB2",
"OX c #2676B8",
"+X c #337DB1",
"@X c #447999",
"#X c #4C748F",
"$X c #477EA5",
"%X c #3581AC",
"&X c #3983A9",
"*X c #2D83B4",
"=X c #2784BA",
"-X c #3282B2",
";X c #3989B7",
":X c #3A95B8",
">X c #40809D",
",X c #5C869C",
"<X c #4483A9",
"1X c #568BAA",
"2X c #4388B3",
"3X c #4792B7",
"4X c #5897B8",
"5X c #628AA8",
"6X c #6798B2",
"7X c #729DB5",
"8X c #6D90AB",
"9X c #78A5B9",
"0X c #66A0BE",
"qX c #298BC4",
"wX c #3492C5",
"eX c #4297C6",
"rX c #4284C0",
"tX c #679EC3",
"yX c #54ABD7",
"uX c #48A7D6",
"iX c #67A7C6",
"pX c #77A6C5",
"aX c #62B3D8",
"sX c #78B2D8",
"dX c #6BAFD1",
"fX c #66BEED",
"gX c #6BC5E8",
"hX c #81B1CC",
"jX c #A1B5C1",
"kX c #9BC9DF",
"lX c #A2C9D5",
"zX c #B3C9D3",
"xX c #A3DDEE",
"cX c #B9F1F4",
"vX c None",
/* pixels */
"vXvXvXvXvXvXvXvXvXvXvXvXvXvXvXvXvXvXvXvXvXvXvXvXvXvXvXvXvXvXvXvXvXvXvXvXvXvXvXvXvXvXvXvXvXvXvXvXvXvXvXvXvXvXvXvXvXvXvXvXvXvXvXvXvXvXvXvXvXvXvXvXvXvXvXvXvXvXvXvX",
"vXvXvXvXvXvXvXvXvXvXvXvXvXvXvXvXvXvXvXvXvXvXvXvXvXvXvXvXvXvXvXvXvXvXvXvXvXvXvXvXvXvXvXvXvXvXvXvXvXvXvXvXvXvXvXvXvXvXvXvXvXvXvXvXvXvXvXvXvXvXvXvXvXvXvXvXvXvXvXvX",
"vXvXvXvXvXvXvXvXvXvXvXvXvXvXvXvXvXvXvXvXvXvXvXvXvXvXvXvXvXvXvXvXvXvXvXvXvXvXvXvXvXvXvXvXvXvXvXvXvXvXvXvXvXvXvXvXvXvXvXvXvXvXvXvXvXvXvXvXvXvXvXvXvXvXvXvXvXvXvXvX",
"vXvXvXvXvXvXvXvXvXvXvXvXvXvXvXvXvXvXvXvXvXvXvXvXvXvXvXvXvXvXvXvXvXvXvXvXvXvXvXvXvXvXvXvXvXvXvXvXvXvXvXvXvXvXvXvXvXvXvXvXvXvXvXvXvXvXvXvXvXvXvXvXvXvXvXvXvXvXvXvX",
"vXvXvXvXvXvXvXvXvXvXvXvXvXvXvXvXvXvXvXvXvXvXvXvXvXvXvXvXvXvXvXvXvXvXvXvXvXvXvXvXvXvXvXvXvXvXvXvXvXvXvXvXvXvXvXvXvXvXvXvXvXvXvXvXvXvXvXvXvXvXvXvXvXvXvXvXvXvXvXvX",
"vXvXvXvXvXvXvXvXvXvXvXvXvXvXvXvXvXvXvXvXvXvXvXvXvXvXvXvXvXvXvXvXvXvXvXvXvXvXvXvXvXvXvXvXvXvXvXvXvXvXvXvXvXvXvXvXvXvXvXvXvXvXvXvXvXvXvXvXvXvXvXvXvXvXvXvXvXvXvXvX",
"vXvXvXvXvXvXvXvXvXvXvXvXvXvXvXvXvXvXvXvXvXvXvXvXvXvXvXvXvXvXvXvXvXvXvXvXvXvXvXvXvXvXvXvXvXvXvXvXvXvXvXvXvXvXvXvXvXvXvXvXvXvXvXvXvXvXvXvXvXvXvXvXvXvXvXvXvXvXvXvX",
"vXvXvXvXvXvXvXvXvXvXvXvXvXvXvXvXvXvXvXvXvXvXvXvXvXvXvXvXvXvXvXvXvXvXvXvXvXvXvXvXvXvXvXvXvXvXvXvXvXvXvXvXvXvXvXvXvXvXvXvXvXvXvXvXvXvXvXvXvXvXvXvXvXvXvXvXvXvXvXvX",
"vXvXvXvXvXvXvXvXvXvXvXvXvXvXvXvXvXvXvXvXvXvXvXvXvXvXvXvXvXvXvXvXvXvXvXvXvXvXvXvXvXvXvXvXvXvXvXvXvXvXvXvXvXvXvXvXvXvXvXvXvXvXvXvXvXvXvXvXvXvXvXvXvXvXvXvXvXvXvXvX",
"vXvXvXvXvXvXvXvXvXvXvXvXvXvXvXvXvXvXvXvXvXvXvXvXvXvXvXvXvXvXvXvXvXvXvXvXvXvXvXvXvXvXvXvXvXvXvXvXvXvXvXvXvXvXvXvXvXvXvXvXvXvXvXvXvXvXvXvXvXvXvXvXvXvXvXvXvXvXvXvX",
"vXvXvXvXvXvXvXvXvXvXvXvXvXvXvXvXvXvXvXvXvXvXvXvXvXvXvXvXvXvXvXvXvXvXvXvXvXvXvXvXvXvXvXvXvXvXvXvXvXvXvXvXvXvXvXvXvXvXvXvXvXvXvXvXvXvXvXvXvXvXvXvXvXvXvXvXvXvXvXvX",
"vXvXvXvXvXvXvXvXvXvXvXvXvXvXvXvXvXvXvXvXvXvXvXvXvXvXvXvXvXvXvXvXvXvXvXvXvXvXvXvXvXvXvXvXvXvXvXvXvXvXvXvXvXvXvXvXvXvXvXvXvXvXvXvXvXvXvXvXvXvXvXvXvXvXvXvXvXvXvXvX",
"vXvXvXvXvXvXvXvXvXvXvXvXvXvXvXvXvXvXvXvXvXvXvXvXvXvXvXc m n | ( F b J F F n ] &.R R D k L f e ; t vXvXvXvXvXvXvXvXvXvXvXvXvXvXvXvXvXvXvXvXvXvXvXvXvXvXvXvXvXvXvX",
"vXvXvXvXvXvXvXvXvXvXvXvXvXvXvXvXvXvXvXvXvXvXvXvXx y x Y S c +.g.#.J R 2.b.d.] w.A ) F N K 2 e f < v v L d v vXvXvXvXvXvXvXvXvXvXvXvXvXvXvXvXvXvXvXvXvXvXvXvXvXvX",
"vXvXvXvXvXvXvXvXvXvXvXvXvXvXvXvXvXvXvXvXvXvXZ ! p z m 1.! n D ( X.| &.8.8.) F ` -.) F Z a., s ' B F P  .v. ./ F S vXvXvXvXvXvXvXvXvXvXvXvXvXvXvXvXvXvXvXvXvXvXvX",
"vXvXvXvXvXvXvXvXvXvXvXvXvXvXvXvXvXvXvXvXJ g c A =.x l lXT p G X.F F &.J ` ! 5X8.R A ) Z x s h N N f d #XW.) n F S x t vXvXvXvXvXvXvXvXvXvXvXvXvXvXvXvXvXvXvXvXvX",
"vXvXvXvXvXvXvXvXvXvXvXvXvXvXvXvXvXvXg J S A q v ' _ +.-.c._ b S ! S ! *.! Y F ` { R m D g C Z Z s #Xx 8.' Z -.G b b 0 9 4 vXvXvXvXvXvXvXvXvXvXvXvXvXvXvXvXvXvXvX",
"vXvXvXvXvXvXvXvXvXvXvXvXvXvXvXvXvXZ =.R &.v.( ! z.9.Y.I J.] &.8.&.R J -.-.;.-.Y S A R x Z N g d d ( D R ) 4.R &.R v n p R u vXvXvXvXvXvXvXvXvXvXvXvXvXvXvXvXvXvX",
"vXvXvXvXvXvXvXvXvXvXvXvXvXvXvXvX4.v Z D T ) { ) +.) G d.4.#.&.R R hX] >.&.&.` Y =.K F x 5XZ g z s -.(.2.-.v Z >.*.S x x p k.z vXvXvXvXvXvXvXvXvXvXvXvXvXvXvXvXvX",
"vXvXvXvXvXvXvXvXvXvXvXvXvXvXvXC ( X.F f.B.-.-.~ *.] ] 4.] F.I.3.2.z.q.) 5.` ` ) ) Y A &.v x x b d o.) ) Z ) v T 0.F m p c #.z y vXvXvXvXvXvXvXvXvXvXvXvXvXvXvXvX",
"vXvXvXvXvXvXvXvXvXvXvXvXvXvXq...g.g.%.#.D.( 4.&.S ! ! 8.#.2.d.G.&.-.] ] *.>.Z A F F Y T m x x R ] 3.T Y A ) ..T ) F ~ Y I ..A g m vXvXvXvXvXvXvXvXvXvXvXvXvXvXvX",
"vXvXvXvXvXvXvXvXvXvXvXvXvX} f.P.l.;Xm.[.n.}.g.u.-.~ ` -.-.! A.9.X.D -.4.T R A U R R T z p p c e.f.) F ! ( X.] T ( R *.R E R | z ( ( vXvXvXvXvXvXvXvXvXvXvXvXvXvX",
"vXvXvXvXvXvXvXvXvXvXvXvXC.+.9.F.X.( W.A.2X;X[.l.l.8.&.>.&.2.X.` ` ` R ) F R >.n &.{ +.;.y x x 9.X.F ` v T +.3. .7Xq._ E } U ` *.Y g b vXvXvXvXvXvXvXvXvXvXvXvXvX",
"vXvXvXvXvXvXvXvXvXvXvXvX6.g.U.g.4.` o.aXM.:XoXA.+.4.] ` ] sX` c ] ) v F S A c U T 4.] ' y r g 7...+.] y R D D G.+.o.' Y cXO.} n x y y D vXvXvXvXvXvXvXvXvXvXvXvX",
"vXvXvXvXvXvXvXvXvXvXvX<X9.E.9.W.{ X.E.{._.=X*X#.{ -.*.4.>.] F S 0.m b S m S x z a A +.] R r r n F { ) v g F R >.F -.! Y Y _ E A n T v z.vXvXvXvXvXvXvXvXvXvXvXvX",
"vXvXvXvXvXvXvXvXvXvXvXO.4..Xx.<XV.l.2XwX*XqX*X}.S.4.) 6.4.q.] ` ] -.X.` R ` _ &.b x A *.} j r z 0.Z ( z x S ) ] ] ;.m Y Y T } | T [ l S R vXvXvXvXvXvXvXvXvXvXvX",
"vXvXvXvXvXvXvXvXvXvX{ >.A.&X8.m.E.%.P.T._.yXoX=XP.] X.4.0.9.R R R S S A z A 5.R T S D n ) n p y A S 4.v p S &.-.` ! E J K.*.t.O.(.E ` z K.B vXvXvXvXvXvXvXvXvXvX",
"vXvXvXvXvXvXvXvXvXvX) P.m.6.T O.#.#.3Xn._.^.*XoX9.{ -.z.` ] ` ) ` ` ) n m b &.Z l z n S &.T p r k k D q.n R q.L 5.S S Y 9.} :.b.l.U m x =.Z L vXvXvXvXvXvXvXvXvX",
"vXvXvXvXvXvXvXvXvXvXg.l.4.>.w.E _ { Y.b.`.fX_.yXU.x.<X} 4.+.L n M y r x y x y p a p v S z n j s.q z A ..K -.5.tX;.S ! R Y ~ E @.>.E E n m m Z vXvXvXvXvXvXvXvXvX",
"vXvXvXvXvXvXvXvXvXB.9.J.4.{ R >.pXY C.#.3X]._.qXaXaXF.U.{ D n x 8 s x y r 8 8 8 8 b y A A y } z p c x F ! ) &.&.-.-.-.R Y } @.f.` O.m x m R ..) vXvXvXvXvXvXvXvX",
"vXvXvXvXvXvXvXvXvXV.+.S.9.` T S Q x ` +.%X-X=X=XM. X{ <XD D y r 0 q e 5 < < * ; < < y y D m A v y *.e x A ] -.&.S.4.*.J | | 6.@.:.| ~ n m S  .#.vXvXvXvXvXvXvXvX",
"vXvXvXvXvXvXvXvXvX3XC.A.] >.U M p x R x.T.=XgXB.!.V.$.) T g A h t 8 u ; @ & # O @ * > 1 y y x T g Z r x #XS -.-.<Xx.XX8.E :.i.} O.O.K.R S S d.[ vXvXvXvXvXvXvXvX",
"vXvXvXvXvXvXvXvXvXQ.{ l.) x c m U A g.g.-X}.R.#.9.A.+.( y y x y 5 2 # % % O O . o + * < 8 5 y S q y e 8 m S R R S.A. X4.R ~ *.>.Y.y.6.~ Y U >.) Z vXvXvXvXvXvXvX",
"vXvXvXvXvXvXvXvXvXwXR.Y.K.E ) 9X' ( f.4XF.A.b.b.S.X.] A r Z 8 < ; O X X . . X . . . X # > < 8 y A e g 2 v F G -.I.D.Y.z.*.-.` i.V.6.9.u.E Y R >.) vXvXvXvXvXvXvX",
"vXvXvXvXvXvXvXvXvX%XP.4X@.{ T ' n R ] ..g.m.l.F.#.[ D x Z 0 e & # O o . .   . . . . . O # 5 e r *.y g r F x &.9.R. X~.q.9.'.6.i.6.L.L.i.~ :.w.Y ;.vXvXvXvXvXvXvX",
"vXvXvXvXvXvXvXvX;XX.b.6X#.! j R S.9.R 2.R d.4.b.] ( F b n < ; % * O .                 X O < 1 g y y g h n x -.{ R.W.[.P.b.U.!.).Z.L.H.L.` >.E ~ S m vXvXvXvXvXvX",
"vXvXvXvXvXvXvXvX].h.m.U...A R 4.o.9.R ` m R | ` ` S Y x 8 ; < > X o                   . + & 4 y 0 t p A s n -.R.P. XeXeX!.=X/.J.).u.i.>.>.) E Y J &.vXvXvXvXvXvX",
"vXvXvXvXvXvXvXvXyX`.h.dXJ.U T Y T R S Y n R { ( { v ] v < * * % O o                     . # > 8 e 8 g 4.Z T ` F.%X3X}._.eX;X(.D.{.L.D.>.E ~ :.` A &.vXvXvXvXvXvX",
"vXvXvXvXvXvXvXvX-Xc.n.|.N.4X:.m v S M z F [ @.{ m S n n * ; - O o .                   . o O : , e r q A X.{ X.f.}.}.oX+X^.-X[.~..XD.J.>.6.Y ) ` F F vXvXvXvXvXvX",
"vXvXvXvXvXvXvXvX..n.h.].^.'.l Y H a n Y &.` A.*.S 7.z 9 i ; < # .                       . O ; : < < d q *.8.9.P.+XqXuXU.[.=X~.!.(.H.J.7.:.7.P.T L ! vXvXvXvXvXvX",
"vXvXvXvXvXvXvXvXG j.hXwXgX#.<.m n ! ( *.` T V.~ Y S A 8 * ; % # o   .                   . % % : ; 8 s n A l.F.l.uX=XqXT.sX~.&XJ.Z.Z.Y.7.6.0.T ] T Y vXvXvXvXvXvX",
"vXvXvXvXvXvXvXvXL '.kXOXb.*.4.7.R E *.7.>.6.) R m m A e > ; * # O .                     o % - , > 4 g v ..>XP.|.}.-X^.y.F.V.Z.p.i.p.D.@.9.4.O.` ~ p vXvXvXvXvXvX",
"vXvXvXvXvXvXvXvXc.x.W.Y.I.! z.} 9.>.4.7.,.| :.] ~ F ~ e r % 4 O O o   .               . o @ % e > r x g 4XI.d.%XXXR.+.d.R.6.i.S.!.~.eXB.(.D.@.{ I ! vXvXvXvXvXvX",
"vXvXvXvXvXvXvXvX8.d ] 3.J.5.,.C.9.4.:.! >.>.9.4.-.T c z r * 3 # @ + .                 o O # # 5 y r V G Y.3X9.l.oXR.6.4.6.6.@.kX:X-X:X*XY.Z.Y.b.Z x vXvXvXvXvXvX",
"vXvXvXvXvXvXvXvX2.&.&.-.4.S.C.6.7.~ 7.~ :.6.z.>.S S n g r * r * + O . . .         . X . O - ; > 8 k g XXW.8.X.aXE.4.f.6.} +.9.Z./.&X^.^.V.y.Z.F.#.vXvXvXvXvXvXvX",
"vXvXvXvXvXvXvXvXR A ) #.&.%XR.7.{ 4.0.*.R S.0.4.S Y n s r ; 8 > # $ + @ o . O . .   . O + & % q 9 l $X+.x.{ { ]..X0.R *.Y.{ :.V.wX^.^.-X}.@.>X[.` vXvXvXvXvXvXvX",
"vXvXvXvXvXvXvXvX) [ 7.Y ,.S.V.*.~ E =.Y >.9.y.@.m m Y ] e > < H - & O O @ O o X + # ; @ % > r 8 z +.7. X#.) d.|.~.V.n ` >.@.u.F.T.:X=X:X!.D.t.9.4.vXvXvXvXvXvXvX",
"vXvXvXvXvXvXvXvXS.4.8.w.>.0.,.0.J S Y &.Y C.$.V.~ U F K.e 5 0 8 < < ; # # # O O # $ $ * 5 8 0 ( ( +.d.g.2Xl.[.P.#.8.( ` 9.7.u.6.D.&X{.%X.XD.V.@.>.vXvXvXvXvXvXvX",
"vXvXvXvXvXvXvXvXd.q.9X4.0.p.#.7.<.` I -.n 4.8.8.! >.*.R q z g r > S > : > ; ; > t g 0 0 j F D T l.8.R.A.U.j.#.A F L $XR.x.A.|.R.].^.XX%XT.u.l.@.vXvXvXvXvXvXvXvX",
"vXvXvXvXvXvXvXvX>.-.~ ! ! :.S.R +.,.T 4Xb 7.R X.#.` ] A ) m q v y 7 8 < < 4 < ; < 8 t v l T ` D #.d.9.A.2Xo.) A D h z.' P.U.q.C.R.OX%X^.Y.U.A.9.vXvXvXvXvXvXvXvX",
"vXvXvXvXvXvXvXvX{ m ~ ! ! H 4.&.n ( ) *.m b F -.d.4.+.F A z 8 S D y q 0 0 8 8 , r 8 d n ) ) ] _ ] +.S.S.l.' 3.G Z d A >.1X-X>.0..XqX&X&XV.F.0.+.vXvXvXvXvXvXvXvX",
"vXvXvXvXvXvXvXvXvXm H x a c Y U C A g =.y Q D #.` ) &.` ) D p z k D y s q v g 0 x q y v A F A ) ] ] 4.9.z.#.-.F F g z ;.{ z.j.I.Y.XX}.Y.b.:.9.vXvXvXvXvXvXvXvXvX",
"vXvXvXvXvXvXvXvXvXv y e r e r A D c x g y ! &.{ 4.D F ) z ( S q q l k 9 v v v ) ( K.) F _ +.+.Q.9.4.8.{ e.R &.L { v x m ,.| Y.C.H.xX;XY.u.u.} vXvXvXvXvXvXvXvXvX",
"vXvXvXvXvXvXvXvXvXx u y 5 e 9 y F r y y x b b ] d.x.) ` S ' n F z U Z 8 z k D 2.d ) D D A ' 8.X.R ) ) { l.4.k.#.] A S n U.@X5.*.W.-X/.u.0.9.9.vXvXvXvXvXvXvXvXvX",
"vXvXvXvXvXvXvXvXvXvXg e i 5 5 8 z q g x d ) -.-.o.] F.) ( O.A Z n z ( 7.q Q Z D z.( L X.+.v.l.4.) F v Z X...h.o.G.*.R ` h./ 4.C.S.oXD.@.*.C.vXvXvXvXvXvXvXvXvXvX",
"vXvXvXvXvXvXvXvXvXvXv a 5 e 4 4 4 t t b F ( ( ' #.8.T.I.f.l.4.v ( z v n ] h y Z D K.D ) G D ,.&.b u p c S 8.4X{ D Y ( _ E R 8.#.iX^.<XZ.J.}.vXvXvXvXvXvXvXvXvXvX",
"vXvXvXvXvXvXvXvXvXvXvXA #Xe 2 ; < d y v D A +.>.,.I.[.n.f.S ) #.) 8.G v k J.Z 0.0.F { D A V n v ` x x m S ` { O.F.>.| *.] R 9.A.S. XP.Y.L.vXvXvXvXvXvXvXvXvXvXvX",
"vXvXvXvXvXvXvXvXvXvXvXz g 2 3 c 5 v q R e.m S ! R { 9.8.T R 4.+.f.+.#.C.A k v S R ] ] v n ] A ) T n p M n ..V...+.R _ _ T 4.C.l.l.R.x.v.H.vXvXvXvXvXvXvXvXvXvXvX",
"vXvXvXvXvXvXvXvXvXvXvXvXv f < 9 3 w g A R Z v &.-.` 4.9.S ` G.R 8.#.S.q.0.(.n ! y a x A j v pX( R z p p z A { T ] T >.U ` >.u.9.4.(.>.5.vXvXvXvXvXvXvXvXvXvXvXvX",
"vXvXvXvXvXvXvXvXvXvXvXvXvXq < 8 s v Z D Z *.S R 6X&.6.A *.&.4.] 9.F F.(.+.k S S g x S =.g z ( C c z p p q A ` >.{ R R n T X.*.G.V.8.4.vXvXvXvXvXvXvXvXvXvXvXvXvX",
"vXvXvXvXvXvXvXvXvXvXvXvXvXvXt n y r r.k.d D ( ) Y Y l Y ~ D [ v 0.#.( 4.0XF v n x A F v v A A m e p a y p ,.T { &.` U I ` ~ Y :.*.0.4.vXvXvXvXvXvXvXvXvXvXvXvXvX",
"vXvXvXvXvXvXvXvXvXvXvXvXvXvXvXvX8 h r h 0 A F A U >.A q X.n ) A S W.l.X.+.4.A R ) R Y k s B C v y Z y r 9 n U Y Y I M x ! I &.! ,.*.vXvXvXvXvXvXvXvXvXvXvXvXvXvX",
"vXvXvXvXvXvXvXvXvXvXvXvXvXvXvXvXvX8Xd 1.d q.A ( -.F R ( #.k.S.5.m Y ` -.4.&.) v d Z n n A h y r 4 9 j 4 r 9 g v z c p p M Y :.>.*.vXvXvXvXvXvXvXvXvXvXvXvXvXvXvX",
"vXvXvXvXvXvXvXvXvXvXvXvXvXvXvXvXvXvXvX) A B 5.( B S L +.( d.X.7.Y T X.4.{ 7Xn g A w y &.G s 8 < 5 i r 3 4 4 z v n p p p a x Y m vXvXvXvXvXvXvXvXvXvXvXvXvXvXvXvX",
"vXvXvXvXvXvXvXvXvXvXvXvXvXvXvXvXvXvXvXvXvX' C 9.X.A 4.S.X.@Xn.Q.4.) ] | ! x { S v v v e D 0 1 6 > 5 3 3 5 3 i e e 6 9 n M M p vXvXvXvXvXvXvXvXvXvXvXvXvXvXvXvXvX",
"vXvXvXvXvXvXvXvXvXvXvXvXvXvXvXvXvXvXvXvXvXvXC zXT ` G $X) /.6X#.Y Y E Y c S *.R v g g g < 1 0 s : ; > 3 5 3 5 > 3 5 r q p p y vXvXvXvXvXvXvXvXvXvXvXvXvXvXvXvXvX",
"vXvXvXvXvXvXvXvXvXvXvXvXvXvXvXvXvXvXvXvXvXvXvXvX;.n F v...(  .1XS E F ! Y ~ S >.,.g 9 b : < 1 H 1 0 8 > ; < > > < a 9 j a vXvXvXvXvXvXvXvXvXvXvXvXvXvXvXvXvXvXvX",
"vXvXvXvXvXvXvXvXvXvXvXvXvXvXvXvXvXvXvXvXvXvXvXvXvXvXvX*.o.E.j.' S R *.>.{ E R <.! v y < u > O & < 0 < 0 ; * 5 3 a 4 9 D vXvXvXvXvXvXvXvXvXvXvXvXvXvXvXvXvXvXvXvX",
"vXvXvXvXvXvXvXvXvXvXvXvXvXvXvXvXvXvXvXvXvXvXvXvXvXvXvXvXvXo.+.` ,X*.{ 0.{ ) 2.n S A y 0 : > & $ jX$ & < * * & ; * - vXvXvXvXvXvXvXvXvXvXvXvXvXvXvXvXvXvXvXvXvXvX",
"vXvXvXvXvXvXvXvXvXvXvXvXvXvXvXvXvXvXvXvXvXvXvXvXvXvXvXvXvXvXvX-.` ,.X.( X.) #.2.S v z z : e @ @ & O & 9 < * & % vXvXvXvXvXvXvXvXvXvXvXvXvXvXvXvXvXvXvXvXvXvXvXvX",
"vXvXvXvXvXvXvXvXvXvXvXvXvXvXvXvXvXvXvXvXvXvXvXvXvXvXvXvXvXvXvXvXvXvXvXvXV.) ` >.R F ^ x 0 q f 0 q < 7 7 4 vXvXvXvXvXvXvXvXvXvXvXvXvXvXvXvXvXvXvXvXvXvXvXvXvXvXvX",
"vXvXvXvXvXvXvXvXvXvXvXvXvXvXvXvXvXvXvXvXvXvXvXvXvXvXvXvXvXvXvXvXvXvXvXvXvXvXvXvXvXvXvXvX1.vXvXvXvXvXvXvXvXvXvXvXvXvXvXvXvXvXvXvXvXvXvXvXvXvXvXvXvXvXvXvXvXvXvXvX",
"vXvXvXvXvXvXvXvXvXvXvXvXvXvXvXvXvXvXvXvXvXvXvXvXvXvXvXvXvXvXvXvXvXvXvXvXvXvXvXvXvXvXvXvXvXvXvXvXvXvXvXvXvXvXvXvXvXvXvXvXvXvXvXvXvXvXvXvXvXvXvXvXvXvXvXvXvXvXvXvX",
"vXvXvXvXvXvXvXvXvXvXvXvXvXvXvXvXvXvXvXvXvXvXvXvXvXvXvXvXvXvXvXvXvXvXvXvXvXvXvXvXvXvXvXvXvXvXvXvXvXvXvXvXvXvXvXvXvXvXvXvXvXvXvXvXvXvXvXvXvXvXvXvXvXvXvXvXvXvXvXvX",
"vXvXvXvXvXvXvXvXvXvXvXvXvXvXvXvXvXvXvXvXvXvXvXvXvXvXvXvXvXvXvXvXvXvXvXvXvXvXvXvXvXvXvXvXvXvXvXvXvXvXvXvXvXvXvXvXvXvXvXvXvXvXvXvXvXvXvXvXvXvXvXvXvXvXvXvXvXvXvXvX",
"vXvXvXvXvXvXvXvXvXvXvXvXvXvXvXvXvXvXvXvXvXvXvXvXvXvXvXvXvXvXvXvXvXvXvXvXvXvXvXvXvXvXvXvXvXvXvXvXvXvXvXvXvXvXvXvXvXvXvXvXvXvXvXvXvXvXvXvXvXvXvXvXvXvXvXvXvXvXvXvX",
"vXvXvXvXvXvXvXvXvXvXvXvXvXvXvXvXvXvXvXvXvXvXvXvXvXvXvXvXvXvXvXvXvXvXvXvXvXvXvXvXvXvXvXvXvXvXvXvXvXvXvXvXvXvXvXvXvXvXvXvXvXvXvXvXvXvXvXvXvXvXvXvXvXvXvXvXvXvXvXvX",
"vXvXvXvXvXvXvXvXvXvXvXvXvXvXvXvXvXvXvXvXvXvXvXvXvXvXvXvXvXvXvXvXvXvXvXvXvXvXvXvXvXvXvXvXvXvXvXvXvXvXvXvXvXvXvXvXvXvXvXvXvXvXvXvXvXvXvXvXvXvXvXvXvXvXvXvXvXvXvXvX",
"vXvXvXvXvXvXvXvXvXvXvXvXvXvXvXvXvXvXvXvXvXvXvXvXvXvXvXvXvXvXvXvXvXvXvXvXvXvXvXvXvXvXvXvXvXvXvXvXvXvXvXvXvXvXvXvXvXvXvXvXvXvXvXvXvXvXvXvXvXvXvXvXvXvXvXvXvXvXvXvX",
"vXvXvXvXvXvXvXvXvXvXvXvXvXvXvXvXvXvXvXvXvXvXvXvXvXvXvXvXvXvXvXvXvXvXvXvXvXvXvXvXvXvXvXvXvXvXvXvXvXvXvXvXvXvXvXvXvXvXvXvXvXvXvXvXvXvXvXvXvXvXvXvXvXvXvXvXvXvXvXvX"
};
