/* XPM */
static char *result[] = {
/* columns rows colors chars-per-pixel */
"80 80 136 2 ",
"   c black",
".  c #2A2707",
"X  c #2B2707",
"o  c #141A3B",
"O  c #3C3031",
"+  c #4D2626",
"@  c #523637",
"#  c #743A3A",
"$  c #574F0F",
"%  c #57500F",
"&  c #58500F",
"*  c #58510F",
"=  c #585110",
"-  c #655C11",
";  c #655C12",
":  c #717B3B",
">  c #717C3B",
",  c #727C3B",
"<  c #252F6A",
"1  c #293577",
"2  c #2B367B",
"3  c #2B377B",
"4  c #564547",
"5  c #765E61",
"6  c #990036",
"7  c #A62E24",
"8  c #D40000",
"9  c #D50000",
"0  c #DA1413",
"q  c #DB1413",
"w  c #DE1E1C",
"e  c #E03408",
"r  c #E43935",
"t  c #E53935",
"y  c #E43A35",
"u  c #E53A35",
"i  c #E43A36",
"p  c #E53A36",
"a  c #926D1B",
"s  c #956E1B",
"d  c #926D1C",
"f  c #956E1C",
"g  c #817616",
"h  c #817716",
"j  c #817717",
"k  c #827616",
"l  c #827716",
"z  c #827617",
"x  c #827717",
"c  c #817816",
"v  c #827817",
"b  c #827718",
"n  c #837919",
"m  c #B65E25",
"M  c #B65F25",
"N  c #866826",
"B  c #B66630",
"V  c #A17634",
"C  c #A27634",
"Z  c #E34502",
"A  c #E44502",
"S  c #CF542B",
"D  c #CF542C",
"F  c #C05A28",
"G  c #F34336",
"H  c #F44335",
"J  c #F44336",
"K  c #ED1A47",
"L  c #F40057",
"P  c #F50057",
"I  c #F42345",
"U  c #8E4848",
"Y  c #8F4848",
"T  c #B05959",
"R  c #B15959",
"E  c #B77448",
"W  c #B77548",
"Q  c #81686B",
"!  c #976466",
"~  c #CC5A5E",
"^  c #EA686B",
"/  c #E47373",
"(  c #E57373",
")  c #6C8236",
"_  c #978D3D",
"`  c #978E3D",
"'  c #F69316",
"]  c #F69317",
"[  c #FEC006",
"{  c #FEC107",
"}  c #FFC107",
"|  c #FEEB3A",
" . c #FEEA3B",
".. c #FEEB3B",
"X. c #FFEB3B",
"o. c #BFA172",
"O. c #FFD65B",
"+. c #235592",
"@. c #3F50B4",
"#. c #3E51B4",
"$. c #3F51B4",
"%. c #3E50B5",
"&. c #3F50B5",
"*. c #3F51B5",
"=. c #3562B9",
"-. c #3462BA",
";. c #3463BA",
":. c #2A73BF",
">. c #2A74BF",
",. c #545D81",
"<. c #3567C9",
"1. c #1597C9",
"2. c #00BCD3",
"3. c #00BBD4",
"4. c #00BCD4",
"5. c #2095F3",
"6. c #2096F3",
"7. c #2196F3",
"8. c #74BDF7",
"9. c #56D2E2",
"0. c #9F8083",
"q. c #C49FA2",
"w. c #C59FA2",
"e. c #F1A0A3",
"r. c #F2A0A3",
"t. c #F2A1A3",
"y. c #F2A3A5",
"u. c #F3A3A5",
"i. c #F2A3A6",
"p. c #FECDD1",
"a. c #FFCDD1",
"s. c #FECDD2",
"d. c #FFCDD2",
"f. c #FEFEFE",
"g. c white",
"h. c None",
/* pixels */
"h.h.h.h.h.h.h.h.h.h.h.h.h.h.h.h.h.h.h.h.h.h.h.h.h.h.h.h.h.h.h.h.h.h.h.h.h.h.9 9 9 9 9 9 9 9 9 9 9 9 9 9 9 9 9 9 9 9 9 9 9 h.h.h.h.h.h.h.h.h.h.h.h.h.h.h.h.h.h.h.",
"h.h.h.h.h.h.h.h.h.h.h.h.h.h.h.h.h.h.h.h.h.h.h.h.h.h.h.h.h.h.h.h.h.h.h.h.h.h.8 8 8 8 8 8 9 8 9 9 8 9 9 8 9 8 9 9 8 9 9 8 8 h.h.h.h.h.h.h.h.h.h.h.h.h.h.h.h.h.h.h.",
"h.h.h.h.h.h.h.h.h.h.h.h.h.h.h.h.h.h.h.h.h.h.h.h.h.h.h.h.h.h.h.h.h.h.h.h.h.h.8 8 8 8 8 9 8 9 8 8 9 8 8 9 8 9 8 8 9 8 8 8 8 h.h.h.h.h.h.h.h.h.h.h.h.h.h.h.h.h.h.h.",
"h.h.h.h.h.h.h.h.h.h.h.h.h.h.h.h.h.h.h.h.h.h.h.h.h.h.h.h.h.h.h.h.h.h.h.h.h.h.8 8 8 8 8 9 8 9 8 8 9 8 8 9 8 9 8 8 9 8 8 8 8 h.h.h.h.h.h.h.h.h.h.h.h.h.h.h.h.h.h.h.",
"h.h.h.h.h.h.h.h.h.h.h.h.h.h.h.h.h.h.h.h.h.h.h.h.h.h.h.h.h.h.h.h.h.h.h.h.h.h.0 0 0 0 0 0 0 0 0 0 q 0 0 q Z A Z Z e 0 0 0 0 h.h.h.h.h.h.h.h.h.h.h.h.h.h.h.h.h.h.h.",
"h.h.h.h.h.h.h.h.h.h.h.h.h.h.h.h.h.h.h.h.h.h.h.h.h.h.h.h.8 8 8 8 8 8 8 8 8 8 r r r r r t r t r r t r r t { } { { ] r r r r 8 8 9 8 9 h.h.h.h.h.h.h.h.h.h.h.h.h.h.",
"h.h.h.h.h.h.h.h.h.h.h.h.h.h.h.h.h.h.h.h.h.h.h.h.h.h.h.h.8 8 8 8 8 8 8 8 8 8 r r r r r t r t r r t r r t { } { { ] r r r r 8 8 9 8 9 h.h.h.h.h.h.h.h.h.h.h.h.h.h.",
"h.h.h.h.h.h.h.h.h.h.h.h.h.h.h.h.h.h.h.h.h.h.h.h.h.h.h.h.8 8 8 8 8 8 8 8 8 8 r r r r r r r r t t r t t r } [ } } ' t r r r 8 9 8 8 8 h.h.h.h.h.h.h.h.h.h.h.h.h.h.",
"h.h.h.h.h.h.h.h.h.h.h.h.h.h.h.h.h.h.h.h.h.h.h.h.h.h.h.h.8 8 8 8 8 8 8 8 8 8 r r r r r t r t r y u y y u { } { { ] i i p p 8 8 9 8 9 h.h.h.h.h.h.h.h.h.h.h.h.h.h.",
"h.h.h.h.h.h.h.h.h.h.h.h.h.h.h.h.h.h.h.h.h.h.h.h.8 8 8 8 w r r r r r r r r r P P L P P P L P L | X.| | X.{ } { { O.f.f.g.g.8 8 9 8 9 h.h.h.h.h.h.h.h.h.h.h.h.h.h.",
"h.h.h.h.h.h.h.h.h.h.h.h.h.h.h.h.h.h.h.h.h.h.h.h.8 8 8 8 w r r r r r r r r r P P L P P P L P L | X.| | X.{ } { { O.f.f.g.g.8 8 9 8 9 h.h.h.h.h.h.h.h.h.h.h.h.h.h.",
"h.h.h.h.h.h.h.h.h.h.h.h.h.h.h.h.h.h.h.h.h.h.h.h.8 8 8 8 w r r r r r r r r r P P L P P P L P L | X.| | X.{ } { { O.f.f.g.g.8 8 9 8 9 h.h.h.h.h.h.h.h.h.h.h.h.h.h.",
"h.h.h.h.h.h.h.h.h.h.h.h.h.h.h.h.h.h.h.h.h.h.h.h.8 8 8 8 w r r r r r r r r r P P L P L P L P L | X.| | X.{ } { { O.f.f.g.g.8 8 9 8 9 h.h.h.h.h.h.h.h.h.h.h.h.h.h.",
"h.h.h.h.h.h.h.h.h.h.h.h.h.h.h.h.h.h.h.8 8 8 8 8 t r r r K L L L P L L L P L L L L L 6                                                         h.h.h.h.h.h.h.h.h.",
"h.h.h.h.h.h.h.h.h.h.h.h.h.h.h.h.h.h.h.8 8 8 8 8 r r r r K L L L L L L L L L L L L L 6                                                         h.h.h.h.h.h.h.h.h.",
"h.h.h.h.h.h.h.h.h.h.h.h.h.h.h.h.h.h.h.8 8 8 8 8 r r r r K P P P L P P P L P P P L P 6                                                         h.h.h.h.h.h.h.h.h.",
"h.h.h.h.h.h.h.h.h.h.h.h.h.h.h.h.h.h.h.8 8 8 8 8 r r r r K P P P L P P P L P P P L P 6                                                         h.h.h.h.h.h.h.h.h.",
"h.h.h.h.h.h.h.h.h.h.h.h.h.h.8 8 8 8 8 P L P P P L P P P L P P P L                                                                                     h.h.h.h.h.",
"h.h.h.h.h.h.h.h.h.h.h.h.h.h.8 8 8 8 8 P L P P P L P P P L P P P L                                                                                     h.h.h.h.h.",
"h.h.h.h.h.h.h.h.h.h.h.h.h.h.8 8 8 8 8 L L L L L L L L L L L L L L                                                                                     h.h.h.h.h.",
"h.h.h.h.h.h.h.h.h.h.h.h.h.h.8 8 8 8 8 P L P P P L P P P L P P P L                                                                                     h.h.h.h.h.",
"h.h.h.h.h.h.h.h.h.h.h.h.h.h.8 8 8 8 8 p.d.p.p.p.                            / / / / Y         ( / ( ( /         + ( / / / h.h.h.h.h.h.h.h.h.h.h.h.h.h.h.h.h.h.h.",
"h.h.h.h.h.h.h.h.h.h.h.h.h.h.8 8 8 8 8 p.a.p.p.p.                            / / / / U         ( / ( ( /         + ( ( / / h.h.h.h.h.h.h.h.h.h.h.h.h.h.h.h.h.h.h.",
"h.h.h.h.h.h.h.h.h.h.h.h.h.h.8 8 8 8 8 p.a.p.p.p.                            / / / / U         ( / ( ( /         + ( ( / / h.h.h.h.h.h.h.h.h.h.h.h.h.h.h.h.h.h.h.",
"h.h.h.h.h.h.h.h.h.h.h.h.h.h.8 8 8 8 8 p.d.p.p.p.                            / / / / Y         ( / ( ( /         + ( / / / h.h.h.h.h.h.h.h.h.h.h.h.h.h.h.h.h.h.h.",
"h.h.h.h.h.h.h.h.h.h.        ~ ^ ^ ^ ^ o.o.o.o.o.Q Q Q Q O         # # # # # t.t.r.t.!         e.t.e.e.t.        @ e.r.r.r.c g c g c c g c g g h.h.h.h.h.h.h.h.h.",
"h.h.h.h.h.h.h.h.h.h.        w.p.s.p.p.l l l l l d.s.p.p.5         / / / / / p.p.s.p.0.        d.s.d.d.s.        4 d.d.s.s.g x g g g g x g x x h.h.h.h.h.h.h.h.h.",
"h.h.h.h.h.h.h.h.h.h.        q.p.p.p.p.l l l l l d.p.p.p.5         / / / ( / p.p.p.p.0.        d.s.d.d.s.        4 d.d.s.s.x x g x g g x g x x h.h.h.h.h.h.h.h.h.",
"h.h.h.h.h.h.h.h.h.h.        q.p.p.p.p.l l l l l d.p.p.p.5         / / / ( / p.p.p.p.0.        d.s.d.d.s.        4 d.d.s.s.x x g x g g x g x x h.h.h.h.h.h.h.h.h.",
"h.h.h.h.h.h.h.h.h.h.        w.p.p.p.p.l l l l l d.p.p.p.5         / / / ( / p.p.s.p.0.        d.s.d.d.s.        4 d.d.s.s.g x g x g g x g x x h.h.h.h.h.h.h.h.h.",
"h.h.h.h.h.h.h.h.h.h.        R ( ( ( ( x g x x x s.d.d.d.5                   d.d.d.d.d.d.s.d.s.s.d.s.s.d.s.d.s.s.d.s.s.d.d.s.s.d.s.d.d.s.d.s.s.x g x g h.h.h.h.h.",
"h.h.h.h.h.h.h.h.h.h.        R / / / / l l l l l s.s.p.p.5                   p.p.s.p.s.s.s.s.d.d.s.d.d.s.d.s.d.s.s.d.d.s.s.d.d.s.s.s.s.d.s.d.d.g g g g h.h.h.h.h.",
"h.h.h.h.h.h.h.h.h.h.        T / / / / l l l l l d.p.p.p.5                   p.p.p.p.p.s.d.s.d.d.s.d.d.s.d.s.d.d.s.d.d.s.s.d.d.s.d.s.s.d.s.d.d.g x g x h.h.h.h.h.",
"h.h.h.h.h.h.h.h.h.h.        R ( ( ( ( x l x x x s.d.d.d.5                   d.d.d.d.d.d.s.d.s.s.d.s.s.d.s.d.s.s.d.s.s.d.d.s.s.d.s.d.d.s.d.s.s.x g x g h.h.h.h.h.",
"h.h.h.h.h.h.h.h.h.h.                  / / / / / d.p.p.p.5         p.p.p.d.p.p.p.s.p.0.        ( / ( ( / ( / ( ( / ( / / / / ( / ( / / ( / ( ( g x g x h.h.h.h.h.",
"h.h.h.h.h.h.h.h.h.h.                  ( / ( ( ( s.d.d.d.5         d.d.d.s.d.d.d.d.d.0.        / ( / / ( / ( / / ( / / / / / / ( / ( ( / ( / / x g x g h.h.h.h.h.",
"h.h.h.h.h.h.h.h.h.h.                  ( / ( ( ( s.d.d.d.5         d.d.d.s.d.d.d.s.d.0.        / ( / / ( / / / / / / / / / / / / / / / / ( / / j g j g h.h.h.h.h.",
"h.h.h.h.h.h.h.h.h.h.                  / / / / / d.p.p.p.5         p.p.p.d.p.p.p.p.p.0.        ( / ( ( / ( / ( ( / ( ( / / ( ( / ( / / ( / ( ( g x g x h.h.h.h.h.",
"h.h.h.h.h.h.h.h.h.h.h.h.h.h.                    / ( ( ( y.d.d.d.s.d.d.d.s.d.                                                                  h.h.h.h.h.h.h.h.h.",
"h.h.h.h.h.h.h.h.h.h.h.h.h.h.                    / ( ( ( i.d.d.d.s.d.d.d.s.d.                                                                  h.h.h.h.h.h.h.h.h.",
"h.h.h.h.h.h.h.h.h.h.h.h.h.h.                    ( / / / u.p.p.p.d.p.p.p.d.p.                                                                  h.h.h.h.h.h.h.h.h.",
"h.h.h.h.h.h.h.h.h.h.h.h.h.h.                    ( / / / u.p.p.p.d.p.p.p.d.p.                                                                  h.h.h.h.h.h.h.h.h.",
"h.h.h.h.h.h.h.h.h.h.h.h.h.h.h.h.h.h.h.          x l l l E / / / ( / / / ( / / / / / Y                                               h.h.h.h.h.h.h.h.h.h.h.h.h.h.",
"h.h.h.h.h.h.h.h.h.h.h.h.h.h.h.h.h.h.h.          l l x x E ( ( ( / ( ( ( / ( ( ( / ( Y                                               h.h.h.h.h.h.h.h.h.h.h.h.h.h.",
"h.h.h.h.h.h.h.h.h.h.h.h.h.h.h.h.h.h.h.          g x x x W ( ( ( / ( ( ( / ( ( ( / ( Y                                               h.h.h.h.h.h.h.h.h.h.h.h.h.h.",
"h.h.h.h.h.h.h.h.h.h.h.h.h.h.h.h.h.h.h.          x l l l E / / / ( / / / ( / / / / / Y                                               h.h.h.h.h.h.h.h.h.h.h.h.h.h.",
"h.k l k l l l l b l l l b l l l l l l 7 7 7 7 7 D S S S B V V V C V V V C V V V V V N & * & = = & = = & 3 2 3 3 < h.h.h.h.h.h.h.h.h.h.h.h.h.h.h.h.h.h.h.h.h.h.h.",
"x z l z l l l l x l l l x l l l l l l H H H H H J H H H M l l l x l l l x l l l l l l g x g x x g x x g *.&.*.*.%.h.h.h.h.h.h.h.h.h.h.h.h.h.h.h.h.h.h.h.h.h.h.h.",
"x x x x x l l l h l l l l l l l l l l H J H H H J J H H m l l l l l l l l l l l l l l g g g g g g g g g &.&.&.&.%.h.h.h.h.h.h.h.h.h.h.h.h.h.h.h.h.h.h.h.h.h.h.h.",
"v x x x x x x x g x x x g x x x x x x J G J J J G J J J m x x x g x x x g x x x l x x x g x g g x g g x &.$.&.&.%.h.h.h.h.h.h.h.h.h.h.h.h.h.h.h.h.h.h.h.h.h.h.h.",
"x x x x l _ ` ` _ ` ` ` _ ` ` ` _ ` ` H J H H H J H H H F s s s f a a a d a , , , , , > > : , ) ) ) ) ) -.-.;.-.=.h.h.h.h.h.h.h.h.h.h.h.h.h.h.h.h.h.h.h.h.h.h.h.",
"x z l z l f.f.f.g.f.f.f.g.f.f.f.f.f.f.H H H H H J H H H J H H H J r r r t r 7.7.7.7.7.5.7.5.7.3.4.3.3.4.3.4.3.3.1.*.*.&.&.h.h.h.h.h.h.h.h.h.h.h.h.h.h.h.h.h.h.h.",
"x z l z l f.f.f.g.f.f.f.g.f.f.f.f.f.f.H H H H H J H H H J H H H J r r r t r 7.7.7.7.7.5.7.5.7.3.4.3.3.4.3.4.3.3.1.*.*.&.&.h.h.h.h.h.h.h.h.h.h.h.h.h.h.h.h.h.h.h.",
"x x x x x f.f.f.g.f.f.f.g.f.f.f.f.f.f.H J H H H J J H H J H H H J r r r r r 7.7.7.7.7.5.5.5.6.3.4.3.3.4.3.4.3.4.1.*.&.&.&.h.h.h.h.h.h.h.h.h.h.h.h.h.h.h.h.h.h.h.",
"v x x x x g.g.g.f.g.g.g.f.g.g.g.g.g.g.J G J J J G J J J G J J J G t t t r t 7.7.5.7.7.7.5.7.5.4.2.4.4.2.4.2.4.4.1.&.&.@.@.h.h.h.h.h.h.h.h.h.h.h.h.h.h.h.h.h.h.h.",
"h.h.h.h.h.l l l x n f.f.g.f.f.f.f.f.f.H J H H H J H H H J H H H J 7.7.7.7.7.7.7.7.7.8.f.g.f.g.g.f.g.g.f.3.4.3.4.9.g.g.f.f.&.*.&.&.&.                  h.h.h.h.h.",
"h.h.h.h.h.l l l x n f.f.g.f.f.f.f.f.f.H J H H H J H H H J H H H J 7.7.7.7.7.7.7.7.7.8.f.g.f.g.g.f.g.g.f.3.4.3.3.9.g.g.f.f.&.*.&.*.&.                  h.h.h.h.h.",
"h.h.h.h.h.x x x g n g.g.f.g.g.g.g.g.g.J J J J J G J J J G J J J G 7.7.7.5.7.7.7.7.7.8.g.f.g.f.f.g.f.f.g.4.2.4.4.9.f.f.g.g.&.&.$.&.$.                  h.h.h.h.h.",
"h.h.h.h.h.x x x g n g.g.f.g.g.g.g.g.g.J J J J J G J J J G J J J G 7.7.7.7.7.7.7.7.7.8.g.f.g.f.f.g.f.f.g.4.2.4.4.9.f.f.g.g.&.&.&.&.$.                  h.h.h.h.h.",
"h.h.h.h.h.h.h.h.h.h.x x g x x x x x x P P P P P P P P P I J J J G 7.7.7.5.7.7.7.6.7.8.g.f.g.f.f.g.f.f.g.4.2.4.4.9.f.f.g.g.          X. .X. . .                  ",
"h.h.h.h.h.h.h.h.h.h.l l x l l l l l l L P L L L P P L L I H H H J 7.7.7.7.7.7.7.7.7.8.f.g.f.g.g.f.g.g.f.4.4.3.4.9.g.g.f.f.           .X. .X.X.                  ",
"h.h.h.h.h.h.h.h.h.h.l l x l l l l l l L P L L L P L L L I H H H J 7.7.7.7.7.7.7.7.7.8.f.g.f.g.g.f.g.g.f.3.4.3.3.9.g.g.f.f.           .X. .X.X.                  ",
"h.h.h.h.h.h.h.h.h.h.x x g x x x x x x P P P P P P P P P I J J J G 7.7.7.5.7.7.7.7.7.8.g.f.g.f.f.g.f.f.g.4.2.4.4.9.f.f.g.g.          X. .X. . .                  ",
"h.h.h.h.h.h.h.h.h.h.        ; x x x x x l x x x 5.7.7.7.5.7.7.7.5.7.7.7.5.7.7.7.7.7.7.7.5.7.5.5.7.5.5.7.4.2.4.4.1.&.&.&.&.          x g x g g                   ",
"h.h.h.h.h.h.h.h.h.h.        - l l l l l l l l l 7.7.7.7.7.7.7.7.7.7.7.7.7.7.7.7.7.7.7.5.7.5.7.7.5.7.7.5.3.4.3.3.1.*.&.&.&.          g x g x x                   ",
"h.h.h.h.h.h.h.h.h.h.        - l l l l l l l l l 7.7.7.7.7.7.7.7.7.7.7.7.7.7.7.7.7.7.7.5.7.5.7.7.5.7.7.5.3.4.3.3.1.*.*.&.&.          g x g x x                   ",
"h.h.h.h.h.h.h.h.h.h.        - l l l l l l l l l 7.7.7.7.7.7.7.7.7.7.7.7.7.7.7.7.7.7.7.5.7.5.7.7.5.7.7.5.3.4.3.3.1.*.*.&.&.          g x g x x                   ",
"h.h.h.h.h.h.h.h.h.h.        - x x x x ,.,.,.,.,.<.<.<.<.<.<.<.<.<.7.7.7.6.7.7.7.7.7.7.7.5.7.5.5.7.5.5.7.>.:.>.>.+.o o o o $ % $ % $ X . X . .         h.h.h.h.h.",
"h.h.h.h.h.h.h.h.h.h.        ; x x x x *.*.*.*.*.&.*.*.*.&.*.*.*.&.7.7.7.5.7.7.7.7.7.7.7.5.7.5.5.7.5.5.7.&.$.&.&.1         g g x g x                   h.h.h.h.h.",
"h.h.h.h.h.h.h.h.h.h.        - l l l l #.*.#.#.#.*.#.#.#.*.#.#.#.*.7.7.7.7.7.7.7.7.7.7.5.7.5.7.7.5.7.7.5.*.&.*.*.1         j x g x g                   h.h.h.h.h.",
"h.h.h.h.h.h.h.h.h.h.        - l l l l #.$.#.#.#.*.#.#.#.*.#.#.#.*.7.7.7.7.7.7.7.7.7.7.5.7.5.7.7.5.7.7.5.*.&.*.*.1         x x g x g                   h.h.h.h.h.",
"h.h.h.h.h.h.h.h.h.h.        - l l l l #.$.#.#.#.*.#.#.#.*.#.#.#.*.7.7.7.7.7.7.7.7.7.7.5.7.5.7.7.5.7.7.5.*.&.*.*.1         x x g x g                   h.h.h.h.h.",
"h.h.h.h.h.h.h.h.h.h.        - x x x x X...X.X.X.        h.h.h.h.h.*.*.*.*.*.*.*.*.*.*.&.&.@.&.&.$.&.&.$.h.h.h.h.h.        g g j g x                   h.h.h.h.h.",
"h.h.h.h.h.h.h.h.h.h.        ; x x x x X...X.X.X.        h.h.h.h.h.*.*.*.&.*.*.*.*.*.*.$.&.$.&.&.$.&.&.$.h.h.h.h.h.        g g x g x                   h.h.h.h.h.",
"h.h.h.h.h.h.h.h.h.h.        - l l l l | X.| | |         h.h.h.h.h.#.#.#.*.#.#.#.*.#.$.&.*.&.*.*.&.*.*.&.h.h.h.h.h.        j x g x g                   h.h.h.h.h.",
"h.h.h.h.h.h.h.h.h.h.        - l l l l | X.| | |         h.h.h.h.h.#.#.#.*.#.#.#.*.#.*.&.*.&.*.*.&.*.*.&.h.h.h.h.h.        g x g x g                   h.h.h.h.h.",
"h.h.h.h.h.h.h.h.h.h.h.h.h.h.                    h.h.h.h.h.h.h.h.h.h.h.h.h.h.h.h.h.h.h.h.h.h.h.h.h.h.h.h.h.h.h.h.h.h.h.h.h.                    h.h.h.h.h.h.h.h.h.",
"h.h.h.h.h.h.h.h.h.h.h.h.h.h.                    h.h.h.h.h.h.h.h.h.h.h.h.h.h.h.h.h.h.h.h.h.h.h.h.h.h.h.h.h.h.h.h.h.h.h.h.h.                    h.h.h.h.h.h.h.h.h.",
"h.h.h.h.h.h.h.h.h.h.h.h.h.h.                    h.h.h.h.h.h.h.h.h.h.h.h.h.h.h.h.h.h.h.h.h.h.h.h.h.h.h.h.h.h.h.h.h.h.h.h.h.                    h.h.h.h.h.h.h.h.h.",
"h.h.h.h.h.h.h.h.h.h.h.h.h.h.                    h.h.h.h.h.h.h.h.h.h.h.h.h.h.h.h.h.h.h.h.h.h.h.h.h.h.h.h.h.h.h.h.h.h.h.h.h.                    h.h.h.h.h.h.h.h.h."
};
