/* XPM */
static char *result[] = {
/* columns rows colors chars-per-pixel */
"80 80 245 2 ",
"   c black",
".  c #010101",
"X  c #020202",
"o  c gray1",
"O  c #060202",
"+  c #040404",
"@  c gray2",
"#  c #0F0404",
"$  c gray6",
"%  c #120606",
"&  c #10120F",
"*  c #111111",
"=  c gray7",
"-  c #131313",
";  c #121410",
":  c #181818",
">  c #191919",
",  c #1B1B1B",
"<  c gray11",
"1  c #1E1E1E",
"2  c gray12",
"3  c #2E0000",
"4  c #28000B",
"5  c #2C0A0A",
"6  c #320000",
"7  c #330000",
"8  c #320101",
"9  c #350000",
"0  c #340101",
"q  c #360000",
"w  c #360300",
"e  c #340202",
"r  c #3B0404",
"t  c #3E0505",
"y  c #330D0D",
"u  c #3E120F",
"i  c #390C12",
"p  c #34121C",
"a  c #202018",
"s  c #272518",
"d  c #000025",
"f  c #04002F",
"g  c #161A28",
"h  c #000033",
"j  c #003333",
"k  c gray13",
"l  c #232323",
"z  c #252525",
"x  c gray15",
"c  c #272727",
"v  c #272C23",
"b  c gray16",
"n  c gray18",
"m  c #2D3228",
"M  c #323226",
"N  c #343427",
"B  c #343B2F",
"V  c #352539",
"C  c gray19",
"Z  c #313131",
"A  c #333232",
"S  c gray20",
"D  c #343434",
"F  c #353535",
"G  c #353537",
"H  c #373737",
"J  c #353B30",
"K  c #353C30",
"L  c #363C30",
"P  c #363D31",
"I  c #333A3A",
"U  c gray22",
"Y  c #393939",
"T  c #3A3B39",
"R  c #3E3E3E",
"E  c #400808",
"W  c #520000",
"Q  c #431000",
"!  c #431515",
"~  c #561819",
"^  c #561B1B",
"/  c #581C1C",
"(  c #660000",
")  c #6C0000",
"_  c #6D0A02",
"`  c #701E1E",
"'  c #592600",
"]  c #5E2B0B",
"[  c #4E211F",
"{  c #663200",
"}  c #663300",
"|  c #673400",
" . c #693600",
".. c #6A3606",
"X. c #642727",
"o. c #6C2626",
"O. c #702424",
"+. c #792323",
"@. c #792727",
"#. c #7E3E3E",
"$. c #3C5B1E",
"%. c #3D5C1E",
"&. c #104333",
"*. c #1A4D33",
"=. c #3B4235",
"-. c #764300",
";. c #784500",
":. c #734D00",
">. c #7F4C00",
",. c #774416",
"<. c #40413E",
"1. c #121644",
"2. c #242B47",
"3. c #252C48",
"4. c #293158",
"5. c #2B335A",
"6. c #323C61",
"7. c #39396C",
"8. c #0D4040",
"9. c #364064",
"0. c #3B446A",
"q. c #336666",
"w. c #464646",
"e. c gray28",
"r. c #494949",
"t. c #485041",
"y. c #4B5443",
"u. c #535D4B",
"i. c #555A4F",
"p. c #505050",
"a. c #515151",
"s. c gray32",
"d. c gray33",
"f. c #565656",
"g. c gray35",
"h. c #5D6753",
"j. c #616149",
"k. c #606655",
"l. c #69695B",
"z. c #65705B",
"x. c #606060",
"c. c #626262",
"v. c gray39",
"b. c #646464",
"n. c gray40",
"m. c #676767",
"M. c #686868",
"N. c #6F6F6F",
"B. c #7F7F60",
"V. c #727272",
"C. c #747474",
"Z. c #840000",
"A. c #950000",
"S. c #960000",
"D. c #980000",
"F. c #990000",
"G. c #872D2D",
"H. c #8F2E2E",
"J. c #8F2F2F",
"K. c #912F2F",
"L. c #963232",
"P. c #993333",
"I. c #CC3300",
"U. c #C53333",
"Y. c #CC3333",
"T. c #8C5E03",
"R. c #915E00",
"E. c #996600",
"W. c #A16E08",
"Q. c #A77407",
"!. c #A97610",
"~. c #AA7711",
"^. c #9A6722",
"/. c #C66604",
"(. c #C16805",
"). c #C86B04",
"_. c #9B4D4D",
"`. c #A44848",
"'. c #B75151",
"]. c #B85252",
"[. c #996162",
"{. c #9C6465",
"}. c #C45E5E",
"|. c #CC6666",
" X c #5F9233",
".X c #659833",
"XX c #669933",
"oX c #638542",
"OX c #7E8B71",
"+X c #BC8923",
"@X c #CC9900",
"#X c #CD9A01",
"$X c #E8B500",
"%X c #CC9933",
"&X c #FFCC00",
"*X c yellow",
"=X c #FFCC33",
"-X c #FFFF33",
";X c #808061",
":X c #859477",
">X c #869477",
",X c #879478",
"<X c #B39D6E",
"1X c #99CC66",
"2X c #000099",
"3X c #003399",
"4X c #00389E",
"5X c #7B7B85",
"6X c #666699",
"7X c #0066CC",
"8X c #808080",
"9X c #909F80",
"0X c #919F81",
"qX c #909090",
"wX c #959595",
"eX c #989898",
"rX c gray60",
"tX c gray62",
"yX c #92A082",
"uX c #93A283",
"iX c #9FAD8E",
"pX c #B2AC87",
"aX c #8C8CAC",
"sX c #A2A2A2",
"dX c #AAAAAA",
"fX c #A6A6B9",
"gX c gray72",
"hX c #D18D98",
"jX c #DFC58F",
"kX c #C2C292",
"lX c #F3D596",
"zX c #CBD5B4",
"xX c gray78",
"cX c #CACACA",
"vX c #CBCBCB",
"bX c gray80",
"nX c #ECE7C1",
"mX c #FBE9C9",
"MX c #FFFFC1",
"NX c #FFFFCC",
"BX c #FDECD1",
"VX c #FFF2DF",
"CX c #EEEEEE",
"ZX c white",
"AX c None",
/* pixels */
"AXAXAXAXAXAXAXAXAXAXAXAXAX9 9 9 9 9 9 AXAXAXAXAXAXAXAXAXAXAXAXAXAXAXAXAXAXAXAXAXAXAXAXAXAXAXAXAXAXAXAXAXAXAXAXAXAXAXAXAXAXAXAXAXAXAXAXAXAXAXAXAXAXAXAXAXAXAXAXAX",
"AXAXAXAXAXAXAXAXAXAXAXAX9 F.F.F.F.F.F.F.W 9 AXAXAXAXAXAXAXAXAXAXAXAXAXAXAXAXAXAXAXAXAXAXAXAXAXAXAXAXAXAXAXAXAXAXAXAXAXAXAXAXAXAXAXAXAXAXAXAXAXAXAXAXAXAXAXAXAXAX",
"AXAXAXAXAXAXAX    lXlXBX  S.F.9 F.F.F.F.F.I.9 AXAXAXAXAXAXAXAXAXAXAXAXAXAXAXAXAXAXAXAXAXAXAXAXAXAXAXAXAXAXAXAXAXAXAXAXAXAXAXAXAXAXAXAXAXAXAXAXAXAXAXAXAXAXAXAXAX",
"AXAXAXAXAXAX  lXVXVXZXZXZXZXA.F.9 n.n.n.n.F.I.( AXAXAXAXAXAXAXAXAXAXAXAXAXAXAXAXAXAXAXAXAXAXAXAXAXAXAXAXAXAXAXAXAXAXAXAXAXAXAXAXAXAXAXAXAXAXAXAXAXAXAXAXAXAXAXAX",
"AXAXAXAXAXAX<XVXVXZXZXZXZXZX  ) 9 ZXZXZXZXZXn.I.( AXAXAXAXAXAXAXAXAXAXAXAXAXAXAXAXAXAXAXAXAXAXAXAXAXAXAXAXAXAXAXAXAXAXAXAXAXAXAXAXAXAXAXAXAXAXAXAXAXAXAXAXAXAXAX",
"AXAXAXAXAX  lXVXZXVXVXVXVXmXlXZ.9 ZXZXZXS ZXZXn.I.( AXAXAXAXAXAXAXAXAXAXAXAXAXAXAXAXAXAXAXAXAXAXAXAXAXAXAXAXAXAXAXAXAXAXAXAXAXAXAXAXAXAXAXAXAXAXAXAXAXAXAXAXAXAX",
"AXAXAXAXAX  lXVXVXVXlXlXlXjXn.  9 ZXS NXNXNXS ZXn.I.( ( AXAXAXAXAXAXAXAXAXAXAXAXAXAXAXAXAXAXAXAXAXAXAXAXAXAXAXAXAXAXAXAXAXAXAXAXAXAXAXAXAXAXAXAXAXAXAXAXAXAXAXAX",
"AXAXAXAXAX  lXVXlXlXlXlXn.n.n.  9 S NXNXNXNXNXS N.I.I.I.I.( AXAXAXAXAXAXAXAXAXAXAXAXAXAXAXAXAXAXAXAXAXAXAXAXAXAXAXAXAXAXAXAXAXAXAXAXAXAXAXAXAXAXAXAXAXAXAXAXAXAX",
"AXAXAXAXAXAXlXlXlX  s.n.n.  n.n.ZXS NXNXNX  NXS ZXn.I.I.( _ =X7 7 7 AXAXAXAXAXAXAXAXAXAXAXAXAXAXAXAXAXAXAXAXAXAXAXAXAXAXAXAXAXAXAXAXAXAXAXAXAXAXAXAXAXAXAXAXAXAX",
"AXAXAXAXAXAX  lX    n.n.n.n.+ n.  S NXNXNXNXl.ZXn.I.( ( ( S S S E.E.%X%X7 7 AXAXAXAXAXAXAXAXAXAXAXAXAXAXAXAXAXAXAXAXAXAXAXAXAXAXAXAXAXAXAXAXAXAXAXAXAXAXAXAXAXAX",
"AXAXAXAXAXAXAX    AX  n.n.n.n.    ZXS S S S ZXn.F.( S S S S S S S S S S 1 E.%X%X7 7 AXAXAXAXAXAXAXAXAXAXAXAXAXAXAXAXAXAXAXAXAXAXAXAXAXAXAXAXAXAXAXAXAXAXAXAXAXAX",
"AXAXAXAXAXAXAXAX  AXAX  n.n.      ZXrXrXZXrXn.F.F.( S S S S S S S S S S S S S 1 E.%X,.7 AXAXAXAXAXAXAXAXAXAXAXAXAXAXAXAXAXAXAXAXAXAXAXAXAXAXAXAXAXAXAXAXAXAXAXAX",
"AXAXAXAXAXAXAXAXAX7 =X@Xn.      ZXZXrXCXZXZXn.F.F.( 9   S S S S S S S S S S S S S k T.%X%X7 AXAXAXAXAXAXAXAXAXAXAXAXAXAXAXAXAXAXAXAXAXAXAXAXAXAXAXAXAXAXAXAXAXAX",
"AXAXAXAXAXAXAXAXAX7 =Xn.S S n.n.ZXZXZXZXbXn.F.F.D.I.I.I.9 S S S     S S S S S S S S S 1 E.%X7 AXAXAXAXAXAXAXAXAXAXAXAXAXAXAXAXAXAXAXAXAXAXAXAXAXAXAXAXAXAXAXAXAX",
"AXAXAXAXAXAXAXAXAX7 =Xn.S S S S S 9 F.F.F.F.F.( I.I.I.I.I.9     1   S S S S S S S S S 1 1 1 E.%X7 7 AXAXAXAXAXAXAXAXAXAXAXAXAXAXAXAXAXAXAXAXAXAXAXAXAXAXAXAXAXAX",
"AXAXAXAXAXAXAXAXAX7 =Xn.S S S S ( I.9 q F.F.I.( I.I.I.I.I.I.9 1   S S S S S S S S S S S 2 n.1 E.%X7 7 AXAXAXAXAXAXAXAXAXAXAXAXAXAXAXAXAXAXAXAXAXAXAXAXAXAXAXAXAX",
"AXAXAXAXAXAXAXAXAX7 =Xn.S S S S S I.9 F.F.F.( I.I.I.I.I.).I.9 1 1   S S S S S S S S S S S S S 1 ~.^.7 } 7 AXAXAXAXAXAXAXAXAXAXAXAXAXAXAXAXAXAXAXAXAXAXAXAXAXAXAX",
"AXAXAXAXAXAXAXAXAX7 =Xn.S S S S S (.&XF.F.F.( I.&XI.I.&X&X&X).5 1 1 @ S S n S S S S S S S S S 1 1 %X7 7 } 7 AXAXAXAXAXAXAXAXAXAXAXAXAXAXAXAXAXAXAXAXAXAXAXAXAXAX",
"AXAXAXAXAXAXAXAXAXAXAX  n.p.S S S S   9 F.F.).&X&X&X&X&X&X&X).).1 1   f.1 S S 1 1 1 1 1 S S S S 1 !.7   7 } XXj AXAXAXAXAXAXAXAXAXAXj AXAXAXAXAXAXAXAXAXAXAXAXAX",
"AXAXAXAXAXAXAXAXAX7 @XS S S S S S S S   9 F.F./.).&X).&X).&X&X).3X2X  S S S 1 1 1 1 1 1 S S S S 1 W.7     1XXXj AXAXAXj AXAXAXAXAXj j AXAXAXAXAXAXAXAXAXAXAXAXAX",
"AXAXAXAXAXAXAXAXAX=XS S S S S S S   7 a.a.  9 9 F.3X3X3X4X7X3X7X7X  n.S S S 1 1 1 1 1 1 1 1 S S 1 %X7 j $.1XXXj AXAXj j j j j AXAXXXXXXX&.AXAXAXAXAXAXAXAXAXAXAX",
"AXAXAXAXAXAXAXAX7 E.S S S S S S S             a.a.  9 9 9 3X3X3X  3X  S S 1 1 1 1 1 1 1 1 1 S S 1 %X7 oX$.1XXXAXAXj AXj XXj AXj j XXXXXXXXXXj AXAXAXAXAXAXAXAXAX",
"AXAXAXAXAXAXAX7 =XS S S 1 1 S S S S S   P.O   a.  a.a.P.|.P.J.  S     S S S 1 1 1 1 1 1 1 1 S z 1 %X7 oXoX1XXXj AXAXAXAXj XXAXAXj XX1XXXXXXXXXXXj AXAXAXAXAXAXAX",
"7 AXAXAXAX7 ] Q.1 S S S 1 S S S S S S S     S   O.  a.  P.  X S S S   S S S 1 1 1 1 1 1 1 S S 1 1 %X7 $.oX1Xj 1Xj AXAXAXAXXXAXAXAXAXj XXXXXX1X1X1XAXAXAXAXAXAXAX",
"7 =X=X7 =X=XE.1 S n.S S S S S S S S S S S S S S       S     S S S x.S S S S S S S 1 S S S S S 1 E.%X$.$.j 1X1X1X1X1XAXAXAXAXj AXAXAXj  Xj 1X1X1X1Xj AXAXAXAXAXAX",
"7 =XE.E.1 1 1 n.S S S S S S S S S S S S S S S S $ r.S S S n.S S S b S S S S S S S S S 1 1 S S 1 E.7 $.j $.1X1X1X1X1X1Xj AXAXAXAXAXj XX1X1Xj 1X1XXXXXj AXAXAXAXAX",
"AXAXAXAXAXAXAXAXAXO.O.O.!             C S S S S D S S S S S S S S S 1 S S S S S S S 1 1 1 S S 1 %X7 j $.%.XX1X1Xj j j j j AXAXAXj XX1X1X1X1Xj XXXXXXj AXAXAXAXAX",
"AXAXAXAXAXAXAXAX7 P.P.O.P.O.O.O.O.O.P.O.O.O.          S S S S S S S S S S S S 1 1 S 1 1 S S 1 1 %X7 $.$.j AXAXAXAXAXAXAXAXAXAXAXAXAX1X1X1X1XXX*..X1XAXAXAXAXAXAX",
"AXAXAXAXAXAXAXAX7 P.P.P.P.P.P.P.P.O.O.P.O.O.O.  O.P.O.O.O.O.      S S S S S S S S S S S S S 1 E.%Xj 7 7 AXAXAXAXAXAXAXAXAXAXAXAXAXAXAX1X1XXXXXXX1Xj AXAXAXAXAXAX",
"AXAXAXAXAXAXAXAXAXK z.7 7 7 r P.P.P.P.P.|.P.L.`.  O.O.O.O.O.O.O.O.P.O.      S S S S S S n.v.1 +X7   } AXAXAXAXAXAXAXAXAXAXAXAXAXAXAXAXj XXXXXXj AXAXAXAXAXAXAXAX",
"AXAXAXAXAXAXAXAXAXAX  B.8X8X;X;Xj.7 7 7 P.|.|.P.P.G.  P.@.O.O.O.O.O.O.O.O.O.P.%     S S S 1 1 E.7   } 7 AXAXAXAXAXAXAXAXAXAXAXAXAXAXAXAXAXAXAXAXAXAXAXAXAXAXAXAX",
"AXAXAXAXAXAXAXAXAXAX  ZXMXMXMXMXMXN uXz.z.z.7 7 0 P.  S       P.P.P.P.O.P.O.7 O.O.7 O.#     k 1 %X7   } 7 AXAXAXAXAXAXAXAXAXAXAXAXAXAXAXAXAXAXAXAXAXAXAXAXAXAXAX",
"AXAXAXAXAXAX} &X&X&XMXMXMXMXMXMXMXkX  uXuXuXuXuXz.z.S S         S     |.P.P.P.7 7 7 7 7 O.7 9.    %X%XE.7 Q -.>.7 AXAXAXAXAXAXAXAXAXAXAXAXAXAXAXAXAXAXAXAXAXAXAX",
"AXAXAXAXAX} &X} } AX  MXMXMXMXMXkXM uXuXzXiXuXuXz.  S S   S             Z   P.7 P.P.P.P.O.7 9.9.9.3 7 7 R.E.E.E.6 AXAXAXAXAXAXAXAXAXAXAXAXAXAXAXAXAXAXAXAXAXAXAX",
"AXAXAXAXAX} *XAXAXK   a MXMXMXkXkX  uXuXuX  u.uXz.  S     S S         S       7 '.|.P.O.O.O.7 9.9.9.9.n.h 2.h h AXAXAXAXAXAXAXAXAXAXAXAXAXAXAXAXAXAXAXAXAXAXAXAX",
"AXAXAXAXAX} &X} AXK z.z.        z.uX9X  uX;   uXz.S S       S S S S S S       P.P.P.7 7 O.O.7 9.9.9.9.n.h h h h h AXAXAXAXAXAXAXAXAXAXAXAXAXAXAXAXAXAXAXAXAXAXAX",
"AXAXAXAXAX{ $X@X} K uXz.z.z.z.m uXuX0XuXuXuXuXuXuXS S S S S S S S           7 P.7 P.O.P.O.O.7 9.9.9.h 9.9.9.9.9.9.9.9.h h AXAXAXAXAXAXAXAXAXAXAXAXAXAXAXAXAXAXAX",
"AXAXAXAXAXAXAX} ;.@X,XuXuX<.S S S S S S uXT S S S S S S         S S         7 7 K.P.7 P.O.7 P.V 9.9.h 6X6X6X6X6X0.9.9.9.9.9.9.h 5.9.h S S AXAXAXAXAXAXAXAXAXAXAX",
"AXAXAXAXAXAXAXAXS bXK S bXbXbXbXbXrXrXrXrXrXrXrXrXrXrXrXrXC.S     S       7 P.P.7 O.O.7 O.7 P.7 9.9.h 7.6X6XG i 7 A 6XS 9.9.9.9.9.9.9.h AXS bXS AXAXAXAXAXAXAXAX",
"AXAXAXAXAXAXAXS bXbXS bXbXbXbXbXbXrXrXU S rXrXrXrXrXrXrXqXn.n.S         z.7 |.P.7 P.L.7 O.O.P.+.rX9.rXh h h 7 Y.Y.S U.7 6X6X9.9.2.9.9.rXS bXZXS AXAXAXAXAXAXAXAX",
"AXAXAXAXAXAXAXc.bXS S S bXrXrXH S S S pXpXK S S S S S S S n.n.n.S   & z.K 7 P.}.E P.|.7 O.O.|.P.7 rXrXh 9.9.9.7 7 Y.6X6X6X6X6X6X2.9.4.bXS ZXS AXAXAXAXAXAXAXAXAX",
"AXAXAXAXAXAXS bXrXbXS bXrXS rX} } } } s s ~ ~ s s K K uXS n.n.n.S P K n.n.7 P.P.O.|.P.7 P.7 P.P.7 h rXh 9.9.9.9.9.9.h h h h 6X6X6X6Xh S S ZXZXS AXAXAXAXAXAXAXAX",
"AXAXAXAXAXAXS rXS bXbXrXS K K K K z.~ ~ ~ ~ ~ [.{.K uXuXS rXn.n.n.n.n.n.n.` P.|.7 P.|.7 O.P.O.P.7 2.9.h 9.9.9.9.9.9.h AXAXAXAXh h h S 9.4.S S h AXAXAXAXAXAXAXAX",
"AXAXAXAXAXAXS AXbXS rXS rX>XuXK K [ ~ } } } ..hX{.K uXuXS rXn.n.n.e.n.n.n.|.P.P.P.P.P.7 P.P.|.P.7 h 9.9.9.9.9.9.9.9.9.h AXAXh h h h 6X6X9.9.9.9.AXAXAXAXAXAXAXAX",
"AXAXAXAXAXAXAXS bXS S rXrXK uXuXuXK K } @X .nXs s K uXuXz.rXS n.n.d.n.n.n.H.7 7 P.P.P.o.7 7 7 7 7 5X9.9.9.9.2.2.9.9.9.9.h AXh 6X6Xe =X7 7 @X@X@X7 AXAXAXAXAXAXAX",
"AXAXAXAXAXAXAXS bXbXxXrXrXrXrXS S uXzXzXuXK K K K K uXz.z.S wXn.n.rXrXn.n.n.n.y P.P.P.P.7 7 7 7 7 rXh 9.9.9.9.9.9.9.h   d AXh 6X6X6X7 =X7 9.9.9.6.AXAXAXAXAXAXAX",
"AXAXAXAXAXAXAXS bXbXbXbXrXrXS bXbXbXrXS S i.uXuXuXuXv z.K rXrXS R rXrXn.n.n.b.2.|.P.7 7 7 7 7 p 7 7 7 7 7 9.9.9.g h 9.h   AXh 6X6X6X6X6X6X6X9.9.7 7 AXAXAXAXAXAX",
"AXAXAXAXAXAXAXS bXrXbXbXrXS bXbXbXrXrXrXrXrXrXn.S z.z.K rXrXrXrXrXrXn.n.n.n.S 2.4 2.2.7 E.' E.E.E.E.E.E.w         l 9.h   h h 6X6X6X6X=X=X#X@X@X7 1.AXAXAXAXAXAX",
"AXAXAXAXAXAXAXS bXrXbXbXrXS bXS bXrXrXrXrXrXrXn.n.J K rXrXrXrXrXrXrXn.n.n.S rXh rXh 2.7 7 7 7 l l l l 7 E.8 l l   k h 9.9.9.h 6X6X6X6X7 =X6X9.9.9.h AXAXAXAXAXAX",
"AXAXAXAXAXAXAXS bXrXS bXrXS rXS bXbXrXrXrXrXrXn.n.F qXrXrXrXrXn.n.M.n.n.S S bXbXrXrXrXrXE.7 7 S S S S 7 E.7     9.9.h 9.9.9.9.6X6X6X6X6Xh h h rXrXS S AXAXAXAXAX",
"AXAXAXAXAXAXAXAXS rXS bXrXrXrXrXS bXrXrXrXrXrXrXrXrXrXrXrXrXn.n.n.n.n.S AXAXK S rXrXrXS 7 | E.@X-X&X&X@X@X7 6X6X6X9.9.3.9.9.9.9.S rXrXrXvXrXrXS S S S AXAXAXAXAX",
"AXAXAXAXAXAXAXAXAXS S bXrXrXrXrXS bXrXY rXn.rXrXrXrXrXrXrXn.n.n.S w.S AXAXK z.S bXg.S h 9.9.6X6X6XrX#.h bX6X6X9.9.9.9.9.9.9.9.S bXS S bXbXrXS uXz.K AXAXAXAXAXAX",
"AXAXAXAXAXAXAXAXAXAXV.cXrXbXrXrXrXS bXm.rXrXrXrXrXrXrXrXrXn.n.S AX  AXAXK uXyXS AXAXAXh 9.6X6X6XaXh #.h bX6X6X6X9.9.9.9.h 9.9.9.9.9.h uXS S uXuXuXz.K AXAXAXAXAX",
"AXAXAXAXAXAXAXAXAXS bXbXbXdXrXrXrXrXrXrXrXrXrXrXrXrXrXn.n.n.S AX  S S S   z.z.AXAXAXh 9.9.6X6X6XbXh #.#.h bX6X6X9.9.9.9.9.7 h h h rXh uXuXuXuXuXuXuXK AXAXAXAXAX",
"AXAXAXAXAXAXAXAXS bXbXbXbXrXbXbXrXrXrXrXrXrXrXrXrXrXn.n.n.S AXAX  n.n.S S S   AXAXAXh 9.6X6X6X6XbXh #.#./ h bX6X6X9.9.9.9.h AXAXAXh AXuXuXuXuXuXuXuXuXz.K K K K ",
"AXAXAXAXAXAXAXAXAXS S bXbXbXbXrXrXrXrXrXrXrXrXrXrXS AXS S AXAXAXS n.rXS S S <   AXh rX6Xh 6X6X6Xh #.#.7 AXf bXfX6X6XrXrXh h h AXAXAXAXK uXuXuXuX7 } } uXuXz.v K ",
"AXAXAXAXAXAXAXAXS bXbXbXrXrXrXrXrXrXrXrXrXrXrXeXS AXAXAXAXAXAXAX  S   S S <   AXAXAXAXh h h bXbXh #.#.7 AX7 h bXbXh h / 7 AXAXAXAXAXAXK uXOXuXu *X&X} K uXv v K ",
"AXAXAXAXAXAXAXS S rXrXrXrXrXrXrXbXrXrXrXrXrXS AXAXAXAXAXAXAXAXS bXbXS =     AXAXAXAXAXAXAXh I q.8.#.#.7 AX7 _.h / #./ / AXAXAXAXAXAXAXAXuXuXuXuX} } uXuXz.v K AX",
"AXAXAXAXAXAXAXAXAXAXAXAXAXAXAXS rXrXrXS S AXAXAXAXAXAXAXAXS tXbXS S AXAXAXAXAXAXAXAXAXAXAXh q.q.j X.#.7 AX7 |.|./ #./ 7 AXAXAXAXAXAXAXK uXuX=.uXuXz.y.uXt.L K AX",
"AXAXAXAXAXAXAXAXAXAXAXAXAXAXS S AXAXAXAXAXAXAXAXAXAXAXAXZXbXS S AXAXAXAXAXAXAXAXAXAXAXAX7 7 j q.S / #.7 AX7 |.|.P.#./ 7 AXAXAXAXAXAXAXK uXuXK K uXuXz.h.z.K K AX",
"AXAXAXAXAXAXAXAXAXAXAXAXAXAXAXAXAXAXAXAXAXAXAXAXAXAXAXAXS bXS AXAXAXAXS AXAXAXAXAXAXAXAX/ #./ #./ / #.^ 7 P.|.|.P.#./ / 7 AXAXAXAXAXAXK uX:XK AXK uXuXv v K AXAX",
"AXAXAXAXAXAXAXAXAXAXAXAXAXAXAXAXAXAXAXAXAXAXAXAXAXAXAXAXAXZXgXS S D S AXAXAXAXAXAXAXAX7 / #./ #./ #.#./ 7 ].|.P.P.|.|./ 7 AXAXAXAXAXAXAXK uXz.K AXAXAXB K AXAXAX",
"AXAXAXAXAXAXAXAXAXAXAXAXAXAXAXAXAXAXAXAXAXAXAXAXAXAXAXAXAXS sXrXrXS AXAXAXAXAXAX  AXAX/ #./ / #./ #./ 7 7 P.|.P.P.P./ #./ AXAXAXAXAXAXAXK k.v z.AXAXAXAXAXAXAXAX",
"AXAXAXAXAXAXAXAXAXAXAXAXAXAXAXAXAXAXAXAXAXAXAXAXAXAXAXAXAXAXAXS AXAXAXAXAXAX  S S S   / #./ #./ 7 AXAXAXAX7 7 7 P.|.P.#./ 7 AXAXAXAXAXAXAXK K AXAXAXAXAXAXAXAXAX",
"AXAXAXAXAXAXAXAXAXAXAXAXAXAXAXAXAXAXAXAXAXAXAXAXAXAXAXAXAXAXAXAXAXAXAXAXAXAX  S S S S S       7 AXAXAXAXAXAXAXAXt |.|.P.#./   >     AXAXAXAXAXAXAXAXAXAXAXAXAXAX",
"AXAXAXAXAXAXAXAXAXAXAXAXAXAXAXAXAXAXAXAXAXAXAXAXAXAXAXAXAXAXAXAXAXAXAXAXAXAX%XS S S > x S S > > >   AXAXAXAXAXAX7 / #.    > > > >   AXAXAXAXAXAXAXAXAXAXAXAXAXAX",
"AXAXAXAXAXAXAXAXAXAXAXAXAXAXAXAXAXAXAXAXAXAXAXAXAXAXAXAXAXAXAXAXAXAXAXAXAX  %X%X%XS S S > > > > > @ AXAXAXAX  S S S S S S S > > > >   AXAXAXAXAXAXAXAXAXAXAXAXAX",
"AXAXAXAXAXAXAXAXAXAXAXAXAXAXAXAXAXAXAXAXAXAXAXAXAXAXAXAXAXAXAXAXAXAXAXAX  :   . > E.E.E.> > > > >   AXAXAXAX  S S > > > S S > > > > >   AXAXAXAXAXAXAXAXAXAXAXAX",
"AXAXAXAXAXAXAXAXAXAXAXAXAXAXAXAXAXAXAXAXAXAXAXAXAXAXAXAXAXAXAXAXAXAXAXAXAXAXAX  > > > E.E.E.E.E.E.  AXAXAXAXAX  S S S S S S 2 > > > E.  AXAXAXAXAXAXAXAXAXAXAXAX",
"AXAXAXAXAXAXAXAXAXAXAXAXAXAXAXAXAXAXAXAXAXAXAXAXAXAXAXAXAXAXAXAXAXAXAXAXAXAXAXAX    $ > > > > >   AXAXAXAXAXAX  S S S S S S S S E.E.  AXAXAXAXAXAXAXAXAXAXAXAXAX",
"AXAXAXAXAXAXAXAXAXAXAXAXAXAXAXAXAXAXAXAXAXAXAXAXAXAXAXAXAXAXAXAXAXAXAXAXAXAXAX  > > > >           AXAXAXAXAXAXAX  %X%X%X%X%X%X%X:.  AXAXAXAXAXAXAXAXAXAXAXAXAXAX",
"AXAXAXAXAXAXAXAXAXAXAXAXAXAXAXAXAXAXAXAXAXAXAXAXAXAXAXAXAXAXAXAXAXAXAXAXAXAX  > > > > > > AX            AXAXAXAX              > >   AXAXAXAXAXAXAXAXAXAXAXAXAXAX",
"AXAXAXAXAXAXAXAXAXAXAXAXAXAXAXAXAXAXAXAXAXAXAXAXAXAXAXAXAXAXAXAXAXAXAXAXAX  > > > > > >   > > > > >         AXAXAXAXAXAXAX  > > > >   AXAXAXAXAXAXAXAXAXAXAXAXAX",
"AXAXAXAXAXAXAXAXAXAXAXAXAXAXAXAXAXAXAXAXAXAXAXAXAXAXAXAXAXAXAXAXAXAXAXAXAX> > > > > > . > > >   , S S S S S S S   AXAX    S S S > > >   AXAXAXAXAXAXAXAXAXAXAXAX",
"AXAXAXAXAXAXAXAXAXAXAXAXAXAXAXAXAXAXAXAXAXAXAXAXAXAXAXAXAXAXAXAXAXAXAXAXAX> > > > > - > > >   S S S S S S S S S S S   S S S S S S S > >   AXAXAXAXAXAXAXAXAXAXAX",
"AXAXAXAXAXAXAXAXAXAXAXAXAXAXAXAXAXAXAXAXAXAXAXAXAXAXAXAXAXAXAXAXAXAXAXAXAXS > > > > > > >   S S S S S S S S S S S S S S S S S S S > > >   AXAXAXAXAXAXAXAXAXAXAX",
"AXAXAXAXAXAXAXAXAXAXAXAXAXAXAXAXAXAXAXAXAXAXAXAXAXAXAXAXAXAXAXAXAXAXAXAXAXS             S * S S S > > > > c S S S S S S S S S S S > >   AXAXAXAXAXAXAXAXAXAXAXAX",
"AXAXAXAXAXAXAXAXAXAXAXAXAXAXAXAXAXAXAXAXAXAXAXAXAXAXAXAXAXAXAXAXAXAXAXAXAXAXAXAXS S S S S             o                               S AXAXAXAXAXAXAXAXAXAXAXAX",
"AXAXAXAXAXAXAXAXAXAXAXAXAXAXAXAXAXAXAXAXAXAXAXAXAXAXAXAXAXAXAXAXAXAXAXAXAXAXAXAXAXAXAXAXS                           S S S S S S S S S AXAXAXAXAXAXAXAXAXAXAXAXAX",
"AXAXAXAXAXAXAXAXAXAXAXAXAXAXAXAXAXAXAXAXAXAXAXAXAXAXAXAXAXAXAXAXAXAXAXAXAXAXAXAXAXAXAXAXAXAXAXS S S S S S S S S AXAXAXAXAXAXAXAXAXAXAXAXAXAXAXAXAXAXAXAXAXAXAXAX"
};
