/* XPM */
static char *result[] = {
/* columns rows colors chars-per-pixel */
"128 128 52 1 ",
"  c #65645A",
". c #69675D",
"X c #67685F",
"o c #6A695E",
"O c #6E6D63",
"+ c #6F6F68",
"@ c #726F65",
"# c #736F68",
"$ c #6F7166",
"% c #6F726A",
"& c #737266",
"* c #75756B",
"= c #78776D",
"- c #77786D",
"; c #7A796E",
": c #787771",
"> c #7D7D73",
", c #7F7F78",
"< c #807F76",
"1 c #817F78",
"2 c #7F8076",
"3 c #7F8178",
"4 c #818176",
"5 c #84847B",
"6 c #88877E",
"7 c #87887F",
"8 c #88887F",
"9 c #878780",
"0 c #888780",
"q c #878880",
"w c #8C8C83",
"e c #8F8F88",
"r c #908F86",
"t c #908F88",
"y c #8F9087",
"u c #8F9088",
"i c #909087",
"p c #93938C",
"a c #98978F",
"s c #96988F",
"d c #98988F",
"f c #969790",
"g c #989791",
"h c #979891",
"j c #9A9A94",
"k c #9D9D99",
"l c #A09F9B",
"z c #9FA09B",
"x c #A1A19C",
"c c #A4A4A0",
"v c #A8A7A2",
"b c #AAA8A2",
/* pixels */
"><>44444>;;;2>>4459eipue4>;>>227yipphapp84;;4455007ww0w85>;;;;;>45660075545445568wiippiy8>;;>249eupaafap8>;;455588888ww85>>;;>>;",
"<>4>44544><;;>>4555wpipw5>>;>227ippaafap82;2<4558ww0www85>;;;;>>44555q77644445558wiiippy02;;>149wpppphap8<;4445588w0ww084>;;;;;>",
">>4441514;>;4>44550epppw72>>>257wipppffp52;44550700www874>;>;;<42556qqqq524454568ywrpppy62;2>449eupppapi5<>>4556888ww8884>;;;->:",
">4<45555444>4<455588yiiy754>>447yiipppuw42;4555508w78875<>>:;;;455580qqq7664565888wiriiy5422>445wypppppw4<>14556q777w8854>;;;;>>",
"1,4359955008q90q75654488pfae534580wie05><<458w865544444>411<>>:,557qwwuuuyyeywww8w8868558we8443588wew854,>>155754>>>>>;;>>>>2>2>",
"459999qeufkkhhaw54>;;;>8hkkjp05444554>;>45wpjjs0<;**--;;50w0544,557qeuuhjjkkjjjpw564;>;5idhae55555544>>>,,5wasp5-*&&&**;400wyw85",
"00wwweephkkzxzjs8>;=--;8djkkjhpe844:;;:48idkxcxf4*&&**;5wpppe555558ywufhkkzzzzzde4;=;;>0ajjhpw00644>>>;45wphkczu;ooO&-<8efapiwye",
"tteeepuphhkkkzzkaw74>-;<0pjkjjhpw54><46rpdkkkkkjd84;;<58wpppe09988qyuuphkkkjkkdp04>;;*->0pddppuw85>><458wefhhhsu84;->58ippapreyy",
"ppppfapp077qeupphkkjdpr4>,5etpteeyupppghhhhhffpsjkjsiwwwrwrrewwwwypaaffpeq0qwq57wuhfpu8<:*,wwww00weeyyppppsuuuyyahhhapiieeeeeuuu",
"ppppfffu05>480wphjjjkjjlfe>>9wwrpphhjhjjhpfpuppsjkkkjjprewwwewwwpppdfgfuq532225wahjjhfapt9::3570yppppaspuyyywqyuphkjhhapueweuuup",
"appppfapw4>>40tfjjljjjjjhjgw>:5eshjjkkhafeuuupphgjhkkkkdtetwwwweipppaapeq5>;>5quaghgjaapppe5--2qeppaasppuq7qwwuupaafjkjdpeweuupp",
"pppppppeq557800epadjjjddghjja0>>wpsjhjhaueupppsshhhhjjljffftewweipppppew5>:25qqwpajahdppppptw1-:50epsppuyqwyeupppppahjkhuupufhpp",
"8prtrw050eahhhp0559wippppppphka02267weeyfhjhpdddhapppppdjjjfpettppiiw51>,4qyphsp645wriiywwerppe4-->5weeeusapipppupyeipipfkkhhshh",
"r8rw0556efjkkkjp04>>5888wwypgjkhy4;>5weahjkjjjzdgtrw658ijklkkjfte885,>>19wahzjjse5>>5780006epaap7:+*>50usshappppppw8556ijkkkkkhk",
"rwww5550pgjjjkjjpw0654568wipjkkhy5>;26rahjjkkjjdpe65<;<ekkxlkhfew5>>3447uphkkkkppww855544550pdhsy5-**>5ypassapapiiw84>4pkkzkjdjj",
"rrw6666wepfghjjjdpppi865558wdhsiy885445wpahhjjdpe6544><4tjkjfee0q555555qupahhhaappiiiww054>5rpspw755,::3wippaappyw874430dhjjpppi",
"ipe00058wwwytpffhhjahapw5544>>>5ephhpw94559wew855quahka0>>444588euu07550yyeiewtpggghaapew854--;>qwpfpt7>:<6wwww80epahhp9><<55567",
"ppieiw85577wwetpdhdjhhfap0>@.o-5phkjkjpe5>>>>2>5eskkzkhae>;*;;48uphuwq50qw856wtpajhjhgapi08<&&=;5efhjjhp6;;;><46psjkxljaw>=;>>4>",
"ppppiyw644570eeepadhkjjp5$ .*;>2qeuhhkhhp65>;;2whkkkkhapy042;;;8phhhuye5>>>5wrrrpaggjhgp5;O@;<;>39wpjkjjae5;*->0dkzkjhaie854<;=*",
"iiippyie75>>47wqerpassy>oo+*--;>3537wpshppw64>24waaapyrrw85444;2quusuype3>>>5eewrtppgar5*&*=;;;;,,>>9ppsppi84>><8psppiye06655856",
"ywwywwwipsi83,5945552*Oo>5epi6>:---*&-25eeiewww0444445667544544-;446758yfggpq50088i804;;5rpp094515>:-->6wyeww55<;24458885556888w",
"5555555epdhsu953332*OX$;wpapir0932>*&oO->60erry062;;>44542>25084;&&--26ijjkjhp088884;*=5pgjhfte85544;-&;40eww6654<;45685544688w8",
"ooo&@#>10tppppe053>***-5epapp0008722;-&*>7qw8w554;;456544>4560ew86;&&&;wffjhffpe884;-;;8pjjgfpieqqq542>:>50yrr854424688544456588",
"885<=#@*>5wweyw95>>>2268eprp0wwwqq885522>35q8544558rpppe05600weupdp04-&-10epuppw65444588tppffpppuyywwwq54447wrww865888yw94455666",
"ldjdddr<&&=<45434588wipiw000wwewiiiiiippe5<>115wpkkkhhhjapeeeweppsjkkdw>**>559555888rryiw0weppppsppssddpw5>>>5epgkjfptyye0650555",
"ljjjjkjgi;@&;>>48ipipppy8700yeiiiiipddjjpp05458pjkkzkkjkfaperrttpdhkhkka8;&=>>>48yipiirw8868yiipdhjjjjkjaw5>-:4alxclkjgsapueeew0",
"djjjjkkhdi5=@*2wpppiii088wwwwrippppdjkjjprrr8rwpdjkkkkkjfffuttrtpahjjkkhpw4=$*20ipppiww88www0weraddjkkkdapi84>>5pjlcxlkhggaapapp",
"pdddjjhhpipe4:-4iiyi8858wyuuppppppppddpytrpirrrppasjjjkhfffppptppapasdsaiir64;-,yyp8w877wweeewipppddjkkhdsspu0555wfjlxzzkjjjhhjh",
"wrwww0wtpahhap5>-<444560tppaghjdpy84447wppaaapppppppapaffaafpappy065000wisdhhhe,-2424467wuppjjffi05245wpjkjjjpuw060epjjzjxxkkkkk",
"<<11<<>0pajkjkhw;&@=<6wiphjjllja8>***-26iaaadaappppipppppapfaaspy5>>>>40pdjjjkhe2&&*;458uhkxvvxf8:;-;;>5rhkkkjhapw055yisjkzxkkkj",
"##*==>1epjjkkkks8;&*<8ipjklljjp5;*-;>>458eupppapprpyyyuppaapphap84>==:2eshkkjkjf82&*;45wjxcxka04>-;;;><<55wphjjffpe9556yddjjhsds",
"96655<:1wphkkkkjp85458ragjjpe55<;;>;<4555770werpipiyyeeeipypupe54:;>>435psdhjjhay844458ihjaw5>45>>>><<<5544450epfpt054268yweww08",
"gfffspy5:-*;8wppahdpywww052>45332>245656545544660wwwewwr8864>:;;>4wyuuy5;=:19wwepapaywpu72:>2444>2,14555555<;*&<4588w742;2--;:>:",
"jjhhjhsy4-@@&;20ahkjdpyq>:>>44453>45500w6544<;<458007764<;;***:40upshspw<*oO*:4ephjhhar5>;>>4455>214500w8544;*&@<4444554;-=&*-*-",
"fffuuew74;;;::-3epdddpw422>2455543455wwew854;;;5wppe04;*&&==--2qpfpssuyw84:-*:>5epgghp743222455432445weee054<&&<68885222;424>-**",
"qeww07808585554150wwe744>>22455544455weutppe84;<wpppw52>44467323wuapyyww75541544wwrrw52432355555444560ereppe544<58ii8yy78888wwqq",
"55990wwwww0wyew64;;-=-;>279595555455qwepgjjhjdi825q7wuuupipszshy3:>>5www80wwwwe8,>::--;>2357999855458eeufgjjhfar658yyyppfjjjkjjj",
"535500wewweepppw4-&&&&-;47wwee055555qupfjjkkljjpq;>7uuhpsdszhzkh9:#->58000wupapw2*&&&*;;227q0e0054540eeajkjkkkjh8656yppshjjjhjjj",
"15556600590epapw4&O&-;>>>>4wetew5555wpphjkjjklkdu73qwupajjsjhjhu04><43355qwuaai72&&&-;>>,45qeeww5456epaajjkklkkkdi885qppfhfhfffj",
"wwwweww64,,5ey042;2;24412559weuw95qwpshhjjkjjjdpuuq3376epsjssspupyew0q533550yyw622>2444555qwpuww57wypsshjjjkkkjfdppyq77yppepeppp",
"ppapfhpu9,>;:;:4phhhpwwtppptww0weipdjdsspewwetptupyq7545>450euuppaappae64>>:>>48pshhpewwerrre000yussjjssspppadaapuyyww774455wwww",
"apahhhjhw5;*&;5pgkkjgppafjfpr88wphhjjjpi0554500eyyyww75>=**:4wuuphhhhhar84=*->8iskkjfapppppww08epsjjjjspyyweiipiuuwyyww5>:;>5666",
"apsphhhp4**;58wipgjgapapffpee80iaahhdpiw543455800ww8wwq2>**->5qwuphkkkhe4;*;4588pahhfagappeq00ypshjsspuw8757wweywwq07005;--:5q55",
"ppuuuuee5<>;458wtppfppaafppueeppaappiyw6>>>458057556wwyyw533>,235qwuphfu05>>2456wyppppppywwwwrpaspuywqq7544488w0q3555554>;>>5q00",
"575432359wew5<>>40wtipippppfshjdpw08533>;>>488654;**::50pppeyq3;;;;;:27qepe05,,>>150wprwyyyypsspu5333333>;;>55753--;;>>>,5599qwe",
">>>>>>25qeppir55<<>468rretfjkzhp55442>>;;:>4wrw<;*&OOO+#4eppppu7;-**-:>59wpupt95>;::>5888ypszspy4>;>>2>;;;;25eq5:-&**-;<5wwwweee",
"--:>2245w9wwtagpw54<>;1efjkkhpi852>>>>>><>3quup0>*&&**@O +>eppiy4>;>>225999weppr05>;-*>wpsjjpy85>--:;;>>>>45pspw>=&$&**=>19qeeew",
";---::>>59680rpgpaai86<9gkjpw8642>>>245556qwpfppw8555564:@.+5yiiy5<;>>224599wwppppi05>=>ypsp734;:--;235q678eshspw5>:;;:::-*>qwqq",
"444>4>;**><5888iadkkkkhp8554544<>468yyuurwwrpafphhhhhhffpw5-oO;8ppr5<;;;;<<44688afjkkkje1>42444<>>5weppurwwiphafahhhppuewq73>**-",
"7788565>*+&-;<58plkklcxly;-;44448wipssssiwrrpppfjkkkkjkfhpuq5-O$4wtrw5<=**;-;448ajkkxcckp:&;<<447eupphhpirwepsphhkkkjkkkhhp02>;-",
"08w8w0ew9>-%&&;6ijjklkkp86;*=;58yipshhhpieweyppfjkkkkfjjjspe7642*;6rpee7<;;-=&24ehkkxlkfy6:**<58ippfhhhspweweuphjkljkkkkkfu044>2",
"ywywweepefe94;*;6rgjkfe58542;;<58ypphjhhpiiuyypfjjkjkkkkkjhsyy8w7445wuuuiir042248efhkfw56854;=;4wwpphhhhpiuyuuppgkjlkzkkhkhaiiww",
"uuteppipfhjkkhp5->>2,>0epppiw64<<57wpsshppshhsauewwpefffhkkkjspyeeewepupfjhjjdpw54554:4wpppiy81<>55wyppsapapdhsptwypppppjkxkkkjk",
"pppppippfkkkkzkhw2>;:>8wppiprr01;;;48upapshhkkksw7579wwefhjjkkjhppuupipafjkkzzlhi84;*<8wpppiii81;;;47yppppsjjkkat077w0wydjkkzkkk",
"apaptpppfhjkzzzks8446wew00w0w605;&*-3qwuppsshkhkaw7539wepafjkkkkhsppyppffjkklxzkj7;28wew88w88885;=--50yypppshkjhpe56558ysfhkjkjk",
"shagppppfhhkjkkpuy848wie00werrtw064445qqwyupppfapewqq99wpafaghkkkkhhpppfhjjjkkhe4445wipp8wwywiie854457qwyyupahspp00878ypppippppp",
"hhhhhhhhhapee0ewphkd8886yppsffpghhjjae054458wwwwweyyupuw550yiipdjkkkjhhhhfaew5,,rgjgp845ufffffffddjgap0664568eewwweusuppw0886555",
"hhfjhjjhar0086wphhjjdp888ypsffgjkkkkkjhaw4>450900eppshhsu5>>458ifkkkkkkjje5>:>qpjjkjgpq5weehgjfjkkkkjkjp84<455qwwepahjjsiw554544",
"ffhjfhhpi0058wwajjjjpyppyyyyppffjkkkkkkhp8544450weppsssiipi5=&;5hkkkkkkkt1::5weahkkhprppeq9wtpfhhkkkkkjhiw644450wuuppspyw6544444",
"fapppueeeew64<40djlhpipdshpuueppfgjhjjaprrw80559eweeppyyw885>--6hjhhjkpq,,4,;;>5ahjaprpafffpeepphjhjjjdpiww08890wweuuuyq88668688",
"ww0q5555epapr<*O*>5asaddhhhjkhffeertpeeerpupppapq5654656wppskzlw:=>>>::>0phae>@O@:5epppphhjkkjfatertiewwepppdpsp06557757wippddjk",
"144<3150ajkhpr5>#oO*7adjjkjkkkkjp556560wrpaajkkhw52;2248ysdkxxxjw***-->0ahjjap9>&Oo&28iajkjkkkkhpw80888wipphkxxde4>>2258iddkjxzk",
" .O->57ypkjjptr084-Oo*6pjkkjkkkjae54<45wrpaskzksw422256yajkzxxjy5>-=>55eaghgpeew75-$oO>whjkkkkkjaw65546wippskkkp84444588epsdjhhh",
":-&O+&--40pdapprew55>*o-5pashhfppw0054350eepfhpw554668yiasjjdw4>34:=>245qeipetrtyy85>$o%5effhhspe8555458wwrpdpyw865568w8wwyrrwer",
"8654>:*@&&&>5wuppie0062-+*<50557epppfpe04<4455556yippppdptw,**:,2>>>32>>:;>457wwepywe04*$->55545eppapeew544555770wwwwiirw844>444",
"5855543,>;&&+*>5eppppre53-*;>448epfffjja0>;;>450yippdddp8>*@#:>>>>>2,4>>;;**-;25wuppppp8>-*:>>40ppfffhhf6<;<4458wwwyipiw5<;;>::>",
"567555554>>;-&+O-4yskhsy5>;->458epffhkhy5>;;>47wyiippiw5;&#->>>>>>>>14334>;;;***>3wpjjdp02;;>550upaajjht6;-;4457qq78w884;;=;;-;;",
"855770qqw0qq05>:+**2ijzzjp5::>450wetppyw54225550yyww86>;>:>>>>>>><5595596775542;-*&>yhjjkp5>><45qeyppfe04<<<4555755444>>>>>;;;;;",
"880weweepsshjhpe4:*O&>qpkxjp5::>>42<>257peeeuyw82;-&&&-20e051,,155q9qwqeyupaapyw5>-O+>0pkzhp03>,445512><0wiiipe04:;-;>24990543>2",
"0weietppjkkkjkkhi64;*&*2ejlkh0<:::;;>>25eajjkja7&. o-;>4wuee51>166qq9weupahjhkhai854*$*>ydkjhpq44><;::>40epjkkjp4*&-;>45wwew5545",
"0ewipppfhkkkkzzkp84;;>>5wepppae5>;;;>>>>5epjkjsw4-$&-;>46wrtw05145qqwqwuajkjkkkji74:>>498paafhfp8522224550phlxkp5;-;4258wwwe0755",
"iiyppfpfhhkhkjkp855644>28eerepiiw7445555558rsjuuw84244456ertew0959qweeeepfhjhhhi74442>>4w0epppapiyw657w0eepsjjhhi0556688weuuw0qq",
"ppppsappuwwqqqq9iakhhpr4:>40rpripiiyyrrrywqqyyuspsssapppetttewwwweepupppw55q9559ehkzkf0>:><6eyepppapppahhhhaapafhjhhgfappeteeew0",
"papaasppw532355eahjhjjkhpw1<58etuppappapuuqyqquupshkkhjjftewewweiaasjhjaw522,25ejkkkkkkkp0<>478ipaaajhjjhappeppfjjjkjjjhfptepuuu",
"papppfppw5>:,4wpahhfppppjzjw4>49epppgpppuuywyyyupphhkkkkjhfewwweppshhhauw4>>>5qujjjkkjjhjlje4>50ppfhkjjhpuyytppghjjkkkkjffpfpapp",
"iirrupuq4>>25550pajhpprrpszkhe4,455eagppuuuyyyyuupphhkkkjkjfe09wipppaae05,35qwqwpgjgffafgjlkhw54wuuahjapuuupppppgjhhkkkjhhhjhhhh",
"wwwww53:<5taaat6<>48pppiweeajjs02:>25wtpassaappapiweetahkklkhaiiwwwww5434qahkhhp6450ippitetpjlaw,457wyypdhddaagapttpppadjkkjjjjj",
"99993::50ishhhaw5;**4riiiiwidjkdy2>;:46wpdshfhjkarw655wpjklczzjpe754>250eakkkkjfw5>>48wwewwpdjlde>*>50yshkkkjhjjgtw6545pkxxxkjjk",
"5594,450ephhjjapr554<<58wripjkksp85>>>15rphhjkhharw6>>4ehkzkkkzpw5>4700pfhhjjjjfpw885458weepjjjde52225wpjjkkjjhjppr5>>>wjxxkhhhh",
"59555550eyppadaappw8861<558wpdhspiu055556wpahhsau0065<>>efjjjhpiwq558weepaagjgffddpiiw64588wpdpiewwq7547rpdjkhhprw6644,5paapreeu",
"ww9555777q8yyyppahkpuewq2>4>>45wskdsuwq541458ww8ipahkjp5:=<55658uppuq60wwewwripafhhhgptw5544<<48epfffpw5>>45w087wwppddi6><455555",
"eeww665557688wepakjkjhpw744>;;;40phkhhpe04>>:>28idhkzzjae>*#=;48pfjue0567788wwtpfhjjjjgpw5>-==<8yajjjjgp8>;;;445wtahjjdp6>=;>>22",
"weee866542560wwwuuskkkjp5;&;44145qyfzzjspq4>;->6pldlhjdppr5>-;;6uuhfpee52>448wwrppfhjjjp5;&*;4<47epffjjhai85>;45rpaapppiw854<;;;",
"wwew866552350ewwqwwyfhkp84>;><>15525qpjsapp944448idppireww644<;;5uuueye853>48wwwweeppap6>:>><<44545q0upippiw8444wwrw8w8888886655",
"7q876585eppee0e088765445ishpw5,,>>>;--26eprww865444445565544554=&;45458ypgapw0w087884>>:wtapw55544<>;>>245855955<<2;4<;455668888",
"22442248fkljpiew8664;&*5phjgffew552>;&&;20wer8854<;<115554445884<&@&->5ihkkjauuw8664>*=6pgjfftw6554>;;-->4455555;;=;;;245546688w",
";;*=&*;6pfjjhpuw8652;;;5pahgftteewq742;;>45wwrw844<<6854>>4558re86<*&&;8pfkhfpuew74<;;;8fjjgftirwq9522>::,45554>----444444556686",
"5554;;=<50euppy066445555wrpaeppeuuyww88644568886556rippw75808rippppw5;-;4wtpuuwq6244<<45wtpfffpiyywwq7554,,554>:;;44688854<55666",
"sppfaar5<<44565788wr8piw866wtipipipiupppw54,>45wpjjjjgggpptttwepdsjjkhe4-=>4954,22548855546rppiiuppiiippr054>>>46rpapaaapw056055",
"hkjjhjgaw4><4448wiiiipiw8556wripipppsssdpe53:>4ijklkkkjjgppttrwrpdjjjjjhw>&*>:>>4778i8885856wiippppppdjjdpw4>:48iajkkjjhfappewww",
"kjjjjkjjay84<>5wiiiiii888wrwewiipppdhjjjppuq5><0fkkkkkjjggpptteppdhkjkkjpr5=*-35wwyy88888epe0weiyppddzzdpw0555wyajklzkkhhgfgappp",
"hhhhjjjhaspi85578riii888eirpppiiiiipdjhhppapii0eephjkkkjggffpppupappahaprww65>>57www8888yypppepiyyppdjsieepiuyippafkkkkkjhhhhjgj",
"yee0wetpfhjhauw9555558wweiiadddpw84<>550pdhhhjfapeeupahdgfaapfppiw00w975wpaffpe52456688iwipahjjfe84>245wuaasapppppppaafhjkjkjjjl",
";>>41<1wpfkjjjhw4<;;588wipadjljd84;*-=:5wpjjkjjhpppeypppaapaafhsy5>>>>48pahjjjju5>;;4588eakkxbxke4:--;27pashaappptreyppsjjjjjkjj",
"@**##*<0pjkkkkkf84=<48wyashhjhp82-*->>458wpphjjjappuyuiipaffapau74>-::4ydhkkkjjfw2-;458iszzzxkfw>&&->457wripaapapppeyyipdjhjjgjg",
"www05<=:0efjjkkhp86688wypppiw755>;>>45588556eppappueyyyeyiyppuw5>:=><450pahhjjjjpy85588dkkhpr666>>>>>4455588wwrptpieyiwipaapprww",
"tppeypw4;*->8ypppfapiwww742235544,455995554><=*=450wwew8855522:-:4qyuuy5>>>50ppahdhappppy7555886555555555455444588rwwww8w8644444",
"epepppuy4*O@*:4eafjhdpi82>;;255444555554,>>>;;==--=;>>42>2;;-*->wshjkkp8>*&&>48phklkzjdr5224588665680w8w5544;<<458wwww85554;;;;>",
"eperyuyy8>::&*>5efhjdp842>;225544142143444>>--;48i884>-**;;*-->qhkkkspe75>=*;>50ajkkjdiw7355788856556www0w94<;<4wiirw865444;;-**",
"000wwwqw05554>=>5wte88442>2244554422149900054;=;8iddpi073222225qakjhyww855455555wpgapw55555888w06666wweteppe85<48pipiiyy88885322",
",,,435qwwwqwww84=***-*-224415585522250wpfhfppue5:;7yppuuuuuuhhha844,6wrrwwwyipe0<>>>;>>4588wrwr06555weepfjjjhfpe86wypppppaaghhhk",
":::>33379weeppi8:&O$&&*-24498w085447wepajkkhkkhp82;3yupshjkkkzka5--:5riiipuadday5;&*-;<478wetpte64250pufjjjkkkjfr55wushhhjhjkjkh",
":>:1,553590padp84-&&-2-2>49wuuuw7570epahjkkkkkkfy7323ypjjjkhkjae04>4550wwepfjjdi6>**;445590upppe5225wufhjkkkklkkpy78uhhhjjggfadh",
"eewwww995448ppppi04444469weufpuw77wyphjjkkkkkkjjjuwq77wupshfapeew00we00555qepdpiw0778880eeuaappe788wiahhhjjkkkkjdpy0wwpahhpppppa",
"hjhgffuw5<>>58ipgkkjaapafffftteeippdjkjjhppppaddjppyw85554450eweuppsppp05<><58iphkkjfpfpfpggftirusshhhdppppppadasspyw668w0wwiipr",
"jjkjjkjfw5<:;58djklkjjhjjffftettdhkkzzkhi068wwippspsppw5;**;40wtpahhhkfp84>><58dhkkkjjgjfffteeipjkkkhdaiw0wweiippppppw654445wewe",
"hhjjkkzkr4<<588epjjkjjjjffpeeppgjkkkjjsi86568wwwyupsspp6:-*;,57eupssjkhaw5435688ahkjkjggffpeetajjkkhsape88788wweyuppppw5>;;4q00e",
"aaaahjhhp8545560tpgggjjdfteetahhhkdaiw8855468re0q78qypyy74>45555w0wwppppye055568ephjjjgjppeupphjkhspiy87544568wewwweeppe5<<5wwee",
"eww880wwiahp54>,150tpappupphhjkhhu0545554455wue8522-;24wpapppew5<<>;>>5qeeeue065550rpppppppfjjkhpwq35532>>><50q54423>45eweyyppup",
"55445558eihhjpw4>>>15yiipahhkkjp722245555458uspw2;***&-25pffjjp0>;---;>59euuppt05<><5wrrpshjzkjp6>>;;>>:;;>58euq4>-*&+-:5yaspapa",
"=;<4555weippjjkai0>:;;5phjkkhau72>>24555555wshhp82*-;2**->5phhhy5;-;>32259eppghdr05><;4rsjjkjpr5;***;;>2>><5yppu62;***OO@-5upppp",
"<><<>>>458wepajkkjht04:4pfhpw5542>45q0wwww6rfhhpyy888886<;*-7uppr54;24234>46epdhsfpi8645psdpw6<>***-233q5555upuuy8652>>:+O $7wyy",
"7655542:;;4488ipjkzxkkp8><4>>>>>467yypppuweeppppfjjjjjkhpy6;$&;8ipr611<<4<4>488pgjjkkjgt511:;;=;;>>5wwuyq78qquuupshhfaphhsy;OoO$",
"88868855;&&&=<48pkzxxxxj5@O*>4458wipssffuewepppfjjkjjjjhspi82;&&<8prw91<;<;;-;48pjkkkzlk0*&=;;;;<5eyuppuq88qqwyusjjkjhhkkkdp8;*$",
"88880w00842*&@-5pghjkkae0>**4458yyppsfffpewippahjkkkkjkhjspy7662;;48ewq5<>>;=*;8pjkkkkf05>**=;>48eupppuuy7qqwyupfhhhhjhjhkji42;*",
"08w0ww0eyii86;*-5ephai5785>;;;<468wipaapiiippafhjjkjkkjkjjjpyw888655qeew06554<-4wphhjt555>--**;:450euuuuwwqqyyupaaahahhpy0558888",
"iyyeeeepissjhhp4****-:5wyw084<>:-->25eupppshhjhhpeweyypsddzjjdpy8rwwtaaahjhkddi8>;>;==58ipr5<:=-:-;258qyywyupappe0qwwwwqqypsddzd",
"ppiptetppdhhkkkd6=Oo*>458ww0854>-**->5qipahhkkhpw9998wyyszjkkjjspirerpahjkkkkxkd8-OO&;566rrrw61;-***>27wyyuuhhhpw5557557uhhdddjd",
"pfpapfppafhjjkjge3>25755557q8854-***>250upshhkhar99968wipjdjkkjllaaatetfjkkkzkji83>2566444566w04-*&*>57qqyupafpp0552335wpadssddj",
"hjhhjffppahhhhae0ywqqq75555770082>>257750eyypsdapeewwwwwippsddjxkkhhfpttafhhdai87778w88655558606>>247wywwwyutprw055557qyppipppip",
"zzkkkkhhaappw55wphfaiw88565q00eeppasape62>>45wwiepppsppw8688iiddkkzkkhhpe0w9115wppppii88qwqwwwwrpassppy85;2;4>,45weuppppww8644;4",
"xxxzkkkkap5>:>5wahhgdpiww0wweeipgjhkjhdi5>;>4560eipahhfp864;4688jkcxkkkhp5>>,15wpdjdpirrupuuettpsjkkjjsi82--;>14q0uasjsp864;;;;=",
"zzkjjhae6>;>5550rpaapiiyuyyurppagjjjjdpi854455500eypphfpi884&&=5fjkkkkzju5445550raddppppphfpppppahjjjdpi64422345500upspii5455865",
"000w095,158795598wwwwwyiuppppaaaggggpiw877780w008870yuuupipp854<9uhhhhpuwee866568r88888pahjjfafppasapyw866670wwq0557wyyiiyiiiipi",
"2::>>>,3wppie0005665668iefhjhjhgpw000555580ypppe5322377wppddjjar::59554qttftw0065655668wphhkjjjgpew054558wrpahap0554458ipaddddjj",
":>:>>>,5easae00554544688phjjjkjge944145580eipppe5>;>235wppddjjga0-%%-=3wppfprw055554468wphhjkjjge54<<<55wipahhhaw5442458phdhddjj",
":-;;>>>5eaaap0655544556wpgkjkjjgw44><<4500eiappi7>;;227wpddjjjjpw>%+*-4wppppew0544445568pjkkkkjhe<1>><458iahjkjaw5>>245ypddjjhjh",
";;;;;>25eaaap0864444568wpjjjkkjfe53>><4500wppapy82;-;47yppljjkhpr>OO&:4rpafptww55455566wpjjjkjjge4>>>149wpahkhhaw5>>226ypdjhhjhj"
};
