/* XPM */
static char *result[] = {
/* columns rows colors chars-per-pixel */
"64 64 162 2 ",
"   c #EBEBF7",
".  c #E3E3F8",
"X  c #E1E1FB",
"o  c #E2E2FA",
"O  c #E2E2FB",
"+  c #E3E3FB",
"@  c #E4E4F9",
"#  c #E5E5F9",
"$  c #E6E6F8",
"%  c #E6E6F9",
"&  c #E7E7F9",
"*  c #E4E4FA",
"=  c #E5E5FA",
"-  c #E4E4FB",
";  c #E5E5FB",
":  c lavender",
">  c #E7E7FA",
",  c #E6E6FB",
"<  c #E7E7FB",
"1  c #E1E1FC",
"2  c #E1E1FD",
"3  c #E2E2FC",
"4  c #E3E3FC",
"5  c #E2E2FD",
"6  c #E3E3FD",
"7  c #E3E3FE",
"8  c #E3E3FF",
"9  c #E4E4FC",
"0  c #E5E5FC",
"q  c #E4E4FD",
"w  c #E5E5FD",
"e  c #E6E6FC",
"r  c #E7E7FC",
"t  c #E6E6FD",
"y  c #E7E7FD",
"u  c #E4E4FE",
"i  c #E5E5FE",
"p  c #E5E5FF",
"a  c #E6E6FE",
"s  c #E7E7FE",
"d  c #E8E8F9",
"f  c #E9E9F9",
"g  c #EBEBF8",
"h  c #EAEAF9",
"j  c #EBEBF9",
"k  c #E8E8FA",
"l  c #E9E9FA",
"z  c #E8E8FB",
"x  c #E9E9FB",
"c  c #EAEAFA",
"v  c #EBEBFA",
"b  c #EAEAFB",
"n  c #EBEBFB",
"m  c #ECECF8",
"M  c #EDEDF8",
"N  c #ECECF9",
"B  c #EDEDF9",
"V  c #EEEEF8",
"C  c #EFEFF8",
"Z  c #EEEEF9",
"A  c #EFEFF9",
"S  c #ECECFA",
"D  c #EDEDFA",
"F  c #ECECFB",
"G  c #EDEDFB",
"H  c #EEEEFA",
"J  c #EFEFFA",
"K  c #EEEEFB",
"L  c #EFEFFB",
"P  c #E8E8FC",
"I  c #E9E9FC",
"U  c #E8E8FD",
"Y  c #E9E9FD",
"T  c #EAEAFC",
"R  c #EBEBFC",
"E  c #EAEAFD",
"W  c #EBEBFD",
"Q  c #E8E8FE",
"!  c #E9E9FE",
"~  c #E8E8FF",
"^  c #EAEAFE",
"/  c #EBEBFE",
"(  c #EBEBFF",
")  c #ECECFC",
"_  c #EDEDFC",
"`  c #ECECFD",
"'  c #EDEDFD",
"]  c #EEEEFC",
"[  c #EFEFFC",
"{  c #EEEEFD",
"}  c #EFEFFD",
"|  c #ECECFE",
" . c #EDEDFE",
".. c #EDEDFF",
"X. c #EEEEFE",
"o. c #EFEFFE",
"O. c #EFEFFF",
"+. c #F0F0F8",
"@. c #F1F1F8",
"#. c #F0F0F9",
"$. c #F1F1F9",
"%. c #F3F3F8",
"&. c #F2F2F9",
"*. c #F3F3F9",
"=. c #F0F0FA",
"-. c #F1F1FA",
";. c #F0F0FB",
":. c #F1F1FB",
">. c #F2F2FA",
",. c #F3F3FA",
"<. c #F2F2FB",
"1. c #F3F3FB",
"2. c #F4F4F9",
"3. c #F7F7F9",
"4. c #F4F4FA",
"5. c #F5F5FA",
"6. c #F4F4FB",
"7. c #F5F5FB",
"8. c #F6F6FA",
"9. c #F7F7FA",
"0. c #F6F6FB",
"q. c #F7F7FB",
"w. c #F0F0FC",
"e. c #F1F1FC",
"r. c #F0F0FD",
"t. c #F1F1FD",
"y. c #F2F2FC",
"u. c #F3F3FC",
"i. c #F2F2FD",
"p. c #F3F3FD",
"a. c #F0F0FE",
"s. c #F1F1FE",
"d. c #F1F1FF",
"f. c #F2F2FE",
"g. c #F3F3FE",
"h. c #F2F2FF",
"j. c #F3F3FF",
"k. c #F4F4FC",
"l. c #F5F5FC",
"z. c #F4F4FD",
"x. c #F5F5FD",
"c. c #F6F6FC",
"v. c #F7F7FC",
"b. c #F6F6FD",
"n. c #F7F7FD",
"m. c #F4F4FE",
"M. c #F5F5FE",
"N. c #F5F5FF",
"B. c #F6F6FE",
"V. c #F7F7FE",
"C. c #F8F8FA",
"Z. c #F8F8FB",
"A. c #FAFAFB",
"S. c #F8F8FC",
"D. c #F9F9FC",
"F. c #F8F8FD",
"G. c #F9F9FD",
"H. c #FAFAFC",
"J. c #FBFBFC",
"K. c #FAFAFD",
"L. c #F9F9FE",
"P. c None",
/* pixels */
"' r.<.f.w.e.;.y.k.k.7.-.z P P P U I E Y a w w t U Y T x R R t.x.p.y.<.y.e.i.b t e y t e , < y y P = h _ ] K { ] { K r.w.{ / ! W ",
"_ G e.,.J ] e.#.1.u.:.:.S x b ) [ ] w.[ F P y e l I n _ P [ [ p.p.y.f.r.y.w.r.P Y U Q y U y e P r y , , x z I r I R ` o.{ Y W ] ",
"[ K ;.1.h c l b S :.=.J 1.<.r.[ [ [ } ] } } ] =.v b n F R G p.e.t.f.[ e.e.r.;.n Y r P e e r , z < ; T , , e e e I P U U P. .[ ] ",
"i.y.L ,.W < I x b ) K B :.y.p.<.<.e.e.<.y.k.l.p.L x x T E Y w.t.y.l.6.6.k.y.:.;.w.] W T z , I b > 0 - o ; - , : > x E T Y ' w.w.",
"l.1.1.p.G b > E _ _ [ K ;.:.:.y.u.1.u.1.>.,.6.M F T [ G { ] e.e.4.1.-.>.[ w.w.[ L r.` W z z z c d z k d l v > l T b R W ) ] =.=.",
"4.>.7.>.;.;.G j ] G [ [ ;.:.y.y.e.1.y.K L K S v [ Z ] K ;.[ H ;.7.k.u.i.y.;._ [ [ w.F x I n ) R T b ] ] K L S n l { ] e.<.] w.>.",
"k.0.,.<.y.=.F n n G _ K [ ] =.:.;.7.#.;.N ) n D ) K L ] ) K } e.y.z.p.i.u.u.i.w.t.) < < k G F | W L ;.y.e.=.J w.J ] K r.e.} t.1.",
"-.y.u.t._ K H k l ) S S f f K x [ w.K =.>.C ;.H _ ] K _ ] [ [ w.{ [ t.p.i.f.i.r.` E I I x R ) ) _ :.u.u.u.<.:.;.J K K ;.:.e.x.y.",
"i.i.} _ ' } _ b R > S v b , b [ } ] L G :.L _ ] ] ] F R ` G ) { ' { ] [ { x Y ! Y Y P > < n b b ;.y.1.u.l.k.1.<.6.y.k.i.[ e.y.y.",
"[ ] } w.r.t.) U U ! < ; w 4 1 U ` X.{ L r.D b n b < T ) b ` K i.i.r.{ E r t Y U r 0 P Y Y l G G L :.:.u.1.0.7.x.y.G I I I Y ^ { ",
"' _ s.s.} {  .E W ' Y U 4 1 1 w u 8 a Y P k r z P P r x F w.G e.G T t y 6 w P e 0 T ` R n R T { { & n w.p.t.i.} E P P Y Q y U E ",
"t 9 e W ` Y e y r U a s E Q P.a s ! ! Y y e P G b , R x R ' b R T I y U ^ Y I e > ] { v n b R z n ; ; P T R [ W R ` ` | R Y Q U ",
"r r t Y U 0 4 y + ^ ' } p.P.P.P.{ } { _ ) r w U r b R ) ) n T E T R b T _ _ F ' x _ G ] { _ l W , e 9 0 t 9 ; T y.x.k.y.:.} G I ",
"I y z < : r w y P t.z.F.F.F.r.] ' _ } [ r.T 0 y Y T n R z I Y Y E x _ ] _ ) R ` ) n ) R ' ) R z - q 5 5 9 e , Y e.k.l.l.1.w.L L ",
"l.u.a.] T ' W X.p.n.x.z.g.r.T z F G =.:.;.e.c b G v < , P Y I I E ) { ] [ ] } [ [ ] ' _ ] _ _ _ x w 3 3 0 e r | ,.b.x.u.e.] L :.",
"k.l.N.c.z.k.x.y._ ` ] t.e.t.<.:.p.,.6.-.:.L H y.=.m n c k T I E x ' _ { } } } a.] r.r.} { [ G ] F , 0 = I l _ ) L u.:.w.[ r.} t.",
"k.6.u.u.k.y.L u.<.D y.e.t.y.k.k.u.k.k.;.) n L u.1.=.) F n T E I E R { ] { } } t.i.f.r.} ] r.[ w.b ` I E T R ) c ' r.r.} t.{ e.] ",
"l.k.y.p.t.t.:.] e.G k.t.e.<.y.u.p.z.k.t.] [ [ ;.u.-.' ` ` ` W n T z R ) _ } t.m.M.M.h.f.} w.r.L _ W e P e b ] } _ _ ' ' } r.} ] ",
"] R } _ t.t.m.i.y.w.n } e.y.k.z.z.x.p.n i.i.;.w.:.<.-._ K R _ w.;._ ] J y.i.m.m.p.t.w.f.t.i.L ] ' I r e e r P R n T W E I I = $ ",
"z ) R x b { p.p.i.m.o.t U U [ r.[ ] K =.4.J L [ [ ] ` ) F [ ;.y.u.1.,.<.l.1.k.p.t.t.[ v E E ' r.[ { F k 0 r < ; - X 3 3 O 0 r : ",
"z < r 0 r U Y | r.j.P.z.u.i.` I ] e.[ :.>.w.{ { ' R ) W R F w.;.1.5.<.p.p.p.-.;.] ] G ] v P R R v _ ) T c b z P ; 3 4 9 + 0 0 e ",
"P e t 0 w t y i P.s.m.z.x.x.i.i.p.p.x.f.i.] X.{ _ b T I x G w.e.y.e.w.[ } [ L S W x I x v f x T n ) x v ) ) v G ] x T P r r = z ",
", ; 0 t i P.P.P.P.P.P.P.P.V.B.z.n.u.e.r.e.' W W I r U r r l [ w.J :.;.H n I I U r z P P r r , , x l d k n L w.e.e.t.w.[ } ] n : ",
"- k ' r.{ o.' '  .o.a.o.} i.p.t.t.K x r e w , I Y Y r r P r v S N G k I z r e r r r P P t t e < k k z k [ K [ w.w.e.e.t.t.e.[ b ",
"> _ _ t.r.' ' ` { r.W W T ' _ | - , x P 0 0 ; w * k < < 9 * q , l l r P I < r , r r r e ; ; 0 e e , k ] J t.[ [ [ [ [ [ w.G b ) ",
"F ] ] [ t.{ r.o.{ Y E T e s Q a y 4 s y 0 w - 9 , I z z % = - 9 . z P r P r e e r e 0 0 w w ; y ; > l K e.>.K G G _ G n n ) ] n ",
"v L e.i.p.t.s.W W I i w 0 t r y y e y P P 0 + ; & P P e , , : f f n < U U r y e r r , 0 t 0 e I z n n F ] ;.w.e.L L w.L L L G l ",
"] B L p.r.r.w.Y s y a P Y P U U r Q Q ) F c < r R b I > < b I b k b F R < U r U P Y I I T T I W G { W ' X.) w.L w.G w.w.K G F v ",
"_ } _ P r y i q 9 ~ e r r e w U r P U _ K ) > H K G G G K h W I E x E R I r U E T E E T I x F G ] [ '  .^ | | E t T T n b T S G ",
"T I z x P r y W T E R Y x , e e T n H K K H f J L Z H D c I I E T R ) R R I ` _ L [ ;.r.[ F K [ ;.t.w.r. ...X.` W ' ` ) R { z I ",
"Y U U y x n ) ) T n F G H F G K e.%.,.>.B L L H V M A B l I z b T T T R T E ) w.r.w.;.<.e.:.=.[ e.i.u.i.} ` ` { { { ' o.X.) ` R ",
"W y U < P l T v D K K w.;.L :.<.,.4.&.$.C #.=.&.+.+.B H S R v l T T n b T T N L i.z.u.m.z.B.x.B.p.p.t.t.E T ] _ { _ [ ' ) E E E ",
") Y T Y U x n e.L :.e.i.e.:.i.p.<.y.-.Z C $.2.$.&.A C g K v l k I , < e e U Y ) r.b.B.B.B.M.M.i.} _ ) T l F L K ' ] G ' ` _ S ) ",
"_ n R T < K G L ;.{ } } [ w.i.;.=.:.#.Z <.<.:.<.S J H D f z k l b x 9 < T P T ` ` K V.x.z.x.u.' ' x T T ] t.H ] { { ] ] { _ ] K ",
"] ] L v b R ` _ ' { ' { ' { } ;.J =.:.$.;.<.A @.=.K K F > x _ ] G ] ' R z ` ] ` ` t.c.l.4.=.D b x z I R R R k F R _ ) F w.t.[ [ ",
"-.>.e.] ` F [ ] ) _ ' ' ` ) R T n r.-.*.L 2.8.w.6.1.-.J R _ y.;.w.y.l.e.I ^ E { p.1.1.y.<.t._ G R f ) I I z c n W E R K [ e.L ;.",
"u.<.[ F T I P U y r r P < I T T b D 6.<.u.J K K L =.y.;.y.K z T [ e.p.y.f.t.] r.p.6.e.G ;.w.] _ R z - r I T n _ _ ) G K w.y.e.u.",
"z.<.b U r y r t w w 9 q q 0 , P I } K [ J J w.K v L L w.{ } ) R ) } } } [ e.H w.u.6.y.y.=.y.i.e.l P < U P z x ` ] S [ w.J w.L :.",
":.r.Y e y e w w 9 0 w w t w 0 T T n b =.L A H ) _ _ _ ) _ _ [ s r ` X.` ] [ L 1.1.y.1.i.i.K e.w.S z < P P t e y | R } ) F { F ) ",
"y.b e e r 0 w w 0 e t w w 0 w ) _ [ I l G v n v ) W ' ) ` ) T p u W ( W { r.y.u.:.u.p.i.z.w.[ K ] n e e e t 0 ; y U ! ' ' ' _ F ",
"F n 0 r 9 0 w 9 0 0 9 9 0 9 < F G ] B d b R ) T T R R R R T y w 5 p Q E ' } y.<.k.1.i.:.u.G K _ _ R z e w 0 t q q 2 6 w U E ' ) ",
"{ ] v U r ; q 0 0 w w 0 0 @ n K [ L J _ } G _ L w.w._ R I Y E Y ' U Y W o.} w.e.y.1.y.H L ;.t.[ | P P Y ; i w t 7 w y U ! W E ) ",
"c x b l k - + 0 t t 0 e P l [ ] _ ;.,.;.w.r.e.;.[ { } } ' P Y ) y.e.t.t.x.r.} r.G G D L D F F _ ) } } ] w.` P.P.{ a.} U ! ^ W x ",
"@ e 0 : t e 0 e I R R R ` H p.;.t.<.k.q.u.i.u.w.L G _ ) ) F R v Z <.u.z.M.{ [ } ] ] w.G K r.u.y.p.p.z.p.p.i.] / { { { } X.U Y t ",
"k - * ; P P r l G F < < R b F K :.1.D.H.A.C.,.t.e.] [ D H =.K K ;.2.7.6.c.;.;.e.D D [ ;.w.y.u.p.z.z.p.p.y.e.w._ K ] ] w.r.] F I ",
") ] n R ) x = [ i.w.R R _ D K [ ;.A v.K.H.S.4.6.u.L L J w.] ) G J 1.*.3.9.q.n.7.-.L =.w.:.y.<.z.p.p.p.z.z.e.w.{ ] e.;.y.w.[ ] K ",
"] } ] [ [ y.e.L h b ' ) ' n ] L J >.c.Z.J.G.8.7.:.G S L v n S c ) _ _ D L A u.,.$.A ;.e.K ;.:.>.y.y.y.u.u.;.K ] F R R D [ G K ] ",
"} t.u.p.i.d.e.p.y.] K w.G r.] w.6.b.b.x.z.G.B.i._ D x c l c % > b ) F S R n c Z A A H H H K B ) G { y.p.y.[ r.F c R K ] ] ' { O.",
"i.p.z.p.z.p.<.e.i.;.w.e.<.e.e.p.y.l.k.l.k.x.b.X.R R W T b : e r x z F ) F n n v =.A B H J K w.;.;.;.L ;.L L { _ | ) y.=.w.:.[ k.",
"i.i.i.;.z.z.l.p.y.-.e.y.e.u.y.p.z.p.k.u.u.t.z.' ) T b T I z P < z E _ G G n c B L v N Z :.;.e.y.e.:.N _ ;.N c R _ R z.e.w.t.w.i.",
"i.;.i.e.u.i.u.p.u.L e.e.e.y.y.;.y.:.y.y.y.u.p.} t.' { ) { ' ;.F c F S H S Z D =.=.H F D u.k.k.k.1.c.x.l.c.v.S.;.R ) t.:.w.;.e.i.",
"t.<.y.k.u.z.u.:.K [ ] [ [ w.L [ e.t.e.r.] } w.z e I ` p.R _ ) l { L _ F J e.e.Z ] ) v F H J -.:.$.0.S.K.G.K.H.H.F.F.r.R } w.t.t.",
";.w.y.-.-.D ;.;.L w.[ [ [ w.G ] K [ } e.[ r.} E U < K T _ ] { L H ] G n n F G Z K D J ] G S j <.l.l.S.G.F.F.v.b.v.L.b.k.l c ) ] ",
"{ ] w.L w.[ { } ] G K L ;.w.e.w.w.] a.r.} { I Y r r.K ` { W E T G G _ k R F c   F S N =.] D e.l.n.c.n.b.k.x.l.c.x.x.z.z.z.) R T ",
"z T [ w.K ] L [ L [ w.w.w.w.e.i.p.e.G ) W x e I 6 } { W ` R I E x G ) W P % k B G ) n c -.u.v.F.v.c.b.k.k.u.u.z.x.z.b.b.p. .Q r ",
"y P n ) F ] G G [ e.[ ;.w.r.w.w.:.k.[ ) W Y t w e U a.;.T T _ ` ` E e - e < > e z Y k K y.x.x.n.F.c.c.1.p.p.u.1.<.u.z.;.[ P U P ",
"r z D ;.<.w.K [ [ w.;.:.e.w.w.k.-.F.S.0.x.>.=.i.e.u.[ } } ' ` U U y y P x ) T R R R r.e.V.x.1.k.v.l.7.l.u.<.;.e.e.t.t.) P 0 P < ",
"z z D [ e.L K <.y.L [ e.y.w.K K ] u.6.:.<.1.y.k.6.p.u.y.e.w.' | Y E ' I E I ' R R ' } e.u.u.k.0.;.1.k.6.y.y.e.e.w.K ) @ r < e > ",
"W W R ] ) _ [ [ t.y.:.e.L w.:.:.1.l.>.<.1.k.<.<.<.y.>.e.t.t.] { ^  . .) I n < T x } t.w.k.k.l.k.:.J G } G x x x T I < P : t : d ",
"` / ' _ ] ' { t.t.e.} Y e.r._ <.6.<.-.-.4.,.7.u.<.p.k.k.u.t.} } Y a.` W E E U s W ` r.b.c.k.u.l.M G D v b l x n ) ` n b n & > T ",
") ] } ' } r.g.s.m.g.s.s.` I E ] e.;.L <.1.7.0.k.1.p.k.k.7.7.{ R s s } ! Y Y y e y U s i.b.B.c.c.,.7.<.L ] i.p.G _ F F _ G # < < ",
"T ) ) ' {  .r.p.p.m.z.c.n.c.i.Y z I I F F ;.4.7.c.b.n.S.F.b.z U y Y ! U y U r ~ w w U Y { ' K w.S ] T T c D 6.y.t.t.t.:.B c < G ",
"' _ ` X.W i.t.x.F.n.:.i.;.W T ) r Y U U n ` ) e.l.l.6.c.v.W T Y z t E ) W E U ! 0 0 Y U T E U r e z x x < k _ ] [ ) F v -.K ] R ",
"' t.p.p.p.e.k.e.v.k.6.l.) Y b n < y 9 u q Q ` ' ;.1.<.) ' o.r.] w.w.] } ' ' I I 0 , 0 9 P r b x e e P I z f l K R L n J _ I T ) "
};
