/* XPM */
static char *result[] = {
/* columns rows colors chars-per-pixel */
"80 80 118 2 ",
"   c #070505",
".  c #080705",
"X  c #060807",
"o  c #0B0906",
"O  c #060709",
"+  c #070809",
"@  c #0C0C0B",
"#  c #110B07",
"$  c #110E0C",
"%  c #0F100D",
"&  c #12120E",
"*  c #1A1A0D",
"=  c #0E0F12",
"-  c #120F10",
";  c #0F1011",
":  c #151412",
">  c #191614",
",  c #171815",
"<  c #1B1A15",
"1  c #161618",
"2  c #191719",
"3  c #171818",
"4  c #1D1C1A",
"5  c #211E15",
"6  c #211E1B",
"7  c #1F2014",
"8  c #1F201C",
"9  c #25250F",
"0  c #222116",
"q  c #22221D",
"w  c #29271E",
"e  c #27281F",
"r  c #2A2B1E",
"t  c #1F1E20",
"y  c #211F21",
"u  c #1F2020",
"i  c #252522",
"p  c #282623",
"a  c #272823",
"s  c #2A2B25",
"d  c #282729",
"f  c #272A28",
"g  c #2C2D2A",
"h  c #312F24",
"j  c #302E2B",
"k  c #2E3025",
"l  c #2E312C",
"z  c #313125",
"x  c #32332D",
"c  c #36392D",
"v  c #393A2D",
"b  c #2D2E32",
"n  c #2F3131",
"m  c #343532",
"M  c #383633",
"N  c #363934",
"B  c #3A3B35",
"V  c #353739",
"C  c #363A3A",
"Z  c #3C3D3A",
"A  c #413F35",
"S  c #403E3A",
"D  c #3D4036",
"F  c #3E413B",
"G  c #424335",
"H  c #42433D",
"J  c #464A3E",
"K  c #494B3D",
"L  c #3B3E41",
"P  c #433F41",
"I  c #3D4241",
"U  c #444542",
"Y  c #484643",
"T  c #464944",
"R  c #4A4B45",
"E  c #444748",
"W  c #454A49",
"Q  c #4C4D4A",
"!  c #514F4C",
"~  c #4D5145",
"^  c #4E514B",
"/  c #515245",
"(  c #52534C",
")  c #56594E",
"_  c #595B4E",
"`  c #4E5251",
"'  c #535552",
"]  c #585753",
"[  c #565952",
"{  c #5A5C54",
"}  c #5C5E59",
"|  c #605F56",
" . c #5D6256",
".. c #5D615B",
"X. c #606256",
"o. c #62645C",
"O. c #68675D",
"+. c #65685C",
"@. c #6A6B5E",
"#. c #5D6160",
"$. c #626661",
"%. c #656A62",
"&. c #6A6D64",
"*. c #6B6E68",
"=. c #706F63",
"-. c #677064",
";. c #6C7265",
":. c #6C736A",
">. c #6E796C",
",. c #727464",
"<. c #767965",
"1. c #72756C",
"2. c #76786D",
"3. c #737670",
"4. c #747A72",
"5. c #7A7D73",
"6. c #78857B",
"7. c #8A8F7B",
/* pixels */
"Y U P U S g ( U Q ) O.&.,.O.{ M { O.,.;.,.&.,. .[ +.X.X.X.,.<.<.,.<.T ) -.:.:.:.;.! B T &.&.@.| { Y ( ' / ] { { O.&.S < S S Q H H J Q Y / Q ! ] { ' R Y M 6 y P ",
"d d d p 4 s B ! R / @.O.=.=.X.m ) / _ ( X.O.{  .o.o.( c ( =.@.<.,.<.T / ;.>.:.-.+.g ~ [ @.O.O.| ( ' ' ( ( ' { ..O.O.&.O.U < < j g s m M V M M j M M g 6 1 2 6 i ",
"] ] ] ' ( Z i m Q { | O.X.O.( j Y / R [ ) ) [ B _ O.@.<.| c j / X.v g G / ,. . .{ M Q | { | O.{ { ( ( ] ' { { ( J ( O.' Q Y j 6 J { &.%.*.&.%.O.} T V x Y ! ! ] ",
"o.] ] ! ' H m p c ) { O.| | g < 4 : 4 8 q g x c c M c w 6 6 6 > 5 0 @.~ z K K ( 6 x / X._ { { { } o.[ ( ] ' { H S S U Y ! Y x B &.1.5.5.5.*.&.&.&.&.| j %.{ | $.",
"o.o.! ! | ' d d d i i i 4 i y M d 4 x s < < s p j s j R 6 6 : : @.%.^ ^ ~ s K K 6 H Q ( ( ( / ( { | ] Q Y W ( Z B S S Y R S p Q } *.4.4.4.3.7...{ X.} V o.} ' $.",
"#.| } } ! ! P d i d i M y { o.&.&.U a i [ O.o.&.@.o.R H { i ^ 4  .[ Q ` [ D z ~ 6 M H H ( ' Q Q Q ! Q P Z V m M B S S Y S p M { { ' ' *.1.3.:.] } } { C *.| | } ",
"| $.! ! ! ! S d V { 1.g ..%.&.%.&.1./ { [  .~ _ { &.( H j M Q i  . . .^ ^ K G q > y p j S H Y U Q Y W U B V m g j M g p g i H ' ] $.*.*.&.1.$.{ { ( ' m 5.#.| } ",
"} | E ! ! ' M i B ( ] Q ' O.1.$.o.%.T O.{ ) R ~ X.O.5.R S s 4 i  . . ...o.K J 0 4 y i i i s Z Z Z P S U p i p d g j s : : : [ { ] ] $.%.%.&.Q U T ( R E ] &.} } ",
"*.Q E ! ! Z m i V Q Q Q ] { 4.O.$.o.f &.{ ) [  .O.,.6.;.@.Y M i < 8 0 x ~ x k 4 a C C 0 d i 6 y - y Z i y y 4 i 6 p i j i > Q { ' Y Q $.$.' H Y Q ' } | j 3.&.&.",
"! Y Y Q Q m j y g V ' ' [ o.o.o.W F  .2.[ ~ ^ ^ { <.X.o.+.X./ 6 q l +.F w x 0 N s D F 4 i i g j g p 1 - 6 6 2 6 i M i p i 1 U T H Q ^ T T ' Q Q ] ] ] ' j U o.Q ",
"Y Y Y U Y m p 2 i d g : $.o.o.^ U *.U 1.( R [ ( )  .o._ ) ~ / > g z K J ~ X.) 8 m > 3 4 > - : > 4 4 < g c g i > > - - - - 1 Z W ^ ^ Q H H H Y / ' { { Q g d *.P ",
"R ! Y M Z j 6 1 4 i d i f f m C %.} S } { [ ( ~ O.~ ) / Z B g i s z B z c B G N j 4 : 2 4 p T Z Y Y S H p 6 6 2 > i d Q M d i d V Q ^ H Z Z Z H Y ' ! S m ! B } ",
"R Y Y U m j 1 1 : : 4 4 8 i q : m i 4 ^ i M x s H N l g l l s q s s D D H D n N x %.#...%.:.*.} } ' S H U Y U P 2 ] E ` &.%.' 4 i m g U Z S Z Z U U Q B g m p o.",
"g j d i > : d m 4 4 f i i i d i p q : 4 < < q i i i q < < < , 3 > < a k k x N c 4.$.%.:.*.:.:.3.4.4.Q ! ' ! Y S j Y Q W ` ' ' %.M > d d S S H Y Q R Z i j 4 4 m ",
"j > j j y g ! Q E 4 4 M B B M V g M < J [ ) s 4 4 s D J v D D N B ~ ( J u u s -...%.%.%.Q :.%.%...*.#.Q Q U S U P W ' ` ! ' ! P ..H > 6 B H S Z p p p j p y i B ",
"! ] ] j p 2 P Z Z L g t g x V H T g 4 B c g q Y 1.;.%.%.~ ^ R ~ ~ ~ ....6. .l F [ $.&.*.Q #.} ....#.#.#.! E P V ' Q ` ' ` E L U P ! p > j j 6 > i 6 4 6 4 b M : ",
"> > 4 > $ b - - : < > > < 4 4 2 : : & & < x ,.*.;.*.$.$.} ' ' :._ >.6.>.6.%.D H Y %.o.} { ^ %.{ ..#.%.%.$.' [ L Q ' ' ` ' Y Z Z H M i > 2 > < : 8 a l 4 4 2 > > ",
"p j h < { | o.%.( S 6 6 d p g g 8 4 4 < M x &.X.} Q Q $.$.} -.-.>.>.-.-.-.%.^ 4 H B o.{ ..} Z { } { } $.$.$.[ m U ' ' ' ` U U Z g d i 2 > 3 u i V f U I Z M B m ",
"j > S Y ( ( ] ) { X.{ D i , u q u 3 g C Z d M ' { Q Q ' { ..{ _  .>. ...-. .K s i j c ' ..[ | U ( ^ Q #.o.} B 4 1 V p d d i i d i $ 6 i 1 f 8 U T I U F B x x i ",
"$ { S B K H K H R Q _ ( ) D a : 3 % B H x x p j M B H ( ' ~ ~ R K ~  .-.-._ g i > H Y Z Z T S Y V M Z g g b t t 2 1 p i i y 1 4 i g m d 6 q U Y I N l l M M j i ",
"2 ' Q Y S H H ( J Q J Y J J K 8 @ % q l g x p F F T T B H J ~ K ~ /  . . .K g 0 q 6 > 6 s M S H p j M M x g > 4 t Z y d 2 3 i j g i g 3 3 F I I C g f s g z p p ",
"4 { Y Z M M G S B B H H D F D f 8 , & < 4 s 4 q a a i B T G H J F ~ _ D V j & w H Y S M p : < : < p p 6 < < Z y t d b 4 1 > 4 2 Z 3 f 3 n I I L C C f f i 6 > > ",
"g U g x Q R M B D x D F J l f a i % g x 8 , : < 7 4 4 k z z B G H D D k q s < w z m p p q : : C Z p < y y 4 U y V H Z d i Z Z P I t 3 u l D F C I C g a 3 t d j ",
"2 2 4 i 6 < 4 i a a a a a l f u : & < c 8 8 N < : , , % : & 7 e 0 7 7 D ] ! B 6 q M S i d s 4 0 > x 6 p P P M 2 U Q P M Z n b m g u u l n F C l a f 1 : 4 4 4 1 ",
"Q W Y Q j d i < i q i s 7 , u 7 B s q N D F D i C B D F e c l , v z : l c q X.} K K G z K z Y G J c 1 i B S j i m m Z i g V m b Z y m C V F f f < g [ ~ N V T F ",
"! ' Q Y H Z f i n C C V f D C a 4 : l ) R / / D  ./ J D D F l l / K < 8 q R +.~ R K A K K H Q ` Q Y V f > P b 4 1 d y - - 2 > 2 3 = m m s q 8 q g ( ) ~ T T ^ Q ",
"T m m m M V B V B C H H F I W F a % D [ _ J J ~ ( ~ F D l f k x k 8 3 %.R s ;./ / Q Q Q ' ' ' ' Q } W L b i b 4 4 2 3 2 4 g d d y 1 : u 8 : x F R J H U H R Q R ",
"R M B C Z L B B C F F H F F W W C a T J K K x _ / ^ F D k f k l e 7 , %./ K J ( Q E Y T Y E V Q Q { ! U b d 1 V d i p 2 y g b g 1 B i 3 : F H F J H T ^ R ` Q Z ",
"Y V Z Z Z Z B L F R J U T R ` I D s D v R k B B ~ ~ J c c c x s q t 3 &./ G G / g U Y Q ! Q L Z V b U U b t b ` W Z L d y y d y - Y V : 4 J H J T U H U ` / Q T ",
"U Z Z S Q Q H U F ~ ^ ^ J R ^ I f 4 B v 8 ~ / N G J v x l l l 8 i q < %.R G J G m 4 H R ( H U H I m d d t d ` ` ` L V V V b y 1 @ - m 4 8 F T R Y ~ Q Q / ( Y Y ",
"Z U U Q U U U H U U Q F F ^ ` l q 4 V 4 q w p s D D B l l l i q 3 4 : j c C F F L F g Z ! Y U U U L i 4 d ` ' ` ` E V n n b b b d : & g ^ 4 B F R { [ { ( T Y Q ",
"s i i 4 { ^ T U T Q n ' [ ^ N g i < < < : i w p s s l k f k a 8 8 : 5 & > l V I L Z M s x U U U U L y i b L #.` ` ' E b b M g j m 4 4 < f 3 i l g d q x l g g g ",
"6 6 4 i p g g g d i 4 4 g g g : j c & B c l , % 6 5 & & & 7 8 q : < r z 0 , k l m C B n s V P U S d 6 g L B I W ` ` ' C b N Z i f 1 g u : : - 4 4 y d : 1 3 i 4 ",
"p 4 6 M H S S Y B i 4 4 : 1 : - - 4 > 4 < < : % > & & & & z D D k < e k k , 7 m 1 i m d i 6 j Z d 2 d Z C V W ! ` E ' Z n n u f 7 % , @ 4 b : - : i : : m Y Y H ",
"2 1 6 j x m M S H g m p B B M : 2 j S B c p 8 a s z c c 0 < < 7 q 7 & q w : a v M : : > > 6 p 4 : P b U Y U W Q W C T m n 8 f 3 f N @ @ d g - m 6 6 1 y > : $ > ",
"s 6 g s p p d g 4 6 : > j g 6 > Z H S B j j c c c c c c v D z q 7 @ w 8 q 3 > : > d i p 4 j m x < < i d p V J Y E V x f i i 3 8 e q ; : 4 1 1 g 4 i 4 6 6 6 p p ",
"H H M x j B H K m x j < q 6 > U H H H z N F W I B c B B D c 8 q u 7 & % & < a g g g g j p 6 4 i g j : : 6 6 6 6 < i a f : : ; % ; % % 4 : : 2 4 d j j m m 4 j H ",
"U Y Y M j B A R S x j p : > U H U U Q Y ` [  .[ F H D D F D f N 8 % 7 c s a l m x l g d j : i @ y 6 : : : 4 y i i i 8 < % 3 8 8 1 4 4 3 : F Y i f Q T R V M x H ",
"x x J S j j K S B c j s : > H Y Y ' ( X.[ [ ) T ^ R T T F 8 c 4 < 8 J J c c V N 6 F S M g - g U E Q Z : 4 i p s l g l x 4 1 3 u i 3 4 1 n x j M m R T Q H B H j ",
"c H S Y K Y H H M S s p - i p S J Z Q { ) ^ ^ ) F D F J H f i 4 q J T T G N N G F M g j : B Z z M c Y 6 4 d g g g x V l l 2 3 4 4 : : s g d g x M R B U F B H x ",
"j M M B S B M v B p w s $ 4 6 y q x B F Q Q R F H F G 3 3 6 < i l ~ J H U Y ~ R B l i > R c l s j j H < : s 6 p g z c x 4 3 1 3 1 : q j x j x V B Q U J H H H e ",
"z z h h h h 0 h i p q < o $ > w 6 4 6 q p x F F S 0 q : 2 : j J D F N J ^ ~ J G k 0 > - C s s s x S H h > 1 i s s h g q m : : 4 - : g m M M g k z B U U Y J s k ",
"h h 5 s q w p w 0 0 < & M 6 > > : : > > > < < x q 6 # & & c Y Z N D B R ~ / G z 5 < < : m e w w i c B z < : , 4 6 6 4 3 3 : ; : $ $ < 6 q i q 4 i g a s s i s s ",
"6 6 & & : : : : > & 6 & z 6 $ & & $ @ : & $ > s & $ p & 4 4 0 4 , 7 e s r z r < 6 g q : g q e s s w g s 5 & & & : : 4 < : @ @ : $ $ 4 p : i i t 4 & < & & > , 7 ",
"a g 8 , < B M B N l < @ @ : : : > : , : : : : 4 & M q 4 5 & & & $ & & $ # * < $ : & < s q w q e 0 s k k w < & < < V E B N H U Q T M @ p f % & 8 g q < 7 a e , 3 ",
"m 8 u C Q ^ ^ ( R C x 4 4 u 8 3 3 3 8 < 6 4 $ $ < 7 q s r V F C N N 8 c c < B G p $ p s q g i q g q g k x & < e F U F B C M B Z ` Q Z : , % x k x N 8 , k 7 8 , ",
"C D ' ' R F I U U J 8 , 4 8 4 4 i l q < 4 : : x c B B B B H F F G l a B m N < v w 5 s s s s M x h i x x k : s m F m m m V F B B B R Q 4 < < : , 8 , : < N C D k ",
"D W ` I D F C D B s 8 , 4 8 8 4 i q 4 < : i s x g D D B g l v c x c q N B v x & : $ s x s h c j g k l s g < q g n n x c M B B m g p s < : e f q 8 s : f C C D T ",
"F F W T F B x g s N D & & < 0 q q < 3 : q g s s a s g z v c a a s e x D c c s & * : & & < q x B B M B M s 5 0 s s j x M M c x x h p p 5 : 6 a a a k 8 < N N N T ",
"F T R T D B c l B c N & $ : 3 : < : : : q q q e q q q q u i a a q q g 4 i 8 < & B F D < & & < M B B C Z g < 6 w j z x j p g q j j p 6 6 $ w 8 q 8 a 4 q l N c D ",
"B H J I v B z g q q q & : $ : : & G a ; % : & & & & i f 7 % % ; , , : : & : $ s g N B ) < B & : q s x j g > > 4 d i i s s j p q y 6 6 $ $ > 0 8 q p a < l B x B ",
"g c k s x s s 4 * : : & 6 . < < % s 8 : q a q x c c d : , a < n x 8 g 8 0 < $ s g l V D [ 0 0 < & < < < < & $ 6 4 4 4 > > 6 w > 5 & # $ > > > 4 q p i < 6 4 N h ",
"w s s x s q < p a & : % > < 8 < 7 : % l c 8 7 c M V D f 8 8 n D l s q 4 g l & 0 w k x c Z { H B B g : > > : > $ $ & > > > > < > & > 5 : > $ : : : < & > Z s x q ",
"l $ 4 6 0 p < : : & , , g 8 7 s f , o g l 8 8 c D F I I I n 8 D q u 4 7 3 s & 6 q g h g x j B B B R q & $ j s i > > 6 4 > > 4 5 5 > - p z $ w 6 4 $ @ @ 5 6 6 p ",
"< < @ : > : $ # & < , g f f l N N , @ f l e a l F I I I I n C f 8 4 2 i 2 i 6 > 0 s g x z B S S B T s : 5 : : - : : : > 5 < > > : : : q q < 5 5 0 4 & < $ $ > > ",
"$ & $ $ x z 4 $ : 8 g g l l k s x 7 % l a f a U I I C D D C n l n I 4 a g g d & 4 > q 6 j s j x m q $ s > > i g g s i > : > > 5 $ : $ > 0 < : : > $ @ 4 > > > - ",
"N l 4 : @ 8 % & : s l q q a a l c 4 & i s q s B F N l m g m x l g m F 4 f b i @ $ $ # $ $ $ : : > $ > < d : 4 6 6 4 > > 5 w j c U Q i & & 4 @ 4 m i 2 m C q V F ",
"F F V x < @ o : q s e q e 0 q e 8 : & * w a e l k i q l n g x g k m M x i g & o * p p 4 6 < q g d > & : 0 - < 4 4 4 $ * j M j h < : @ 4 s s > j M 3 n m V g c N ",
"g l a s 8 % @ : , q s 0 < , & % @ q c & & < q q q q q q k e s < < z z B % # & B Z S B q q 6 p s B q q @ : : $ > 4 - $ x z p p < 0 s U W Q N : x l 3 g m M x l V ",
"s x i 8 q : + @ % @ & , : : & % & * 8 & & : : * , , : < & < * < < w s , $ i H J c s i s p p p d C s 6 i $ 3 $ > $ @ : : 4 0 M z B H Z I W c @ x g i m x j c M x ",
"i i q i 8 & @ g 3 m U c s s x < N N e 8 & : & : @ o 7 , @ @ # & & # o & M R q i a i s i a f g l V e f 0 q : 6 6 $ $ : z H B B B M x g Z C 8 & 4 u g x m s B M l ",
"4 4 4 6 4 % @ , : 0 w q s q q & q i 8 & 7 7 8 : w q q q % < & o o : : V R i 8 i q f q i i s x V s e g i q 6 < < $ & H B c M x x x g g m < H : l , f m M x a i q ",
"q 4 6 q < % @ 3 ; : & : < < & : : q & w q $ & 7 8 , & % & 8 , 8 s l < m g 8 i f i a s s s f V s e x l i i g j & > > Z c c l l g g g s q k c , s g i N m l s i 8 ",
"i q 4 8 @ % @ & l @ i g s q a q 8 4 & & < @ * N N N B N x s l x k s 3 3 g q 8 i a i f s a i l s 4 V M x g s B s $ & c x g l s g g x s < c h 4 s l s g l l s i q ",
"3 < 8 , : & % q f 4 q 6 q s q i i x l l i 8 , N x x l k l s l k s e q < : f 4 i u i i f i i j p 3 x l x s f < : % : k q x a 4 4 f e & h r r # a i s g g s q q 8 ",
"< 3 4 & & : @ ; q : 6 q > q i i q 4 & & % @ 4 N l x c x s k s k s g q q : q i 4 4 i i f 6 i q : s p x l k f : % % , < q q q 0 q 8 8 0 h r & & & & < q 4 , 4 4 3 ",
"> : : & : ; @ = & & & @ @ 4 4 : 4 7 4 4 < < @ i x l k k w w e q q , q i , : i 4 6 6 p q q 0 < q 4 s g x l : : f 4 : , 8 e q q i 8 < r < & & & & q q : @ % : < 3 ",
"< < & @ @ @ @ @ & g B x g 0 q a f s k 4 i 0 > & e k z r r q w q 0 8 q i : :   , 6 > 4 6 6 > < 6 q s q 6 : & % 8 : @ * * , q 8 4 , & k & r s 0 < & 0 < 7 , & @ @ ",
"% & & o @ @ @ , g 4 e q e s k s l f s 7 8 8 < : % < r s z e w < 4 < @ : & @ < @ @ > 4 4 > : 4 < 3 4 3 : ; @ @ @ , % % % & & < : & * < z z w 0 , & o & & * o o @ ",
"* < & o % i > @ 3 0 q 6 q q e s a e q 8 q q 8 q : & : : & * : * : : : : @ 6 q 4 @ @ @ $ @ $ @ @ % ; @ @ @ + @ @ 1 @ ; , @ o & % o * 9 r 0 < < & , @ 7 7 < , < & ",
"o @ o @ o & % o @ : i 4 i q q s l x c k a < i a q & % @ * % % % & : : $ @ $ : : > > > < < 4 @ < , @ @ @ @ % @ @ % % + @ * : : ; @ o , & , & & & @ X o @ o o o o ",
"% @ 8 : o B l o < < @ i i q 8 q 8 q < < % q q 7 4 & % % * s s q 0 q q q 1 $ : < > 6 < < < < < : @ : @ ; < < 3 3 3 : : % % @ @ @ @ & & o o o X X X @ @ @ q a 4 4 ",
"@ @ @ @ O 3 < o : & & * 9 & & @ X , < , 7 < < 7 , & ; % % , a s e q 4 8 < : : : 4 < < : > < < : ; ; : , 7 4 3 4 3 3 : ; ; % % % % : & @ O @ @ @ @ @ @ @ : < < @ ",
"% @ = : @ @ o : e X * 0 r r e 7 % 8 a s a a e a a 8 3 1 ; @ , 7 a 7 8 < < < : - 4 6 4 < > < < & @ + , < 3 < 4 8 : 3 ; : % : : : & & % + : @ @ @ @ @   : @ % : @ ",
"< < @ : @ @ @ 0 7 & * < 7 0 0 q , & 8 s f s a a i 4 4 7 4 8 % : 8 q 4 7 4 , < > 6 5 4 > > & : + @ @ : < < < 8 : , & : ; : & & ; & % % : < : < & & @ @ @ % % : : ",
"< < : : @ @ @ , < < o & & & & & * & % : 8 , 1 : : 1 ; 1 : ; % % + + + + + + + @ - @ @ & @ @ % : 8 : @ : : , : , : ; : : ; : : : : % @ < < < 5 > , & < : , : , , ",
": < , , * % @ @ @ & & . .     X   @ @ @ % o & * & o . < : + X   X @ & % o & * & < < > @ @ : 7 8 0 < + ; : : : : , % : % & : : : @ @ 3 < q 4 4 : < : 8 : , : * , ",
": : @ & % & % o @ o X . % < 4 4 < , , : & & & * $ * < @ : : < < , % 7 * < < , % & 5 5 < + < 4 , 5 : @ @ @ O X @ % % : * : % : % O X 4 : 4 < < & < , & , , : : & ",
"% & % % % X % @ @ @ o % , : : : % : : : , < & * @ & & % 7 7 < * 7 * * * % : % & & * & & + , , < 0 < @ X @ + % % e < @ @ % @ @ @ + O = : < < < : < < 7 & < & & : ",
"& : % % % % @ % % @ o @ @ % % % % % % & & & : & % o X 7 % % * & : * : % % % & & & & & & X X & & $ o & X @ % @ % * < q < + O X + O @ @ @ @ : : > < & % , & % & % "
};
